<?xml version="1.0" encoding="UTF-8"?>
<svg width="100px" height="74px" viewBox="0 0 100 74" version="1.1" xmlns="http://www.w3.org/2000/svg" xmlns:xlink="http://www.w3.org/1999/xlink">
    <!-- Generator: Sketch 52.6 (67491) - http://www.bohemiancoding.com/sketch -->
    <title>do-our-best</title>
    <desc>Created with Sketch.</desc>
    <g id="Page-1" stroke="none" stroke-width="1" fill="none" fill-rule="evenodd">
        <g id="02-gta-about-us" transform="translate(-780.000000, -1832.000000)">
            <g id="do-our-best" transform="translate(780.000000, 1832.000000)">
                <polygon id="Path" fill="#FFFFFF" points="39.9334079 72.0041645 30.7510524 72.0041645 35.3422302 55.4759246 44.5245857 55.4759246"></polygon>
                <polygon id="Path" fill="#FFFFFF" points="63.8075323 72.0041645 72.9898879 72.0041645 68.3987101 55.4759246 59.2163546 55.4759246"></polygon>
                <path d="M43.4182511,56.3168336 L35.9813931,56.3168336 L31.8573871,71.1632554 L39.294245,71.1632554 L43.4182511,56.3168336 Z M39.9334079,72.8450736 L30.7510524,72.8450736 C30.1949405,72.8450736 29.7919815,72.3149241 29.9408214,71.7791004 L34.5319992,55.2508604 C34.6330998,54.8868983 34.9644872,54.6350155 35.3422302,54.6350155 L44.5245857,54.6350155 C45.0806976,54.6350155 45.4836566,55.165165 45.3348167,55.7009887 L40.7436389,72.2292287 C40.6425383,72.5931908 40.3111509,72.8450736 39.9334079,72.8450736 Z" id="Path" fill="#000000" fill-rule="nonzero"></path>
                <path d="M63.8075323,72.8450736 C63.4297894,72.8450736 63.098402,72.5931908 62.9973014,72.2292287 L58.4061236,55.7009887 C58.2572837,55.165165 58.6602427,54.6350155 59.2163546,54.6350155 L68.3987101,54.6350155 C68.776453,54.6350155 69.1078405,54.8868983 69.2089411,55.2508604 L73.8001189,71.7791004 C73.9489588,72.3149241 73.5459997,72.8450736 72.9898879,72.8450736 L63.8075323,72.8450736 Z M71.8835532,71.1632554 L67.7595472,56.3168336 L60.3226892,56.3168336 L64.4466953,71.1632554 L71.8835532,71.1632554 Z" id="Path" fill="#000000" fill-rule="nonzero"></path>
                <g id="17-business-target-1" transform="translate(23.545455, 10.931818)">
                    <circle id="Oval" fill="#4FC7FF" cx="28.3250156" cy="28.0158664" r="27.5470666"></circle>
                    <circle id="Oval" fill="#FFFFFF" cx="28.3250156" cy="28.0158664" r="22.0376533"></circle>
                    <circle id="Oval" fill="#4FC7FF" cx="28.3250156" cy="28.0158664" r="16.52824"></circle>
                    <circle id="Oval" fill="#FFFFFF" cx="28.3250156" cy="28.0158664" r="11.0188266"></circle>
                    <circle id="Oval" fill="#EB008B" cx="28.3250156" cy="28.0158664" r="5.50941332"></circle>
                </g>
                <path d="M9.09499372,73.1963113 C8.63057245,73.1963113 8.25408463,72.8198234 8.25408463,72.3554022 C8.25408463,71.8909809 8.63057245,71.5144931 9.09499372,71.5144931 L90.8937508,71.5144931 C91.3581721,71.5144931 91.7346599,71.8909809 91.7346599,72.3554022 C91.7346599,72.8198234 91.3581721,73.1963113 90.8937508,73.1963113 L9.09499372,73.1963113 Z" id="Path" fill="#000000" fill-rule="nonzero"></path>
                <path d="M0.840909091,73.1963113 C0.376487824,73.1963113 1.37223566e-13,72.8198234 1.37223566e-13,72.3554022 C1.37223566e-13,71.8909809 0.376487824,71.5144931 0.840909091,71.5144931 L4.66689057,71.5144931 C5.13131183,71.5144931 5.50779966,71.8909809 5.50779966,72.3554022 C5.50779966,72.8198234 5.13131183,73.1963113 4.66689057,73.1963113 L0.840909091,73.1963113 Z" id="Path" fill="#000000" fill-rule="nonzero"></path>
                <path d="M95.1733048,73.1963113 C94.7088835,73.1963113 94.3323957,72.8198234 94.3323957,72.3554022 C94.3323957,71.8909809 94.7088835,71.5144931 95.1733048,71.5144931 L98.9992863,71.5144931 C99.4637075,71.5144931 99.8401954,71.8909809 99.8401954,72.3554022 C99.8401954,72.8198234 99.4637075,73.1963113 98.9992863,73.1963113 L95.1733048,73.1963113 Z" id="Path" fill="#000000" fill-rule="nonzero"></path>
                <path d="M51.8704701,67.3356603 C36.1922241,67.3356603 23.4824944,54.6259306 23.4824944,38.9476846 C23.4824944,23.2694385 36.1922241,10.5597089 51.8704701,10.5597089 C67.5487162,10.5597089 80.2584459,23.2694385 80.2584459,38.9476846 C80.2584459,54.6259306 67.5487162,67.3356603 51.8704701,67.3356603 Z M51.8704701,65.6538421 C66.6198737,65.6538421 78.5766277,53.6970881 78.5766277,38.9476846 C78.5766277,24.1982811 66.6198737,12.2415271 51.8704701,12.2415271 C37.1210666,12.2415271 25.1643126,24.1982811 25.1643126,38.9476846 C25.1643126,53.6970881 37.1210666,65.6538421 51.8704701,65.6538421 Z" id="Oval" fill="#000000" fill-rule="nonzero"></path>
                <path d="M51.8704701,61.826247 C39.234989,61.826247 28.9919078,51.5831657 28.9919078,38.9476846 C28.9919078,26.3122035 39.234989,16.0691222 51.8704701,16.0691222 C64.5059512,16.0691222 74.7490325,26.3122035 74.7490325,38.9476846 C74.7490325,51.5831657 64.5059512,61.826247 51.8704701,61.826247 Z M51.8704701,60.1444288 C63.5771087,60.1444288 73.0672144,50.6543232 73.0672144,38.9476846 C73.0672144,27.241046 63.5771087,17.7509404 51.8704701,17.7509404 C40.1638316,17.7509404 30.6737259,27.241046 30.6737259,38.9476846 C30.6737259,50.6543232 40.1638316,60.1444288 51.8704701,60.1444288 Z" id="Oval" fill="#000000" fill-rule="nonzero"></path>
                <path d="M51.8704701,56.3168336 C42.277754,56.3168336 34.5013211,48.5404007 34.5013211,38.9476846 C34.5013211,29.3549684 42.277754,21.5785355 51.8704701,21.5785355 C61.4631863,21.5785355 69.2396192,29.3549684 69.2396192,38.9476846 C69.2396192,48.5404007 61.4631863,56.3168336 51.8704701,56.3168336 Z M51.8704701,54.6350155 C60.5343438,54.6350155 67.557801,47.6115582 67.557801,38.9476846 C67.557801,30.283811 60.5343438,23.2603537 51.8704701,23.2603537 C43.2065965,23.2603537 36.1831393,30.283811 36.1831393,38.9476846 C36.1831393,47.6115582 43.2065965,54.6350155 51.8704701,54.6350155 Z" id="Oval" fill="#000000" fill-rule="nonzero"></path>
                <path d="M51.8704701,50.8074203 C45.320519,50.8074203 40.0107344,45.4976358 40.0107344,38.9476846 C40.0107344,32.3977334 45.320519,27.0879488 51.8704701,27.0879488 C58.4204213,27.0879488 63.7302059,32.3977334 63.7302059,38.9476846 C63.7302059,45.4976358 58.4204213,50.8074203 51.8704701,50.8074203 Z M51.8704701,49.1256021 C57.4915788,49.1256021 62.0483877,44.5687932 62.0483877,38.9476846 C62.0483877,33.3265759 57.4915788,28.769767 51.8704701,28.769767 C46.2493615,28.769767 41.6925526,33.3265759 41.6925526,38.9476846 C41.6925526,44.5687932 46.2493615,49.1256021 51.8704701,49.1256021 Z" id="Oval" fill="#000000" fill-rule="nonzero"></path>
                <path d="M51.8704701,45.298007 C48.3632839,45.298007 45.5201477,42.4548708 45.5201477,38.9476846 C45.5201477,35.4404984 48.3632839,32.5973622 51.8704701,32.5973622 C55.3776564,32.5973622 58.2207926,35.4404984 58.2207926,38.9476846 C58.2207926,42.4548708 55.3776564,45.298007 51.8704701,45.298007 Z M51.8704701,43.6161888 C54.4488138,43.6161888 56.5389744,41.5260283 56.5389744,38.9476846 C56.5389744,36.3693409 54.4488138,34.2791803 51.8704701,34.2791803 C49.2921265,34.2791803 47.2019659,36.3693409 47.2019659,38.9476846 C47.2019659,41.5260283 49.2921265,43.6161888 51.8704701,43.6161888 Z" id="Oval" fill="#000000" fill-rule="nonzero"></path>
                <path d="M80.6265469,3.9782139 C77.7185129,6.8849799 76.1024527,10.8396392 76.1424966,14.9511288 C80.2729669,14.913029 84.2258326,13.2660017 87.1613233,10.359951 L89.8854221,7.68176397 L85.2942443,5.78407716 L83.28943,1.19289939 L80.6265469,3.9782139 Z" id="Path" fill="#EB008B"></path>
                <path d="M85.3248522,5.81468501 L83.3200379,1.22350724 L80.6265469,3.9169982 C77.7185129,6.8237642 76.1024527,10.7784235 76.1424966,14.8899131 L85.3248522,5.81468501 Z" id="Path" fill="#FFFFFF"></path>
                <path d="M84.7312001,5.21911355 C85.0601252,4.89124858 85.5925587,4.89210794 85.9204236,5.22103298 C86.2482886,5.54995801 86.2474292,6.08239151 85.9185042,6.41025647 L52.6783771,39.543256 C52.3494521,39.871121 51.8170186,39.8702616 51.4891536,39.5413366 C51.1612887,39.2124116 51.162148,38.6799781 51.4910731,38.3521131 L84.7312001,5.21911355 Z" id="Path" fill="#000000" fill-rule="nonzero"></path>
                <path d="M91.4617264,17.6752276 C87.6582361,19.2437098 84.646461,22.2775492 83.1057829,26.0923868 C86.9362846,27.6298658 91.2123434,27.6298658 95.0428451,26.0923868 L98.578052,24.6538178 L95.073453,21.1645227 L94.9969333,16.144835 L91.4617264,17.6752276 Z" id="Path" fill="#EB008B"></path>
                <path d="M95.1040608,21.1339148 L94.9969333,16.144835 L91.4617264,17.6752276 C87.6582361,19.2437098 84.646461,22.2775492 83.1057829,26.0923868 L95.1040608,21.1339148 Z" id="Path" fill="#FFFFFF"></path>
                <path d="M94.7823424,20.3569815 C95.2114309,20.1793014 95.703314,20.383108 95.8809941,20.8121964 C96.0586743,21.2412849 95.8548676,21.733168 95.4257792,21.9108482 L52.4064435,39.7246179 C51.9773551,39.9022981 51.4854719,39.6984914 51.3077918,39.269403 C51.1301116,38.8403145 51.3339183,38.3484314 51.7630067,38.1707513 L94.7823424,20.3569815 Z" id="Path" fill="#000000" fill-rule="nonzero"></path>
                <path d="M82.6816089,0.611795652 C83.096612,0.177711964 83.8197453,0.306022847 84.0600707,0.856386295 L85.9290828,5.13656661 L90.2066401,6.90462364 C90.7635782,7.13482473 90.9046954,7.8589155 90.4749599,8.2814082 L87.7529316,10.9575526 C84.6618987,14.0175855 80.4995834,15.7518836 76.1502529,15.7920021 C75.6860206,15.7962842 75.3061488,15.4235484 75.3016274,14.9593184 C75.2594146,10.6251357 76.9617096,6.45615497 80.0252295,3.39030736 L82.6816089,0.611795652 Z M81.2343681,4.55931764 L81.2210298,4.57295607 C78.6775368,7.11533999 77.1798707,10.5059725 77.0008274,14.0772948 C80.5956121,13.8365654 83.9958255,12.3104258 86.5717854,9.76030677 L88.3894054,7.97332084 L84.9730263,6.56121749 C84.7718288,6.47805587 84.6107251,6.32010499 84.5236036,6.12059025 L83.0243059,2.68708385 L81.2343681,4.55931764 Z" id="Path" fill="#000000" fill-rule="nonzero"></path>
                <path d="M94.6628629,15.3731323 C95.2130401,15.1349604 95.8286068,15.5325702 95.8377447,16.1320177 L95.909053,20.8098425 L99.171362,24.0579056 C99.5982114,24.4828911 99.452919,25.2056774 98.895003,25.4327081 L95.3560777,26.87278 C91.3245487,28.4909469 86.8240793,28.4909469 82.7925503,26.87278 C82.3608988,26.6995245 82.1518832,26.2087648 82.3260618,25.777485 C83.95047,21.7553254 87.1250401,18.556139 91.1342844,16.9006555 L94.6628629,15.3731323 Z M91.7957969,18.4469303 L91.7823112,18.4526294 C88.4561296,19.8242791 85.7706265,22.381738 84.2345385,25.6125425 C87.6481186,26.7607534 91.369489,26.660674 94.7258941,25.3134965 L97.0847127,24.3536309 L94.480143,21.7604349 C94.3247912,21.6057615 94.235983,21.3965359 94.2326416,21.1773399 L94.1753168,17.4168351 L91.7957969,18.4469303 Z" id="Path" fill="#000000" fill-rule="nonzero"></path>
            </g>
        </g>
    </g>
</svg>