<?xml version="1.0" encoding="UTF-8"?>
<svg width="21px" height="22px" viewBox="0 0 21 22" version="1.1" xmlns="http://www.w3.org/2000/svg" xmlns:xlink="http://www.w3.org/1999/xlink">
    <!-- Generator: Sketch 52.4 (67378) - http://www.bohemiancoding.com/sketch -->
    <title>facebook</title>
    <desc>Created with Sketch.</desc>
    <g id="Page-1" stroke="none" stroke-width="1" fill="none" fill-rule="evenodd">
        <g id="01-gta-frontpage" transform="translate(-964.000000, -4345.000000)" fill="#FFFFFF" fill-rule="nonzero">
            <path d="M983.529657,4345.1197 L964.893514,4345.1197 C964.382934,4345.1197 964,4345.52699 964,4346.07005 L964,4366.02734 C964,4366.43463 964.382934,4366.84192 964.893514,4366.84192 L974.211585,4366.84192 L974.211585,4360.05373 L971.658689,4360.05373 L971.658689,4355.98081 L974.211585,4355.98081 L974.211585,4353.26554 C974.211585,4350.41449 975.743323,4349.19262 978.04093,4349.19262 C979.189733,4349.19262 980.338536,4349.19262 980.593826,4349.19262 L980.593826,4353.26554 L979.317378,4353.26554 C978.551509,4353.26554 978.04093,4353.80859 978.04093,4354.62317 L978.04093,4355.98081 L981.359695,4355.98081 L980.593826,4360.05373 L978.04093,4360.05373 L978.04093,4366.84192 L983.529657,4366.84192 C984.040236,4366.84192 984.42317,4366.43463 984.42317,4365.89158 L984.42317,4346.07005 C984.42317,4345.52699 984.040236,4345.1197 983.529657,4345.1197 Z" id="facebook"></path>
        </g>
    </g>
</svg>