<?xml version="1.0" encoding="UTF-8"?>
<svg width="22px" height="22px" viewBox="0 0 22 22" version="1.1" xmlns="http://www.w3.org/2000/svg" xmlns:xlink="http://www.w3.org/1999/xlink">
    <!-- Generator: Sketch 52.4 (67378) - http://www.bohemiancoding.com/sketch -->
    <title>instagram</title>
    <desc>Created with Sketch.</desc>
    <g id="Page-1" stroke="none" stroke-width="1" fill="none" fill-rule="evenodd">
        <g id="01-gta-frontpage" transform="translate(-1063.000000, -4345.000000)" fill="#FFFFFF" fill-rule="nonzero">
            <g id="instagram" transform="translate(1063.000000, 4345.000000)">
                <ellipse id="Oval" cx="16.1691294" cy="5.40363273" rx="1.22539022" ry="1.30333333"></ellipse>
                <path d="M10.8782518,16.4113688 C8.06240721,16.4113688 5.77245924,13.9757647 5.77245924,10.9808133 C5.77245924,7.9858619 8.06240721,5.55025773 10.8782518,5.55025773 C13.6940964,5.55025773 15.9840444,7.9858619 15.9840444,10.9808133 C15.9840444,13.9757647 13.6940964,16.4113688 10.8782518,16.4113688 Z M10.8782518,8.26553551 C9.47032952,8.26553551 8.32535553,9.48333759 8.32535553,10.9808133 C8.32535553,12.478289 9.47032952,13.6960911 10.8782518,13.6960911 C12.2861741,13.6960911 13.4311481,12.478289 13.4311481,10.9808133 C13.4311481,9.48333759 12.2861741,8.26553551 10.8782518,8.26553551 Z" id="Shape"></path>
                <path d="M15.9840444,21.8419244 L5.77245924,21.8419244 C3.14808186,21.8419244 0.666666667,19.2026744 0.666666667,16.4113688 L0.666666667,5.55025773 C0.666666667,2.75895218 3.14808186,0.119702176 5.77245924,0.119702176 L15.9840444,0.119702176 C18.6084218,0.119702176 21.089837,2.75895218 21.089837,5.55025773 L21.089837,16.4113688 C21.089837,19.2026744 18.6084218,21.8419244 15.9840444,21.8419244 Z M5.77245924,2.83497995 C4.57898023,2.83497995 3.21956296,4.28086537 3.21956296,5.55025773 L3.21956296,16.4113688 C3.21956296,17.7051987 4.55600416,19.1266466 5.77245924,19.1266466 L15.9840444,19.1266466 C17.1775234,19.1266466 18.5369407,17.6807612 18.5369407,16.4113688 L18.5369407,5.55025773 C18.5369407,4.28086537 17.1775234,2.83497995 15.9840444,2.83497995 L5.77245924,2.83497995 Z" id="Shape"></path>
            </g>
        </g>
    </g>
</svg>