<?xml version="1.0" encoding="UTF-8"?>
<svg width="21px" height="18px" viewBox="0 0 21 18" version="1.1" xmlns="http://www.w3.org/2000/svg" xmlns:xlink="http://www.w3.org/1999/xlink">
    <!-- Generator: Sketch 52.4 (67378) - http://www.bohemiancoding.com/sketch -->
    <title>youtube</title>
    <desc>Created with Sketch.</desc>
    <g id="Page-1" stroke="none" stroke-width="1" fill="none" fill-rule="evenodd">
        <g id="01-gta-frontpage" transform="translate(-1113.000000, -4347.000000)" fill="#FFFFFF" fill-rule="nonzero">
            <path d="M1133.66788,4351.55118 C1133.41259,4349.75165 1132.64672,4348.50581 1130.85969,4348.22896 C1128.05151,4347.67526 1123.71159,4347.67526 1123.71159,4347.67526 C1123.71159,4347.67526 1119.37166,4347.67526 1116.56348,4348.22896 C1114.77645,4348.50581 1113.88293,4349.75165 1113.75529,4351.55118 C1113.5,4353.35072 1113.5,4355.98081 1113.5,4355.98081 C1113.5,4355.98081 1113.5,4358.61091 1113.75529,4360.41044 C1114.01058,4362.20998 1114.77645,4363.45581 1116.56348,4363.73267 C1119.37166,4364.28637 1123.71159,4364.28637 1123.71159,4364.28637 C1123.71159,4364.28637 1128.05151,4364.28637 1130.85969,4363.73267 C1132.64672,4363.31739 1133.41259,4362.20998 1133.66788,4360.41044 C1133.92317,4358.61091 1133.92317,4355.98081 1133.92317,4355.98081 C1133.92317,4355.98081 1133.92317,4353.35072 1133.66788,4351.55118 Z M1121.15869,4360.13359 L1121.15869,4351.82804 L1127.54093,4355.98081 L1121.15869,4360.13359 Z" id="youtube"></path>
        </g>
    </g>
</svg>