<?xml version="1.0" encoding="UTF-8"?>
<svg width="140px" height="100px" viewBox="0 0 140 100" version="1.1" xmlns="http://www.w3.org/2000/svg" xmlns:xlink="http://www.w3.org/1999/xlink">
    <!-- Generator: Sketch 52.4 (67378) - http://www.bohemiancoding.com/sketch -->
    <title>gta-logo</title>
    <desc>Created with Sketch.</desc>
    <g id="Page-1" stroke="none" stroke-width="1" fill="none" fill-rule="evenodd">
        <g id="01-gta-frontpage" transform="translate(-650.000000, -25.000000)">
            <g id="gta-logo" transform="translate(650.000000, 25.000000)">
                <path d="M4.99001263,97.3255193 C6.24031579,97.3255193 7.3864,96.8523145 8.24594105,96.0635608 L8.24594105,97.20727 L9.19679158,97.20727 L9.19679158,92.461454 L8.24594105,92.461454 L8.24594105,94.5780119 C7.55566737,95.6559347 6.35753263,96.3658754 4.99001263,96.3658754 C2.84108632,96.3658754 1.12194526,94.6305935 1.12194526,92.461454 C1.12194526,90.3975371 2.84108632,88.6621958 4.99001263,88.6621958 C6.24031579,88.6621958 7.37337263,89.2537685 8.07667368,90.1608605 L9.14468211,90.1608605 C8.31110737,88.7148368 6.80040421,87.7025223 4.99001263,87.7025223 C2.32008,87.7025223 0.13216,89.8847774 0.13216,92.461454 C0.13216,95.1432641 2.32008,97.3255193 4.99001263,97.3255193 Z M13.3903958,97.20727 L14.3411579,97.20727 L14.3411579,88.7410979 L17.4799579,88.7410979 L17.4799579,87.8208902 L10.2386274,87.8208902 L10.2386274,88.7410979 L13.3903958,88.7410979 L13.3903958,97.20727 Z M16.9589516,97.20727 L17.9879074,97.20727 L19.6548505,93.4736795 L23.65328,93.4736795 L25.3201937,97.20727 L26.3491789,97.20727 L22.1684547,87.8208902 L21.1396463,87.8208902 L16.9589516,97.20727 Z M23.2494905,92.5534718 L20.05864,92.5534718 L21.6605642,88.9777151 L23.2494905,92.5534718 Z M31.2981937,97.20727 L32.2489558,97.20727 L32.2489558,87.8208902 L31.2981937,87.8208902 L31.2981937,97.20727 Z M40.5972,91.3308902 C39.7376589,91.3308902 39.0604126,91.7384273 38.6566232,92.4482493 C38.3571116,91.6595252 37.7320042,91.3308902 36.7291032,91.3308902 C36.0128632,91.3308902 35.4267789,91.6200593 35.0100505,92.1197033 L35.0100505,91.422908 L34.1374821,91.422908 L34.1374821,97.20727 L35.0100505,97.20727 L35.0100505,94.1967359 C35.0100505,92.790089 35.67424,92.1985163 36.7291032,92.1985163 C37.5757053,92.1985163 38.0055495,92.7638576 38.0055495,93.9075371 L38.0055495,97.20727 L38.8781179,97.20727 L38.8781179,94.1967359 C38.8781179,92.790089 39.5423074,92.1985163 40.5972,92.1985163 C41.4437726,92.1985163 41.8735579,92.7638576 41.8735579,93.9075371 L41.8735579,97.20727 L42.7461853,97.20727 L42.7461853,93.9075371 C42.7461853,92.0670623 42.0819074,91.3308902 40.5972,91.3308902 Z M47.0179832,97.3518398 C47.89064,97.3518398 48.6590189,96.9311276 49.1799368,96.2869733 L49.1799368,97.2335015 L50.0525053,97.2335015 L50.0525053,91.422908 L49.1799368,91.422908 L49.1799368,92.3694362 C48.6590189,91.7384273 47.89064,91.3308902 47.0179832,91.3308902 C45.3900632,91.3308902 44.0485389,92.6849555 44.0485389,94.3281899 C44.0485389,95.9452226 45.3900632,97.3518398 47.0179832,97.3518398 Z M46.9919284,96.4842136 C45.8327874,96.4842136 44.9602189,95.4718991 44.9602189,94.3281899 C44.9602189,93.1581899 45.8327874,92.1985163 46.9919284,92.1985163 C48.1249853,92.1985163 49.1278863,93.1581899 49.1278863,94.3281899 C49.1278863,95.4718991 48.1249853,96.4842136 46.9919284,96.4842136 Z M56.5905053,91.422908 L56.5905053,92.3037389 C56.0695874,91.6858457 55.3141474,91.2783086 54.4546358,91.2783086 C52.8266863,91.2783086 51.4851916,92.6849555 51.4851916,94.3019585 C51.4851916,95.9452226 52.8266863,97.2992878 54.4546358,97.2992878 C55.3141474,97.2992878 56.0695874,96.9048665 56.5905053,96.300178 L56.5905053,96.6813947 C56.5905053,98.4824332 55.6918821,99.1002374 54.5327411,99.1002374 C53.7383663,99.1002374 53.0740884,98.6270326 52.7224379,97.9697626 L51.7326526,97.9697626 C52.1364421,99.1397033 53.2433558,99.9679822 54.5327411,99.9679822 C56.1607495,99.9679822 57.5021853,98.9556677 57.5021853,96.6813947 L57.5021853,91.422908 L56.5905053,91.422908 Z M54.4285516,96.431632 C53.2694105,96.431632 52.3968421,95.4718991 52.3968421,94.3019585 C52.3968421,93.1581899 53.2694105,92.1459347 54.4285516,92.1459347 C55.5616379,92.1459347 56.5644505,93.1581899 56.5644505,94.3019585 C56.5644505,95.4718991 55.5616379,96.431632 54.4285516,96.431632 Z M64.7434863,94.3281899 C64.7434863,92.6849555 63.4019621,91.3308902 61.7740421,91.3308902 C60.1460337,91.3308902 58.8045979,92.6849555 58.8045979,94.3281899 C58.8045979,95.9452226 60.1460337,97.3518398 61.7740421,97.3518398 C62.9331832,97.3518398 63.96208,96.6813947 64.4439747,95.6822849 L63.3629389,95.6822849 C62.9982611,96.1555786 62.4382611,96.4842136 61.7740421,96.4842136 C60.7582021,96.4842136 59.9376842,95.6954006 59.7553011,94.735727 L64.7434863,94.735727 L64.7434863,94.3281899 Z M61.7740421,92.1985163 C62.7768547,92.1985163 63.5974021,92.9346884 63.7927242,93.8943323 L59.7553011,93.8943323 C59.9507116,92.9346884 60.7582021,92.1985163 61.7740421,92.1985163 Z M75.0844168,89.7402077 C74.8760379,88.5307122 73.8211747,87.6762018 72.5187621,87.6762018 C70.9168084,87.6762018 69.8488295,88.7674184 69.8488295,90.187181 C69.8488295,91.6069436 70.7864758,92.2642136 72.5187621,92.8032938 C73.9903537,93.2634125 74.5504716,93.7366172 74.5504716,94.604273 C74.5504716,95.6954006 73.6518189,96.3658754 72.5187621,96.3658754 C71.51592,96.3658754 70.6953137,95.7217211 70.5130189,94.8146291 L69.5232337,94.8146291 C69.7055284,96.2738576 70.9688589,97.3255193 72.5187621,97.3255193 C74.1987326,97.3255193 75.5402568,96.2475964 75.5402568,94.604273 C75.5402568,92.9610089 74.2508716,92.2774184 72.5187621,91.7252819 C71.3986442,91.3703264 70.8386147,91.0022552 70.8386147,90.187181 C70.8386147,89.3721068 71.5028926,88.6359347 72.5187621,88.6359347 C73.2220632,88.6359347 73.8471705,89.1222849 74.0424926,89.7402077 L75.0844168,89.7402077 Z M79.3562737,97.3518398 C80.9841937,97.3518398 82.3257179,95.9452226 82.3257179,94.3281899 C82.3257179,92.6849555 80.9841937,91.3308902 79.3562737,91.3308902 C77.7282653,91.3308902 76.3868295,92.6849555 76.3868295,94.3281899 C76.3868295,95.9452226 77.7282653,97.3518398 79.3562737,97.3518398 Z M79.3562737,92.1985163 C80.5153263,92.1985163 81.4140379,93.1581899 81.4140379,94.3281899 C81.4140379,95.4718991 80.5153263,96.4842136 79.3562737,96.4842136 C78.1971326,96.4842136 77.2985095,95.4718991 77.2985095,94.3281899 C77.2985095,93.1581899 78.1971326,92.1985163 79.3562737,92.1985163 Z M83.6280421,97.20727 L84.5006989,97.20727 L84.5006989,87.8208902 L83.6280421,87.8208902 L83.6280421,97.20727 Z M91.2209347,91.422908 L90.3483663,91.422908 L90.3483663,94.4991098 C90.3483663,95.7743027 89.6320379,96.431632 88.4728968,96.431632 C87.5221937,96.431632 87.0011874,95.8663205 87.0011874,94.7226113 L87.0011874,91.422908 L86.1286189,91.422908 L86.1286189,94.7226113 C86.1286189,96.5630267 86.83192,97.2992878 88.4728968,97.2992878 C89.2543032,97.2992878 89.8925263,97.01 90.3483663,96.5104748 L90.3483663,97.20727 L91.2209347,97.20727 L91.2209347,91.422908 Z M95.5449305,92.2248368 L95.5449305,91.422908 L94.2555453,91.422908 L94.2555453,89.148635 L93.3829768,89.148635 L93.3829768,91.422908 L92.5233474,91.422908 L92.5233474,92.2248368 L93.3829768,92.2248368 L93.3829768,97.20727 L94.2555453,97.20727 L94.2555453,92.2248368 L95.5449305,92.2248368 Z M97.2118737,90.2528783 C97.5375284,90.2528783 97.8240126,89.9768249 97.8240126,89.6218398 C97.8240126,89.3063501 97.5375284,89.0171513 97.2118737,89.0171513 C96.8603116,89.0171513 96.5867663,89.3063501 96.5867663,89.6218398 C96.5867663,89.9768249 96.8603116,90.2528783 97.2118737,90.2528783 Z M96.7691495,97.20727 L97.6808295,97.20727 L97.6808295,91.422908 L96.7691495,91.422908 L96.7691495,97.20727 Z M102.030792,97.3518398 C103.658712,97.3518398 105.000177,95.9452226 105.000177,94.3281899 C105.000177,92.6849555 103.658712,91.3308902 102.030792,91.3308902 C100.402783,91.3308902 99.0612884,92.6849555 99.0612884,94.3281899 C99.0612884,95.9452226 100.402783,97.3518398 102.030792,97.3518398 Z M102.030792,92.1985163 C103.189844,92.1985163 104.088497,93.1581899 104.088497,94.3281899 C104.088497,95.4718991 103.189844,96.4842136 102.030792,96.4842136 C100.871651,96.4842136 99.9729389,95.4718991 99.9729389,94.3281899 C99.9729389,93.1581899 100.871651,92.1985163 102.030792,92.1985163 Z M106.367667,97.20727 L107.240236,97.20727 L107.240236,94.1310386 C107.240236,92.8295549 107.956653,92.1721958 109.115705,92.1985163 C110.066467,92.1985163 110.587385,92.7638576 110.587385,93.9075371 L110.587385,97.20727 L111.460042,97.20727 L111.460042,93.9075371 C111.460042,92.0670623 110.756741,91.3308902 109.115705,91.3308902 C108.334299,91.3308902 107.696164,91.6200593 107.240236,92.1197033 L107.240236,91.422908 L106.367667,91.422908 L106.367667,97.20727 Z M116.943091,92.8426706 C116.851958,91.9618991 116.096518,91.3308902 114.963461,91.3308902 C113.661019,91.3308902 112.983861,92.0408012 112.983861,92.9215727 C112.983861,93.8417804 113.596029,94.3414243 114.963461,94.6174777 C116.005356,94.8277448 116.370063,95.0118101 116.370063,95.5639169 C116.370063,96.0897923 115.809945,96.4710089 114.963461,96.4710089 C114.221137,96.4710089 113.635053,96.0503561 113.556829,95.5639169 L112.762484,95.5639169 C112.814535,96.5762315 113.674046,97.2992878 114.963461,97.2992878 C116.396118,97.2992878 117.164497,96.5762315 117.164497,95.5639169 C117.164497,94.604273 116.578413,94.0916024 115.106733,93.7891988 C114.168998,93.6051632 113.791263,93.3554303 113.791263,92.9215727 C113.791263,92.4877745 114.273187,92.1591395 114.963461,92.1591395 C115.640678,92.1591395 116.070463,92.4482493 116.148657,92.8426706 L116.943091,92.8426706 Z M122.634518,97.20727 L123.58528,97.20727 L123.58528,87.8208902 L122.634518,87.8208902 L122.634518,97.20727 Z M125.538796,97.20727 L126.411364,97.20727 L126.411364,94.1310386 C126.411364,92.8295549 127.127781,92.1721958 128.286834,92.1985163 C129.237625,92.1985163 129.758543,92.7638576 129.758543,93.9075371 L129.758543,97.20727 L130.631171,97.20727 L130.631171,93.9075371 C130.631171,92.0670623 129.927869,91.3308902 128.286834,91.3308902 C127.505427,91.3308902 126.867293,91.6200593 126.411364,92.1197033 L126.411364,91.422908 L125.538796,91.422908 L125.538796,97.20727 Z M137.625011,93.3027596 C137.208194,92.1591395 136.114248,91.3308902 134.837891,91.3308902 C133.209882,91.3308902 131.868446,92.6849555 131.868446,94.3281899 C131.868446,95.9452226 133.209882,97.3518398 134.837891,97.3518398 C136.127276,97.3518398 137.234278,96.5236795 137.638067,95.3536499 L136.648194,95.3536499 C136.296543,96.0109199 135.632324,96.4842136 134.837891,96.4842136 C133.678838,96.4842136 132.780097,95.4718991 132.780097,94.3281899 C132.780097,93.1581899 133.678838,92.1985163 134.837891,92.1985163 C135.632324,92.1985163 136.296543,92.6454896 136.648194,93.3027596 L137.625011,93.3027596 Z M139.148771,97.2729674 C139.539503,97.2729674 139.865099,96.9443323 139.865099,96.5367953 C139.865099,96.1423739 139.539503,95.8137389 139.148771,95.8137389 C138.745069,95.8137389 138.419474,96.1423739 138.419474,96.5367953 C138.419474,96.9443323 138.745069,97.2729674 139.148771,97.2729674 Z" id="Fill-1" fill="#FFFFFF"></path>
                <path d="M64.7870189,74.1186944 C64.9622989,77.8621068 65.3868084,78.6432047 66.9968379,81.7494362 C62.3280589,76.9522552 57.9485642,68.602908 57.5954989,61.117092 C57.2486232,53.7633234 60.1862358,46.9844807 64.0116253,41.1817804 C68.8033979,33.912908 78.0328758,26.218724 81.1288211,19.2599703 C83.0023747,15.048368 80.8456674,11.8938576 79.8683495,9.16451039 C83.2972884,11.8239466 86.4867242,20.6701484 86.2813516,26.5181009 C85.6681221,43.981276 64.0577221,58.5645697 64.7870189,74.1186944" id="Fill-2" fill="#EB008B"></path>
                <path d="M69.6607579,81.6313353 C69.1162021,80.7340059 69.0307284,78.2081602 69.0009011,77.2307418 C68.8588674,72.5542433 69.2011747,68.9864688 71.4630442,64.8856677 C78.7192295,51.7307122 97.36944,50.9576261 102.32096,46.2086944 C104.74968,43.8794065 104.810101,42.958368 105.059389,38.7626706 C106.858581,42.4923739 105.253562,50.5486647 102.268232,54.5450742 C93.7938695,65.8893769 71.5457474,67.1267953 69.6607579,81.6313353" id="Fill-3" fill="#FFF100"></path>
                <path d="M36.0875495,43.9075074 C36.62008,31.7001187 42.5623874,15.0900297 39.7567874,6.87845697 C38.7746947,4.00403561 35.9249726,0.728872404 33.2222947,0.0323145401 C36.6204042,0.76925816 40.9506779,3.28753709 44.4819789,6.25602374 L44.06584,16.4481306 C42.5156126,16.6819585 42.4116884,18.5046291 44.0041811,18.9321662 L43.7984842,27.3990208 L43.3666947,28.2063501 L43.12,29.3035312 C42.3298695,30.0575371 42.1029811,30.2536795 41.9685516,31.2908012 L40.9815958,32.5121662 C41.0343242,36.4950445 40.4703747,36.3003858 43.7588716,38.1975074 L42.5750905,68.9474481 C42.3833642,68.6803858 42.1596,68.3631157 41.8962821,67.9842433 C37.0939579,61.0758754 35.7083411,52.5991988 36.0875495,43.9075074 Z M45.3071832,6.97083086 C46.8888884,8.38394659 48.26752,9.87175074 49.2670021,11.299822 C61.0441853,28.1271217 46.9644295,55.1015134 56.3306947,74.3217507 C58.8136168,79.4170326 61.4193853,80.8144214 65.8337768,83.4966469 C60.6063832,82.5805045 52.80632,78.4819585 47.9765263,74.4814837 L46.0544295,38.1872404 C49.0893642,36.6876558 48.7923579,36.3726409 48.8977853,32.657092 L47.9108589,31.4978338 C47.6741558,30.1871513 47.4888547,30.3449555 46.5126863,29.4276855 L46.3481937,28.2684273 L45.8547453,27.5231751 L45.73128,18.9529674 C47.4002863,18.2328487 46.8218063,16.9088131 45.6079621,16.501365 L45.3071832,6.97083086 Z" id="Fill-4" fill="#0094D9"></path>
                <path d="M72.8983832,83.4131454 C72.8266147,82.6749555 73.5274989,81.0432938 73.8007789,80.4129674 C75.1086442,77.3971217 76.3875958,75.2350445 79.0233389,73.3263501 C87.4785137,67.2030861 99.3448253,72.4624036 103.852059,70.9709792 C106.06288,70.2394362 106.375596,69.6726706 107.783983,67.0829674 C107.792749,70.0082196 104.38568,74.6333828 101.329848,76.2528487 C92.6552716,80.8495846 78.4056589,74.7761424 72.8983832,83.4131454" id="Fill-5" fill="#010202"></path>
            </g>
        </g>
    </g>
</svg>