<?xml version="1.0" encoding="UTF-8"?>
<svg width="86px" height="96px" viewBox="0 0 86 96" version="1.1" xmlns="http://www.w3.org/2000/svg" xmlns:xlink="http://www.w3.org/1999/xlink">
    <!-- Generator: Sketch 52.5 (67469) - http://www.bohemiancoding.com/sketch -->
    <title>footer-logo</title>
    <desc>Created with Sketch.</desc>
    <g id="Page-1" stroke="none" stroke-width="1" fill="none" fill-rule="evenodd">
        <g id="02-gta-about-us" transform="translate(-162.000000, -4296.000000)">
            <g id="Group-4" transform="translate(-360.000000, 3800.000000)">
                <g id="footer-logo" transform="translate(521.000000, 496.000000)">
                    <path d="M37.0401117,84.9515946 C37.2422387,89.2421296 37.7317688,90.1373898 39.5884007,93.6976159 C34.2045216,88.1992976 29.1542353,78.6296423 28.7470923,70.0497285 C28.3470868,61.6211618 31.734643,53.8515497 36.1459537,47.2007493 C41.671665,38.8694868 52.314789,30.0507508 55.8849291,22.0749327 C58.0454483,17.2477789 55.5584058,13.6322175 54.4313956,10.5039596 C58.3855329,13.5520886 62.0634831,23.6912169 61.8266543,30.3938834 C61.1194987,50.4094083 36.1991111,67.1241395 37.0401117,84.9515946" id="Fill-2" fill="#EB008B"></path>
                    <path d="M42.6603438,93.5622539 C42.0323803,92.5337743 41.933815,89.6387609 41.899419,88.5184868 C41.7356306,83.1584894 42.1303679,79.0692629 44.7386798,74.3691046 C53.106269,59.2914719 74.6130656,58.4053946 80.3229922,52.9623775 C83.1237105,50.29265 83.193386,49.236996 83.4808571,44.4280718 C85.5556244,48.702894 83.7047704,57.936661 80.2621875,62.5171702 C70.4898377,75.519512 44.8340504,76.9377867 42.6603438,93.5622539" id="Fill-3" fill="#FFF100"></path>
                    <path d="M3.94484718,50.324858 C4.55894351,36.3332848 11.4114128,17.2955297 8.17608912,7.8837855 C7.04357287,4.58924988 3.75736903,0.83540156 0.640731633,0.0370375076 C4.55931737,0.881689942 9.55284358,3.76803073 13.6250214,7.17037984 L13.1451439,18.8521254 C11.3574738,19.1201286 11.2376319,21.2091937 13.0740409,21.699218 L12.8368382,31.4035551 L12.3389131,32.3288806 L12.054433,33.5864213 C11.143281,34.4506298 10.8816409,34.6754397 10.7266213,35.864143 L9.58849706,37.264018 C9.6493017,41.8290183 8.99897411,41.605909 12.7911582,43.7803066 L11.4260617,79.024539 C11.2049693,78.7184439 10.946932,78.3548029 10.6432826,77.920556 C5.10540358,70.0024878 3.50755677,60.2868932 3.94484718,50.324858 Z M14.5766192,7.9896604 C16.4005886,9.60931162 17.9903802,11.3145674 19.1429494,12.95136 C32.7240016,32.2380724 16.4877,63.1549363 27.2885626,85.1843289 C30.151785,91.0243174 33.1566696,92.625943 38.2471977,95.7001922 C32.2191429,94.6501499 23.224372,89.9525764 17.6548161,85.3674077 L15.4383185,43.7685389 C18.9381034,42.0497809 18.5956056,41.6887247 18.7171809,37.4301256 L17.5790907,36.1014348 C17.3061325,34.599188 17.0924496,34.7800562 15.9667649,33.7287215 L15.7770775,32.4000307 L15.2080494,31.5458553 L15.0656734,21.7230594 C16.9903154,20.8976909 16.3232317,19.3801394 14.9234673,18.9131403 L14.5766192,7.9896604 Z" id="Fill-4" fill="#0094D9"></path>
                    <path d="M46.3938645,95.6044864 C46.3111036,94.7584055 47.1193397,92.8882665 47.434477,92.165814 C48.9426634,88.709184 50.4175074,86.2311061 53.4569579,84.0434444 C63.2071815,77.0252278 76.8910135,83.0532267 82.0886041,81.3438216 C84.6380487,80.5053591 84.998662,79.8557573 86.6227671,76.887553 C86.632876,80.2403488 82.7039579,85.5415078 79.1800756,87.3976685 C69.1768448,92.6662455 52.74467,85.7051327 46.3938645,95.6044864" id="Fill-5" fill="#010202"></path>
                </g>
            </g>
        </g>
    </g>
</svg>