<?xml version="1.0" encoding="UTF-8"?>
<svg width="140px" height="100px" viewBox="0 0 140 100" version="1.1" xmlns="http://www.w3.org/2000/svg" xmlns:xlink="http://www.w3.org/1999/xlink">
    <!-- Generator: Sketch 52.4 (67378) - http://www.bohemiancoding.com/sketch -->
    <title>gta-logo</title>
    <desc>Created with Sketch.</desc>
    <g id="Page-1" stroke="none" stroke-width="1" fill="none" fill-rule="evenodd">
        <g id="01-gta-frontpage" transform="translate(-650.000000, -25.000000)">
            <g id="gta-logo" transform="translate(650.000000, 25.000000)">
                <path d="M64.7870189,74.1186944 C64.9622989,77.8621068 65.3868084,78.6432047 66.9968379,81.7494362 C62.3280589,76.9522552 57.9485642,68.602908 57.5954989,61.117092 C57.2486232,53.7633234 60.1862358,46.9844807 64.0116253,41.1817804 C68.8033979,33.912908 78.0328758,26.218724 81.1288211,19.2599703 C83.0023747,15.048368 80.8456674,11.8938576 79.8683495,9.16451039 C83.2972884,11.8239466 86.4867242,20.6701484 86.2813516,26.5181009 C85.6681221,43.981276 64.0577221,58.5645697 64.7870189,74.1186944" id="Fill-2" fill="#EB008B"></path>
                <path d="M69.6607579,81.6313353 C69.1162021,80.7340059 69.0307284,78.2081602 69.0009011,77.2307418 C68.8588674,72.5542433 69.2011747,68.9864688 71.4630442,64.8856677 C78.7192295,51.7307122 97.36944,50.9576261 102.32096,46.2086944 C104.74968,43.8794065 104.810101,42.958368 105.059389,38.7626706 C106.858581,42.4923739 105.253562,50.5486647 102.268232,54.5450742 C93.7938695,65.8893769 71.5457474,67.1267953 69.6607579,81.6313353" id="Fill-3" fill="#FFF100"></path>
                <path d="M36.0875495,43.9075074 C36.62008,31.7001187 42.5623874,15.0900297 39.7567874,6.87845697 C38.7746947,4.00403561 35.9249726,0.728872404 33.2222947,0.0323145401 C36.6204042,0.76925816 40.9506779,3.28753709 44.4819789,6.25602374 L44.06584,16.4481306 C42.5156126,16.6819585 42.4116884,18.5046291 44.0041811,18.9321662 L43.7984842,27.3990208 L43.3666947,28.2063501 L43.12,29.3035312 C42.3298695,30.0575371 42.1029811,30.2536795 41.9685516,31.2908012 L40.9815958,32.5121662 C41.0343242,36.4950445 40.4703747,36.3003858 43.7588716,38.1975074 L42.5750905,68.9474481 C42.3833642,68.6803858 42.1596,68.3631157 41.8962821,67.9842433 C37.0939579,61.0758754 35.7083411,52.5991988 36.0875495,43.9075074 Z M45.3071832,6.97083086 C46.8888884,8.38394659 48.26752,9.87175074 49.2670021,11.299822 C61.0441853,28.1271217 46.9644295,55.1015134 56.3306947,74.3217507 C58.8136168,79.4170326 61.4193853,80.8144214 65.8337768,83.4966469 C60.6063832,82.5805045 52.80632,78.4819585 47.9765263,74.4814837 L46.0544295,38.1872404 C49.0893642,36.6876558 48.7923579,36.3726409 48.8977853,32.657092 L47.9108589,31.4978338 C47.6741558,30.1871513 47.4888547,30.3449555 46.5126863,29.4276855 L46.3481937,28.2684273 L45.8547453,27.5231751 L45.73128,18.9529674 C47.4002863,18.2328487 46.8218063,16.9088131 45.6079621,16.501365 L45.3071832,6.97083086 Z" id="Fill-4" fill="#0094D9"></path>
                <path d="M72.8983832,83.4131454 C72.8266147,82.6749555 73.5274989,81.0432938 73.8007789,80.4129674 C75.1086442,77.3971217 76.3875958,75.2350445 79.0233389,73.3263501 C87.4785137,67.2030861 99.3448253,72.4624036 103.852059,70.9709792 C106.06288,70.2394362 106.375596,69.6726706 107.783983,67.0829674 C107.792749,70.0082196 104.38568,74.6333828 101.329848,76.2528487 C92.6552716,80.8495846 78.4056589,74.7761424 72.8983832,83.4131454" id="Fill-5" fill="#010202"></path>
            </g>
        </g>
    </g>
</svg>