<?xml version="1.0" encoding="UTF-8"?>
<svg width="225px" height="135px" viewBox="0 0 225 135" version="1.1" xmlns="http://www.w3.org/2000/svg" xmlns:xlink="http://www.w3.org/1999/xlink">
    <!-- Generator: Sketch 52.6 (67491) - http://www.bohemiancoding.com/sketch -->
    <title>led-panels</title>
    <desc>Created with Sketch.</desc>
    <g id="Page-1" stroke="none" stroke-width="1" fill="none" fill-rule="evenodd">
        <g id="01-gta-frontpage" transform="translate(-280.000000, -2888.000000)">
            <g id="led-panels" transform="translate(268.000000, 2875.000000)">
                <path d="M14.1409764,96.6592459 C2.14609381,124.388705 58.3591654,175.347487 141.916152,145.330606 C225.473139,115.313725 172.574901,128.138979 224.848549,111.096313 C277.122197,94.0536479 199.840806,45.8183655 105.272407,30.2526949 C10.7040077,14.6870242 26.1358589,68.9297868 14.1409764,96.6592459 Z" id="Path-5" fill="#4A90E2" opacity="0.05" transform="translate(127.133365, 90.997825) rotate(15.000000) translate(-127.133365, -90.997825) "></path>
                <g id="noun_video-billboard_2036369" transform="translate(56.000000, 42.000000)">
                    <g id="Group">
                        <path d="M91.3020833,70.8854167 L91.3020833,11.875 L87.3697917,11.875 L87.3697917,5.20833333 L90.9765625,5.20833333 L89.2447917,0 C87.8515625,0 81.5494792,0 81.7838542,0 L80.0520833,5.20833333 L83.6588542,5.20833333 L83.6588542,11.875 L67.4739583,11.875 L67.4739583,5.20833333 L71.0807292,5.20833333 L69.3489583,0 C67.9557292,0 61.6536458,0 61.8880208,0 L60.15625,5.20833333 L63.7630208,5.20833333 L63.7630208,11.875 L47.5651042,11.875 L47.5651042,5.20833333 L51.171875,5.20833333 L49.4401042,0 C48.046875,0 41.7447917,0 41.9791667,0 L40.234375,5.20833333 L43.8411458,5.20833333 L43.8411458,11.875 L27.6692708,11.875 L27.6692708,5.20833333 L31.2760417,5.20833333 L29.5442708,0 C28.1510417,0 21.8489583,0 22.0833333,0 L20.3515625,5.20833333 L23.9583333,5.20833333 L23.9583333,11.875 L7.76041667,11.875 L7.76041667,5.20833333 L11.3671875,5.20833333 L9.63541667,0 C8.2421875,0 1.94010417,0 2.17447917,0 L0.4296875,5.20833333 L4.03645833,5.20833333 L4.03645833,11.875 L0.104166667,11.875 L0.104166667,70.8723958 L13.8541667,70.8723958 L13.8541667,96.3541667 L8.359375,96.3541667 L8.359375,100 C18.5416667,100 15.625,100 26.5755208,100 L26.5755208,96.3541667 L21.0807292,96.3541667 L21.0807292,70.8854167 L70.703125,70.8854167 L70.703125,96.3541667 L65.2083333,96.3541667 L65.2083333,100 C75.390625,100 72.4739583,100 83.4244792,100 L83.4244792,96.3541667 L77.9296875,96.3541667 L77.9296875,70.8854167 L91.3020833,70.8854167 Z" id="Shape" fill="#000000" fill-rule="nonzero"></path>
                        <polygon id="Path" fill="#FFFFFF" points="4.27083333 66.71875 4.27083333 16.0416667 87.1223958 16.0416667 87.1223958 66.7057292 4.27083333 66.7057292"></polygon>
                        <path d="M45.703125,54.4270833 C52.890625,54.4270833 58.7369792,48.5677083 58.7369792,41.4192708 C58.7369792,34.2057292 52.8776042,28.3463542 45.703125,28.3463542 C38.5286458,28.3463542 32.6692708,34.2057292 32.6692708,41.4192708 C32.6692708,48.5677083 38.5286458,54.4270833 45.703125,54.4270833 Z M42.6692708,36.0581159 C42.6692708,35.4492634 43.3624521,35.1319741 43.8416885,35.5092911 L50.0888773,40.5773452 C50.4226312,40.860333 50.4226312,41.392007 50.0888773,41.6835702 L43.8416885,46.7516243 C43.3624521,47.1460921 42.6692708,46.8030766 42.6692708,46.2027995 L42.6692708,36.0581159 Z" id="Shape" fill="#EB008B" fill-rule="nonzero"></path>
                        <path d="M8.45052083,62.5520833 L82.96875,62.5520833 L82.96875,20.2083333 L8.45052083,20.2083333 L8.45052083,62.5520833 Z M45.703125,25.4817708 C54.4791667,25.4817708 61.6015625,32.6302083 61.6015625,41.40625 C61.6015625,50.1302083 54.4791667,57.2786458 45.703125,57.2786458 C36.953125,57.2786458 29.8046875,50.1302083 29.8046875,41.40625 C29.8046875,32.6302083 36.9661458,25.4817708 45.703125,25.4817708 Z" id="Shape" fill="#BED7F4" fill-rule="nonzero"></path>
                    </g>
                </g>
                <g id="Group-25" transform="translate(191.000000, 86.000000) scale(-1, 1) translate(-191.000000, -86.000000) translate(172.000000, 64.000000)">
                    <g id="Group-24" transform="translate(25.591038, 6.947496) rotate(-315.000000) translate(-25.591038, -6.947496) translate(20.625129, 2.034874)" fill="#EB008B">
                        <path d="M1.78189773,9.4593165 C1.33975909,9.4593165 0.897793182,9.29245825 0.560456818,8.95891262 C-0.114043182,8.29143689 -0.114043182,7.20972039 0.560456818,6.54224466 L6.66722955,0.500959223 C7.34194545,-0.16608932 8.43539545,-0.16608932 9.11011136,0.500959223 C9.78461136,1.16843495 9.78461136,2.25015146 9.11011136,2.91762718 L3.00333864,8.95891262 C2.66595909,9.29245825 2.22403636,9.4593165 1.78189773,9.4593165 Z" id="Path"></path>
                        <path d="M7.88871364,9.45871845 C7.446575,9.45871845 7.00460909,9.29186019 6.66727273,8.95831456 L0.560456818,2.91681553 C-0.114043182,2.24933981 -0.114043182,1.16740971 0.560456818,0.500147573 C1.23560455,-0.166900971 2.32905455,-0.166473786 3.00333864,0.500147573 L9.11015455,6.5416466 C9.78465455,7.20912233 9.78465455,8.29105243 9.11015455,8.95831456 C8.772775,9.29181748 8.33063636,9.45871845 7.88871364,9.45871845 Z" id="Path"></path>
                    </g>
                    <path d="M6.04545455,32.038835 C2.71194773,32.038835 3.55271368e-15,29.3559883 3.55271368e-15,26.0582524 C3.55271368e-15,22.7605165 2.71194773,20.0776699 6.04545455,20.0776699 C9.37896136,20.0776699 12.0909091,22.7605165 12.0909091,26.0582524 C12.0909091,29.3559883 9.37896136,32.038835 6.04545455,32.038835 Z M6.04545455,23.4951456 C4.61674091,23.4951456 3.45454545,24.6448699 3.45454545,26.0582524 C3.45454545,27.471635 4.61674091,28.6213592 6.04545455,28.6213592 C7.47416818,28.6213592 8.63636364,27.471635 8.63636364,26.0582524 C8.63636364,24.6448699 7.47416818,23.4951456 6.04545455,23.4951456 Z" id="Shape" fill="#0094D9" fill-rule="nonzero"></path>
                    <path d="M31.2262841,43.8403291 C30.7841455,43.8403291 30.3421795,43.6734709 30.0048432,43.3397117 L25.1194682,38.5067602 C24.7956045,38.1863718 24.6136364,37.7516689 24.6136364,37.2986398 C24.6136364,36.8456107 24.7956045,36.4109078 25.1196841,36.0903058 L30.0050591,31.257568 C30.6793432,30.5905194 31.773225,30.5905194 32.4475091,31.257568 L37.3331,36.0903058 C37.6571795,36.4109078 37.8391477,36.8456107 37.8391477,37.2986398 C37.8391477,37.7516689 37.6571795,38.1863718 37.3331,38.5067602 L32.4475091,43.3397117 C32.1103886,43.6734709 31.66825,43.8403291 31.2262841,43.8403291 Z M28.7836182,37.2986825 L31.2262841,39.7149233 L33.66895,37.2986825 L31.2262841,34.8824417 L28.7836182,37.2986825 Z" id="Shape" fill="#FFF100" fill-rule="nonzero"></path>
                </g>
            </g>
        </g>
    </g>
</svg>