<?xml version="1.0" encoding="UTF-8"?>
<svg width="219px" height="134px" viewBox="0 0 219 134" version="1.1" xmlns="http://www.w3.org/2000/svg" xmlns:xlink="http://www.w3.org/1999/xlink">
    <!-- Generator: Sketch 52.6 (67491) - http://www.bohemiancoding.com/sketch -->
    <title>reception-sign</title>
    <desc>Created with Sketch.</desc>
    <g id="Page-1" stroke="none" stroke-width="1" fill="none" fill-rule="evenodd">
        <g id="01-gta-frontpage" transform="translate(-1024.000000, -3135.000000)">
            <g id="reception-sign" transform="translate(1002.000000, 3107.000000)">
                <g id="sandvich">
                    <g id="Group-42">
                        <path d="M24.9307139,126.372323 C45.6908572,171.733818 128.384515,182.833621 200.210093,152.302062 C272.03567,121.770502 178.301722,96.617095 223.236145,79.2822107 C268.170568,61.9473264 167.769026,6.79627785 95.2748917,51.6782098 C22.7807577,96.5601418 4.17057053,81.0108285 24.9307139,126.372323 Z" id="Path-5" fill="#4A90E2" opacity="0.05" transform="translate(125.686922, 101.977759) scale(-1, 1) rotate(201.000000) translate(-125.686922, -101.977759) "></path>
                        <g id="Group-25" transform="translate(186.000000, 102.000000) scale(-1, -1) translate(-186.000000, -102.000000) translate(167.000000, 80.000000)">
                            <g id="Group-24" transform="translate(25.591038, 6.947496) rotate(-315.000000) translate(-25.591038, -6.947496) translate(20.625129, 2.034874)" fill="#EB008B">
                                <path d="M1.78189773,9.4593165 C1.33975909,9.4593165 0.897793182,9.29245825 0.560456818,8.95891262 C-0.114043182,8.29143689 -0.114043182,7.20972039 0.560456818,6.54224466 L6.66722955,0.500959223 C7.34194545,-0.16608932 8.43539545,-0.16608932 9.11011136,0.500959223 C9.78461136,1.16843495 9.78461136,2.25015146 9.11011136,2.91762718 L3.00333864,8.95891262 C2.66595909,9.29245825 2.22403636,9.4593165 1.78189773,9.4593165 Z" id="Path"></path>
                                <path d="M7.88871364,9.45871845 C7.446575,9.45871845 7.00460909,9.29186019 6.66727273,8.95831456 L0.560456818,2.91681553 C-0.114043182,2.24933981 -0.114043182,1.16740971 0.560456818,0.500147573 C1.23560455,-0.166900971 2.32905455,-0.166473786 3.00333864,0.500147573 L9.11015455,6.5416466 C9.78465455,7.20912233 9.78465455,8.29105243 9.11015455,8.95831456 C8.772775,9.29181748 8.33063636,9.45871845 7.88871364,9.45871845 Z" id="Path"></path>
                            </g>
                            <path d="M6.04545455,32.038835 C2.71194773,32.038835 3.55271368e-15,29.3559883 3.55271368e-15,26.0582524 C3.55271368e-15,22.7605165 2.71194773,20.0776699 6.04545455,20.0776699 C9.37896136,20.0776699 12.0909091,22.7605165 12.0909091,26.0582524 C12.0909091,29.3559883 9.37896136,32.038835 6.04545455,32.038835 Z M6.04545455,23.4951456 C4.61674091,23.4951456 3.45454545,24.6448699 3.45454545,26.0582524 C3.45454545,27.471635 4.61674091,28.6213592 6.04545455,28.6213592 C7.47416818,28.6213592 8.63636364,27.471635 8.63636364,26.0582524 C8.63636364,24.6448699 7.47416818,23.4951456 6.04545455,23.4951456 Z" id="Shape" fill="#0094D9" fill-rule="nonzero"></path>
                            <path d="M31.2262841,43.8403291 C30.7841455,43.8403291 30.3421795,43.6734709 30.0048432,43.3397117 L25.1194682,38.5067602 C24.7956045,38.1863718 24.6136364,37.7516689 24.6136364,37.2986398 C24.6136364,36.8456107 24.7956045,36.4109078 25.1196841,36.0903058 L30.0050591,31.257568 C30.6793432,30.5905194 31.773225,30.5905194 32.4475091,31.257568 L37.3331,36.0903058 C37.6571795,36.4109078 37.8391477,36.8456107 37.8391477,37.2986398 C37.8391477,37.7516689 37.6571795,38.1863718 37.3331,38.5067602 L32.4475091,43.3397117 C32.1103886,43.6734709 31.66825,43.8403291 31.2262841,43.8403291 Z M28.7836182,37.2986825 L31.2262841,39.7149233 L33.66895,37.2986825 L31.2262841,34.8824417 L28.7836182,37.2986825 Z" id="Shape" fill="#FFF100" fill-rule="nonzero"></path>
                        </g>
                    </g>
                </g>
                <path d="M54.9046308,68.3207264 C53.5122665,68.4519526 52.4501354,69.6239594 52.4561659,71.0224808 L52.4561659,122.355814 C52.4563149,123.84789 53.6658443,125.057419 55.1579203,125.057569 L144.315815,125.057569 C145.807891,125.057419 147.01742,123.84789 147.017569,122.355814 L147.017569,71.0224808 C147.01742,69.5304048 145.807891,68.3208754 144.315815,68.3207264 L55.1579203,68.3207264 C55.0735369,68.316767 54.9890142,68.316767 54.9046308,68.3207264 Z" id="Shape" fill="#BED7F4" fill-rule="nonzero"></path>
                <polygon id="Path" fill="#FFFFFF" points="57.8596747 73.7242352 141.614061 73.7242352 141.614061 119.65406 57.8596747 119.65406"></polygon>
                <path d="M92.0115387,85.839915 C89.2883648,85.8096554 86.7115287,86.85824 84.3284247,88.246165 C81.6048779,89.832365 79.0739068,91.9835694 76.8563852,94.1140378 C72.4213419,98.3747045 69.1732712,102.72588 69.1732712,102.72588 C68.5999684,103.510132 68.4886628,104.540684 68.8812901,105.429263 C69.2739174,106.317841 70.1108146,106.92942 71.0766712,107.03358 C72.0425277,107.137739 72.9905738,106.718652 73.563622,105.934213 C73.563622,105.934213 76.5279383,101.882257 80.5712975,97.9978097 C82.5929771,96.0555185 84.8803364,94.1840133 87.0301791,92.9320203 C89.1800218,91.6798922 91.1572426,91.1119159 92.5181177,91.2856387 C93.3883163,91.3964106 93.8313999,91.7830317 94.5444334,92.8898054 C95.257467,93.996579 95.9195859,95.7464378 96.6129641,97.6600904 C97.3063424,99.573608 98.0485278,101.654837 99.2725036,103.527963 C100.496479,105.40109 102.53496,107.163782 105.224806,107.45395 C107.343309,107.682383 109.260286,106.699688 110.50167,105.554279 C111.743055,104.40887 112.574374,103.09987 113.372284,101.923797 C114.170195,100.747723 114.921662,99.6800571 115.525245,99.0953975 C115.933217,98.700401 116.105371,98.7340378 116.327328,98.6732483 C116.443706,98.8526448 116.533234,98.9170141 116.707262,99.2220422 C117.009605,99.7519913 117.384118,100.440398 118.05814,101.163928 C118.732161,101.887458 120.016291,102.691973 121.435333,102.64145 C123.221538,102.577959 124.552975,101.705833 125.614609,100.783994 C126.676243,99.8622904 127.520524,98.7698361 128.231933,97.7445203 C129.654752,95.6941589 130.553754,93.7341036 130.553754,93.7341036 C131.056794,92.8453746 131.015806,91.7489696 130.447814,90.9002802 C129.879821,90.0515908 128.88188,89.5956346 127.868483,89.721793 C126.855086,89.8479513 125.999396,90.5346671 125.656824,91.4967133 C125.656824,91.4967133 124.899499,93.1196571 123.799368,94.7050466 C123.249303,95.4978764 122.603802,96.2244457 122.068556,96.6891475 C121.807048,96.9162299 121.797681,96.8650317 121.646407,96.9424369 C121.551373,96.7927597 121.515656,96.7772922 121.393118,96.5625027 C121.097648,96.0447115 120.767498,95.3843352 120.12667,94.6628317 C119.485843,93.9413282 118.333543,93.107972 116.918337,93.058665 C116.904266,93.0585551 116.890193,93.0585551 116.876122,93.058665 C114.750977,92.9843668 112.978006,94.0400097 111.768118,95.2116255 C110.558229,96.3833764 109.687497,97.7198668 108.897504,98.8843229 C108.107511,100.048779 107.393611,101.022829 106.828973,101.543862 C106.264335,102.064761 106.122922,102.087996 105.7736,102.050441 C104.900558,101.95588 104.496579,101.654972 103.789499,100.572919 C103.082419,99.4908668 102.41312,97.7127747 101.720969,95.8026343 C101.028817,93.8923589 100.316922,91.8178843 99.103644,89.9347615 C97.8903658,88.0516387 95.8767563,86.2669273 93.1935563,85.9243448 C92.7990028,85.8739909 92.400563,85.8442378 92.0115387,85.839915 Z" id="Path" fill="#EB008B"></path>
                <path d="M64.909565,58.8645861 L45.7017799,58.8645861 C45.6173965,58.8606266 45.5328739,58.8606266 45.4484905,58.8645861 C44.0561262,58.9958123 42.9939951,60.167819 43.0000256,61.5663404 L43.0000256,131.811954 C43.0001746,133.30403 44.2097039,134.51356 45.7017799,134.513709 L51.5696527,134.513709 C52.5439979,134.527482 53.4502818,134.015564 53.9414736,133.173977 C54.4326654,132.33239 54.4326654,131.291519 53.9414736,130.449932 C53.4502818,129.608345 52.5439979,129.096427 51.5696527,129.1102 L48.4035343,129.1102 L48.4035343,64.2680948 L151.070201,64.2680948 L151.070201,129.1102 L61.9545212,129.1102 C60.9801761,129.096427 60.0738921,129.608345 59.5827003,130.449932 C59.0915085,131.291519 59.0915085,132.33239 59.5827003,133.173977 C60.0738921,134.015564 60.9801761,134.527482 61.9545212,134.513709 L153.771955,134.513709 C155.264031,134.51356 156.473561,133.30403 156.47371,131.811954 L156.47371,61.5663404 C156.473561,60.0742644 155.264031,58.8647351 153.771955,58.8645861 L134.56417,58.8645861 L64.909565,58.8645861 Z" id="Path" fill="#000000"></path>
            </g>
        </g>
    </g>
</svg>