<?xml version="1.0" encoding="UTF-8"?>
<svg width="219px" height="134px" viewBox="0 0 219 134" version="1.1" xmlns="http://www.w3.org/2000/svg" xmlns:xlink="http://www.w3.org/1999/xlink">
    <!-- Generator: Sketch 52.4 (67378) - http://www.bohemiancoding.com/sketch -->
    <title>sandvich</title>
    <desc>Created with Sketch.</desc>
    <g id="Page-1" stroke="none" stroke-width="1" fill="none" fill-rule="evenodd">
        <g id="01-gta-frontpage" transform="translate(-788.000000, -1886.000000)">
            <g id="sandvich" transform="translate(766.000000, 1858.000000)">
                <g id="Group-42">
                    <path d="M24.9307139,126.372323 C45.6908572,171.733818 128.384515,182.833621 200.210093,152.302062 C272.03567,121.770502 178.301722,96.617095 223.236145,79.2822107 C268.170568,61.9473264 167.769026,6.79627785 95.2748917,51.6782098 C22.7807577,96.5601418 4.17057053,81.0108285 24.9307139,126.372323 Z" id="Path-5" fill="#4A90E2" opacity="0.05" transform="translate(125.686922, 101.977759) scale(-1, 1) rotate(201.000000) translate(-125.686922, -101.977759) "></path>
                    <g id="noun_menu_1938790" transform="translate(56.000000, 36.000000)">
                        <path d="M77.9677419,1.28322581 C77.9221242,1.06664841 77.8263318,0.86379396 77.6880645,0.690967742 C77.6880645,0.690967742 77.6880645,0.690967742 77.6880645,0.690967742 C77.6880645,0.690967742 77.6880645,0.690967742 77.6058065,0.690967742 C77.4848296,0.574001678 77.3525719,0.469297681 77.2109677,0.378387097 L77.0464516,0.296129032 C76.8324735,0.140666557 76.5841671,0.0390866581 76.3225806,4.59056621e-15 L23.6774194,4.59056621e-15 C22.8882473,-0.0175598678 22.1978299,0.527869909 22.0322581,1.29967742 L5.58064516,78.6222581 L0.64516129,96.7190323 C0.510281583,97.2136451 0.613692223,97.7428643 0.92483871,98.1503226 C1.26616803,98.5418914 1.77237911,98.7492549 2.29032258,98.7096774 L8.87096774,98.7096774 C9.63575192,98.7358742 10.3176171,98.231294 10.516129,97.4922581 L15.0567742,80.6129032 L49.49,80.6129032 L45.0645161,96.6367742 C44.9296364,97.131387 45.0330471,97.6606062 45.3441935,98.0680645 C45.6686806,98.4903362 46.1774975,98.7294189 46.7096774,98.7096774 L53.2903226,98.7096774 C54.0551068,98.7358742 54.7369719,98.231294 54.9354839,97.4922581 L59.476129,80.6129032 L85.7987097,80.6129032 L89.483871,97.41 C89.6494428,98.1818075 90.3398602,98.7272373 91.1290323,98.7096774 L97.7096774,98.7096774 C98.2166232,98.722136 98.7009868,98.5001127 99.0224509,98.1079264 C99.3439151,97.7157402 99.4665535,97.197221 99.3548387,96.7025806 L77.9677419,1.28322581 Z M65.9416129,53.2209677 L72.4235484,55.8203226 C72.8144254,55.9759949 73.2500907,55.9759949 73.6409677,55.8203226 L79.8267742,53.3525806 L83.66,70.7419355 L61.8451613,70.7419355 L65.9416129,53.2209677 Z M73.0322581,52.5135484 L66.6983871,49.98 L73.0322581,22.7032258 L79.0535484,50.0951613 L73.0322581,52.5135484 Z M60.2658065,77.3225806 L61.0390323,74.0322581 L84.383871,74.0322581 L85.1077419,77.3225806 L60.2658065,77.3225806 Z M92.4451613,95.4193548 L74.8254839,15.2835484 L76.3225806,9.01548387 L95.6532258,95.4193548 L92.4451613,95.4193548 Z" id="Shape" fill="#000000" fill-rule="nonzero"></path>
                        <polygon id="Path" fill="#FFFFFF" points="51.9741935 70.7419355 17.4258065 70.7419355 29.9619355 9.87096774 66.023871 9.87096774"></polygon>
                        <polygon id="Path" fill="#0094D9" fill-rule="nonzero" points="25.01 3.29032258 74.2496774 3.29032258 71.4693548 15.1519355 71.4693548 15.1519355 71.4693548 15.2506452 56.926129 77.3225806 9.21645161 77.3225806"></polygon>
                        <path d="M69.38,7.20580645 C69.0696446,6.81304488 68.5973507,6.58295295 68.0967742,6.58064516 L28.6129032,6.58064516 C27.8186839,6.56462836 27.1264566,7.11841019 26.9677419,7.89677419 L13.8064516,72.0580645 C13.7110942,72.5420023 13.8379011,73.0431917 14.1519355,73.4235484 C14.4691602,73.8146798 14.9480554,74.0389725 15.4516129,74.0322581 L53.2903226,74.0322581 C54.074505,74.0514236 54.7631464,73.5142833 54.9354839,72.7490323 L69.7419355,8.58774194 C69.8380147,8.09601608 69.7047813,7.58730692 69.38,7.20580645 Z" id="Path" fill="#FFFFFF" fill-rule="nonzero"></path>
                        <rect id="Rectangle" fill="#EB008B" x="36.8387097" y="14.8064516" width="18.0967742" height="3.29032258"></rect>
                        <rect id="Rectangle" fill="#0493D8" x="30.2580645" y="24.6774194" width="14.8064516" height="3.29032258"></rect>
                        <rect id="Rectangle" fill="#EB008B" x="53.2903226" y="24.6774194" width="4.93548387" height="3.29032258"></rect>
                        <rect id="Rectangle" fill="#0493D8" x="28.6129032" y="32.9032258" width="9.87096774" height="3.29032258"></rect>
                        <rect id="Rectangle" fill="#EB008B" x="51.6451613" y="32.9032258" width="4.93548387" height="3.29032258"></rect>
                        <rect id="Rectangle" fill="#0493D8" x="26.9677419" y="41.1290323" width="14.8064516" height="3.29032258"></rect>
                        <rect id="Rectangle" fill="#EB008B" x="48.3548387" y="41.1290323" width="4.93548387" height="3.29032258"></rect>
                        <rect id="Rectangle" fill="#0493D8" x="25.3225806" y="49.3548387" width="11.516129" height="3.29032258"></rect>
                        <rect id="Rectangle" fill="#EB008B" x="46.7096774" y="49.3548387" width="4.93548387" height="3.29032258"></rect>
                        <rect id="Rectangle" fill="#0493D8" x="23.6774194" y="57.5806452" width="14.8064516" height="3.29032258"></rect>
                        <rect id="Rectangle" fill="#EB008B" x="45.0645161" y="57.5806452" width="4.93548387" height="3.29032258"></rect>
                    </g>
                    <g id="Group-25" transform="translate(186.000000, 102.000000) scale(-1, -1) translate(-186.000000, -102.000000) translate(167.000000, 80.000000)">
                        <g id="Group-24" transform="translate(25.591038, 6.947496) rotate(-315.000000) translate(-25.591038, -6.947496) translate(20.625129, 2.034874)" fill="#EB008B">
                            <path d="M1.78189773,9.4593165 C1.33975909,9.4593165 0.897793182,9.29245825 0.560456818,8.95891262 C-0.114043182,8.29143689 -0.114043182,7.20972039 0.560456818,6.54224466 L6.66722955,0.500959223 C7.34194545,-0.16608932 8.43539545,-0.16608932 9.11011136,0.500959223 C9.78461136,1.16843495 9.78461136,2.25015146 9.11011136,2.91762718 L3.00333864,8.95891262 C2.66595909,9.29245825 2.22403636,9.4593165 1.78189773,9.4593165 Z" id="Path"></path>
                            <path d="M7.88871364,9.45871845 C7.446575,9.45871845 7.00460909,9.29186019 6.66727273,8.95831456 L0.560456818,2.91681553 C-0.114043182,2.24933981 -0.114043182,1.16740971 0.560456818,0.500147573 C1.23560455,-0.166900971 2.32905455,-0.166473786 3.00333864,0.500147573 L9.11015455,6.5416466 C9.78465455,7.20912233 9.78465455,8.29105243 9.11015455,8.95831456 C8.772775,9.29181748 8.33063636,9.45871845 7.88871364,9.45871845 Z" id="Path"></path>
                        </g>
                        <path d="M6.04545455,32.038835 C2.71194773,32.038835 3.55271368e-15,29.3559883 3.55271368e-15,26.0582524 C3.55271368e-15,22.7605165 2.71194773,20.0776699 6.04545455,20.0776699 C9.37896136,20.0776699 12.0909091,22.7605165 12.0909091,26.0582524 C12.0909091,29.3559883 9.37896136,32.038835 6.04545455,32.038835 Z M6.04545455,23.4951456 C4.61674091,23.4951456 3.45454545,24.6448699 3.45454545,26.0582524 C3.45454545,27.471635 4.61674091,28.6213592 6.04545455,28.6213592 C7.47416818,28.6213592 8.63636364,27.471635 8.63636364,26.0582524 C8.63636364,24.6448699 7.47416818,23.4951456 6.04545455,23.4951456 Z" id="Shape" fill="#0094D9" fill-rule="nonzero"></path>
                        <path d="M31.2262841,43.8403291 C30.7841455,43.8403291 30.3421795,43.6734709 30.0048432,43.3397117 L25.1194682,38.5067602 C24.7956045,38.1863718 24.6136364,37.7516689 24.6136364,37.2986398 C24.6136364,36.8456107 24.7956045,36.4109078 25.1196841,36.0903058 L30.0050591,31.257568 C30.6793432,30.5905194 31.773225,30.5905194 32.4475091,31.257568 L37.3331,36.0903058 C37.6571795,36.4109078 37.8391477,36.8456107 37.8391477,37.2986398 C37.8391477,37.7516689 37.6571795,38.1863718 37.3331,38.5067602 L32.4475091,43.3397117 C32.1103886,43.6734709 31.66825,43.8403291 31.2262841,43.8403291 Z M28.7836182,37.2986825 L31.2262841,39.7149233 L33.66895,37.2986825 L31.2262841,34.8824417 L28.7836182,37.2986825 Z" id="Shape" fill="#FFF100" fill-rule="nonzero"></path>
                    </g>
                </g>
            </g>
        </g>
    </g>
</svg>