<?xml version="1.0" encoding="UTF-8"?>
<svg width="237px" height="135px" viewBox="0 0 237 135" version="1.1" xmlns="http://www.w3.org/2000/svg" xmlns:xlink="http://www.w3.org/1999/xlink">
    <!-- Generator: Sketch 52.6 (67491) - http://www.bohemiancoding.com/sketch -->
    <title>sign-boxes</title>
    <desc>Created with Sketch.</desc>
    <g id="Page-1" stroke="none" stroke-width="1" fill="none" fill-rule="evenodd">
        <g id="01-gta-frontpage" transform="translate(-285.000000, -2386.000000)">
            <g id="sign-boxes" transform="translate(268.000000, 2373.000000)">
                <g id="Group-41">
                    <path d="M14.1409764,96.6592459 C2.14609381,124.388705 58.3591654,175.347487 141.916152,145.330606 C225.473139,115.313725 172.574901,128.138979 224.848549,111.096313 C277.122197,94.0536479 199.840806,45.8183655 105.272407,30.2526949 C10.7040077,14.6870242 26.1358589,68.9297868 14.1409764,96.6592459 Z" id="Path-5" fill="#4A90E2" opacity="0.05" transform="translate(127.133365, 90.997825) scale(-1, 1) rotate(15.000000) translate(-127.133365, -90.997825) "></path>
                    <g id="noun_Box_1230273" transform="translate(125.000000, 81.500000) scale(-1, 1) rotate(90.000000) translate(-125.000000, -81.500000) translate(92.500000, 19.500000)">
                        <g id="Group" transform="translate(0.000000, 0.000000)">
                            <g id="Group-34">
                                <polygon id="Rectangle" fill="#FFFFFF" transform="translate(37.493873, 54.794629) scale(-1, 1) rotate(89.925581) translate(-37.493873, -54.794629) " points="-17.2222222 28.4166667 92.2099684 28.4647437 92.2099684 81.1725904 -17.2222222 81.1245134"></polygon>
                                <polygon id="Path" fill="#000000" points="3.46389584e-14 20.9030987 0.234866278 124 10.2166831 109.353739 10.3341162 -3.09359503e-13"></polygon>
                                <polygon id="Path" fill="#EB008B" points="11.0387151 110.88037 1.76149708 124 55.6633078 123.530267 64.1184938 110.997803"></polygon>
                                <g id="Group-31" transform="translate(37.305556, 55.916667) rotate(-90.000000) translate(-37.305556, -55.916667) translate(2.805556, 38.416667)">
                                    <path d="M0,0 L0,34.4444444 L68.8888889,34.4444444 L68.8888889,0 L0,0 Z M2.64957265,2.64957265 L66.2393162,2.64957265 L66.2393162,30.4700855 L51.6666667,5.43162393 L39.8760684,23.8461538 L30.4700855,11.1282051 L13.9102564,31.7948718 L2.64957265,31.7948718 L2.64957265,2.64957265 Z" id="Shape" fill="#0094D9" fill-rule="nonzero"></path>
                                    <path d="M18.5470085,11.9230769 C18.5470085,8.21367521 15.6324786,5.2991453 11.9230769,5.2991453 C8.21367521,5.2991453 5.2991453,8.21367521 5.2991453,11.9230769 C5.2991453,15.6324786 8.21367521,18.5470085 11.9230769,18.5470085 C15.6324786,18.5470085 18.5470085,15.6324786 18.5470085,11.9230769 Z" id="Shape" fill="#0094D9" fill-rule="nonzero"></path>
                                    <polygon id="Path" fill="#BED7F4" points="42.3931624 31.7948718 17.3547009 31.7948718 30.4700855 15.3675214"></polygon>
                                    <polygon id="Path" fill="#BED7F4" points="41.5982906 26.0982906 51.6666667 10.465812 63.9871795 31.7948718 45.7051282 31.7948718"></polygon>
                                    <path d="M7.94871795,11.9230769 C7.94871795,9.67094017 9.67094017,7.94871795 11.9230769,7.94871795 C14.1752137,7.94871795 15.8974359,9.67094017 15.8974359,11.9230769 C15.8974359,14.1752137 14.1752137,15.8974359 11.9230769,15.8974359 C9.67094017,15.8974359 7.94871795,14.1752137 7.94871795,11.9230769 Z" id="Path" fill="#FFFFFF"></path>
                                </g>
                            </g>
                        </g>
                    </g>
                    <g id="Group-25" transform="translate(216.000000, 81.000000)">
                        <g id="Group-24" transform="translate(25.591038, 6.947496) rotate(-315.000000) translate(-25.591038, -6.947496) translate(20.625129, 2.034874)" fill="#EB008B">
                            <path d="M1.78189773,9.4593165 C1.33975909,9.4593165 0.897793182,9.29245825 0.560456818,8.95891262 C-0.114043182,8.29143689 -0.114043182,7.20972039 0.560456818,6.54224466 L6.66722955,0.500959223 C7.34194545,-0.16608932 8.43539545,-0.16608932 9.11011136,0.500959223 C9.78461136,1.16843495 9.78461136,2.25015146 9.11011136,2.91762718 L3.00333864,8.95891262 C2.66595909,9.29245825 2.22403636,9.4593165 1.78189773,9.4593165 Z" id="Path"></path>
                            <path d="M7.88871364,9.45871845 C7.446575,9.45871845 7.00460909,9.29186019 6.66727273,8.95831456 L0.560456818,2.91681553 C-0.114043182,2.24933981 -0.114043182,1.16740971 0.560456818,0.500147573 C1.23560455,-0.166900971 2.32905455,-0.166473786 3.00333864,0.500147573 L9.11015455,6.5416466 C9.78465455,7.20912233 9.78465455,8.29105243 9.11015455,8.95831456 C8.772775,9.29181748 8.33063636,9.45871845 7.88871364,9.45871845 Z" id="Path"></path>
                        </g>
                        <path d="M6.04545455,32.038835 C2.71194773,32.038835 3.55271368e-15,29.3559883 3.55271368e-15,26.0582524 C3.55271368e-15,22.7605165 2.71194773,20.0776699 6.04545455,20.0776699 C9.37896136,20.0776699 12.0909091,22.7605165 12.0909091,26.0582524 C12.0909091,29.3559883 9.37896136,32.038835 6.04545455,32.038835 Z M6.04545455,23.4951456 C4.61674091,23.4951456 3.45454545,24.6448699 3.45454545,26.0582524 C3.45454545,27.471635 4.61674091,28.6213592 6.04545455,28.6213592 C7.47416818,28.6213592 8.63636364,27.471635 8.63636364,26.0582524 C8.63636364,24.6448699 7.47416818,23.4951456 6.04545455,23.4951456 Z" id="Shape" fill="#0094D9" fill-rule="nonzero"></path>
                        <path d="M31.2262841,43.8403291 C30.7841455,43.8403291 30.3421795,43.6734709 30.0048432,43.3397117 L25.1194682,38.5067602 C24.7956045,38.1863718 24.6136364,37.7516689 24.6136364,37.2986398 C24.6136364,36.8456107 24.7956045,36.4109078 25.1196841,36.0903058 L30.0050591,31.257568 C30.6793432,30.5905194 31.773225,30.5905194 32.4475091,31.257568 L37.3331,36.0903058 C37.6571795,36.4109078 37.8391477,36.8456107 37.8391477,37.2986398 C37.8391477,37.7516689 37.6571795,38.1863718 37.3331,38.5067602 L32.4475091,43.3397117 C32.1103886,43.6734709 31.66825,43.8403291 31.2262841,43.8403291 Z M28.7836182,37.2986825 L31.2262841,39.7149233 L33.66895,37.2986825 L31.2262841,34.8824417 L28.7836182,37.2986825 Z" id="Shape" fill="#FFF100" fill-rule="nonzero"></path>
                    </g>
                </g>
            </g>
        </g>
    </g>
</svg>