<?xml version="1.0" encoding="UTF-8"?>
<svg width="115px" height="74px" viewBox="0 0 115 74" version="1.1" xmlns="http://www.w3.org/2000/svg" xmlns:xlink="http://www.w3.org/1999/xlink">
    <!-- Generator: Sketch 52.6 (67491) - http://www.bohemiancoding.com/sketch -->
    <title>care</title>
    <desc>Created with Sketch.</desc>
    <g id="Page-1" stroke="none" stroke-width="1" fill="none" fill-rule="evenodd">
        <g id="02-gta-about-us" transform="translate(-779.000000, -2082.000000)">
            <g id="care" transform="translate(779.000000, 2082.000000)">
                <path d="M20.5178598,11.7430912 C20.0328373,11.7428683 19.5521315,11.8342024 19.1009893,12.0122966 C18.5873354,8.86675285 15.8697723,6.55696203 12.6825657,6.55696203 C9.49535907,6.55696203 6.777796,8.86675285 6.26414211,12.0122966 C5.81299988,11.8342024 5.33229405,11.7428683 4.84727157,11.7430912 C2.68752742,11.7430912 0.936708861,13.4939098 0.936708861,15.6536539 C0.936708861,17.8133981 2.68752742,19.5642166 4.84727157,19.5642166 L20.4328476,19.5642166 C22.5925917,19.5642166 24.3434101,17.813398 24.3434101,15.6536539 C24.3434101,13.4939099 22.5925917,11.7430913 20.4328476,11.7430912 L20.5178598,11.7430912 Z" id="Path" fill="#FFFFFF"></path>
                <path d="M109.429235,57.4681718 C108.944276,57.4686231 108.463694,57.5599336 108.012364,57.7373772 C107.432089,54.6735919 104.754699,52.4556962 101.636447,52.4556962 C98.5181939,52.4556962 95.8408039,54.6735919 95.2605291,57.7373772 C93.7953309,57.1636645 92.1289908,57.5240133 91.0317568,58.6518562 C89.9345229,59.7796992 89.6201473,61.455321 90.2339469,62.9041834 C90.8477465,64.3530457 92.2701468,65.2928956 93.8436585,65.2892973 L109.429235,65.2892973 C111.588979,65.2892971 113.339797,63.5384786 113.339797,61.3787345 C113.339797,59.2189905 111.588979,57.468172 109.429235,57.4681718 Z" id="Path" fill="#FFFFFF"></path>
                <path d="M66.5661525,68.8740772 C66.5661525,70.673864 65.1071371,72.1328795 63.3073503,72.1328795 L58.4191469,72.1328795 C56.6193601,72.1328795 55.1603446,70.673864 55.1603446,68.8740772 L55.1603446,61.5488565 L66.495309,61.5488565 L66.5661525,68.8740772 Z" id="Path" fill="#EB008B"></path>
                <path d="M65.5676154,62.4855654 L56.0970535,62.4855654 L56.0970535,68.8740772 C56.0970535,70.156534 57.1366901,71.1961706 58.4191469,71.1961706 L63.3073503,71.1961706 C64.5884223,71.1961706 65.6271982,70.158778 65.62944,68.8782307 L65.5676154,62.4855654 Z M67.5028176,68.8650186 L67.5028614,68.8740772 C67.5028614,71.191194 65.6244671,73.0695883 63.3073503,73.0695883 L58.4191469,73.0695883 C56.1020301,73.0695883 54.2236358,71.191194 54.2236358,68.8740772 L54.2236358,61.5488565 C54.2236358,61.0315265 54.6430146,60.6121476 55.1603446,60.6121476 L66.495309,60.6121476 C67.0091049,60.6121476 67.4270053,61.026026 67.4319741,61.5397978 L67.5028176,68.8650186 Z" id="Path" fill="#000000" fill-rule="nonzero"></path>
                <path d="M52.7233273,62.4855654 C52.2059973,62.4855654 51.7866184,62.0661865 51.7866184,61.5488565 C51.7866184,61.0315265 52.2059973,60.6121476 52.7233273,60.6121476 L69.0173386,60.6121476 C69.5346686,60.6121476 69.9540474,61.0315265 69.9540474,61.5488565 C69.9540474,62.0661865 69.5346686,62.4855654 69.0173386,62.4855654 L52.7233273,62.4855654 Z" id="Path" fill="#000000" fill-rule="nonzero"></path>
                <path d="M67.4556715,61.8424198 C67.3289908,62.226272 66.9703684,62.4855654 66.5661525,62.4855654 L55.1603446,62.4855654 C54.7561288,62.4855654 54.3975064,62.226272 54.2708256,61.8424198 L52.3863878,56.1324315 C52.1863819,55.5263984 52.637723,54.9021593 53.2759068,54.9021593 L68.4505904,54.9021593 C69.0887741,54.9021593 69.5401153,55.5263984 69.3401094,56.1324315 L67.4556715,61.8424198 Z M67.155051,56.7755771 L54.5714462,56.7755771 L55.8376097,60.6121476 L65.8888875,60.6121476 L67.155051,56.7755771 Z" id="Path" fill="#000000" fill-rule="nonzero"></path>
                <path d="M86.2889905,26.5096479 C86.2889905,36.8386342 75.9316668,49.4629507 68.4505904,55.8388682 L65.531837,55.8388682 C70.150835,49.4629507 76.5125838,36.8386342 76.5125838,26.5096479 C76.5125838,10.824891 70.5617275,1.68607595 61.7204553,1.11932773 C76.3708967,1.41687055 86.2889905,10.6406978 86.2889905,26.5096479 Z" id="Path" fill="#FFFFFF"></path>
                <path d="M76.5125838,26.5096479 C76.5125838,36.8386342 70.150835,49.4629507 65.531837,55.8388682 L62.6272524,55.8388682 C65.1143105,46.2518271 66.4929708,36.4110451 66.736177,26.5096479 C66.736177,10.3148176 64.3416658,1.09099032 60.8703329,1.09099032 C61.1535243,1.07659657 61.4372639,1.07659657 61.7204553,1.09099032 C70.5617275,1.68607595 76.5125838,10.824891 76.5125838,26.5096479 Z" id="Path" fill="#4FC7FF"></path>
                <path d="M66.736177,26.5096479 C66.4929708,36.4110451 65.1143105,46.2518271 62.6272524,55.8388682 L59.0992448,55.8388682 C56.6121867,46.2518271 55.2335264,36.4110451 54.9903202,26.5096479 C54.9903202,10.3148176 57.3848314,1.09099032 60.8703329,1.09099032 C64.3558345,1.09099032 66.736177,10.3148176 66.736177,26.5096479 Z" id="Path" fill="#FFFFFF"></path>
                <path d="M60.0060419,1.11932773 C60.2939526,1.10467333 60.5824223,1.10467333 60.8703329,1.11932773 C57.3848314,1.11932773 54.9903202,10.343155 54.9903202,26.5379853 C55.2335264,36.4393825 56.6121867,46.2801645 59.0992448,55.8672056 L56.1946601,55.8672056 C51.5756622,49.4912882 45.2139134,36.8669716 45.2139134,26.5379853 C45.2139134,10.824891 51.1647697,1.68607595 60.0060419,1.11932773 Z" id="Path" fill="#4FC7FF"></path>
                <path d="M56.1946601,55.8388682 L53.2759068,55.8388682 C45.7948303,49.4629507 35.4375066,36.8386342 35.4375066,26.5096479 C35.4375066,10.6406978 45.3556005,1.44520796 60.0060419,1.11932773 C51.1647697,1.68607595 45.2139134,10.824891 45.2139134,26.5096479 C45.2139134,36.8386342 51.5756622,49.4629507 56.1946601,55.8388682 Z" id="Path" fill="#FFFFFF"></path>
                <path d="M59.9870218,0.182811995 C61.2087143,0.158000057 61.285406,1.97594863 60.0659644,2.05411797 C51.583913,2.59783921 46.1506223,11.64219 46.1506223,26.5096479 C46.1506223,35.2276848 51.1085714,47.2215469 56.9532296,55.2893267 C57.4018959,55.9086514 56.9594245,56.7755771 56.1946601,56.7755771 L53.2759068,56.7755771 C53.0532106,56.7755771 52.8377994,56.6962357 52.6683087,56.5517833 C42.8060285,48.1464309 34.5007978,35.7887484 34.5007978,26.5096479 C34.5007978,10.4927596 44.4585503,0.498187141 59.9870218,0.182811995 Z M36.3742155,26.5096479 C36.3742155,35.0228097 44.2528287,46.8239393 53.6224352,54.9021593 L54.397585,54.9021593 C48.8081821,46.6144704 44.2772046,35.1544183 44.2772046,26.5096479 C44.2772046,15.5129117 47.2024396,7.33209275 52.2683179,3.19050773 C42.3313013,6.09576068 36.3742155,14.4047019 36.3742155,26.5096479 Z" id="Path" fill="#000000" fill-rule="nonzero"></path>
                <path d="M61.6605328,2.05411797 C60.4410912,1.97594863 60.5177829,0.158000057 61.7394754,0.182811995 C77.2679469,0.498187141 87.2256994,10.4927596 87.2256994,26.5096479 C87.2256994,35.7887484 78.9204686,48.1464309 69.0581885,56.5517833 C68.8886977,56.6962357 68.6732866,56.7755771 68.4505904,56.7755771 L65.531837,56.7755771 C64.7670727,56.7755771 64.3246012,55.9086514 64.7732675,55.2893267 C70.6179258,47.2215469 75.5758749,35.2276848 75.5758749,26.5096479 C75.5758749,11.64219 70.1425842,2.59783921 61.6605328,2.05411797 Z M77.4492926,26.5096479 C77.4492926,35.1544183 72.9183151,46.6144704 67.3289122,54.9021593 L68.104062,54.9021593 C77.4736685,46.8239393 85.3522817,35.0228097 85.3522817,26.5096479 C85.3522817,14.4047019 79.3951958,6.09576068 69.4581793,3.19050773 C74.5240576,7.33209275 77.4492926,15.5129117 77.4492926,26.5096479 Z" id="Path" fill="#000000" fill-rule="nonzero"></path>
                <path d="M44.2772046,26.5096479 C44.2772046,10.7968861 50.2518234,0.809158013 59.8875823,0.155492483 C60.2072165,0.13922338 60.5274713,0.13922338 60.8471054,0.155492483 C62.0631158,0.21738636 62.0170739,2.02769918 60.7994894,2.02769918 C58.085243,2.02769918 55.8561855,11.3599691 55.8559031,26.4866466 C56.0973496,36.3164019 57.4660345,46.0859805 59.9350974,55.6036542 C60.0889803,56.1968378 59.6412199,56.7755771 59.0284012,56.7755771 L56.1946601,56.7755771 C55.894361,56.7755771 55.612268,56.6315992 55.4360906,56.3884097 C49.3804152,48.0293485 44.2772046,35.6840815 44.2772046,26.5096479 Z M46.1506223,26.5096479 C46.1506223,35.089286 50.952406,46.8415675 56.6755645,54.9021593 L57.8234796,54.9021593 C55.5062861,45.6164254 54.2181054,36.101736 53.9827678,26.5096479 C53.9827678,14.7218551 55.2006797,6.28776531 57.5299075,2.45885145 C50.5288944,4.49572847 46.1506223,13.1681593 46.1506223,26.5096479 Z" id="Path" fill="#000000" fill-rule="nonzero"></path>
                <path d="M61.7680039,0.183826468 L61.7803777,0.184537493 C71.4626871,0.805198352 77.4492926,10.778785 77.4492926,26.5379853 C77.4492926,35.7124189 72.3460819,48.0576859 66.2904065,56.4167471 C66.1142292,56.6599366 65.8321362,56.8039145 65.531837,56.8039145 L62.6272524,56.8039145 C62.0144338,56.8039145 61.5666734,56.2251752 61.7205563,55.6319917 C64.1896191,46.114318 65.5583041,36.3447393 65.7994681,26.5379853 C65.7994681,11.3977804 63.5719685,2.05603659 60.8703329,2.05603659 C59.6527046,2.05603659 59.6067257,0.245635012 60.8227843,0.183826468 C61.1376543,0.167822587 61.4531339,0.167822587 61.7680039,0.183826468 Z M67.6726034,26.5609866 C67.4375368,36.1310024 66.1493672,45.6447993 63.8321744,54.9304968 L65.0509326,54.9304968 C70.7740912,46.8699049 75.5758749,35.1176234 75.5758749,26.5379853 C75.5758749,13.141793 71.1808329,4.47434443 64.1219431,2.47261215 C66.4526044,6.29691842 67.6728062,14.7453483 67.6726034,26.5609866 Z" id="Path" fill="#000000" fill-rule="nonzero"></path>
                <path d="M63.5339486,56.0740822 C63.4267915,56.4871481 63.0539914,56.7755771 62.6272524,56.7755771 L59.0992448,56.7755771 C58.6725058,56.7755771 58.2997057,56.4871481 58.1925486,56.0740822 C55.6874954,46.4176737 54.2988597,36.5056883 54.0536113,26.5096479 C54.0536113,10.0927173 56.4315193,0.154281459 60.8703329,0.154281459 C65.3064914,0.154281459 67.6728859,10.078526 67.6726034,26.5326492 C67.4276375,36.5056883 66.0390018,46.4176737 63.5339486,56.0740822 Z M65.7994681,26.5096479 C65.7994681,11.369443 63.5719685,2.02769918 60.8703329,2.02769918 C58.164729,2.02769918 55.927029,11.3801374 55.9267466,26.4866466 C56.162265,36.0750588 57.4703488,45.6062131 59.8260678,54.9021593 L61.9004296,54.9021593 C64.2561482,45.6062268 65.5642252,36.0756234 65.7994681,26.5096479 Z" id="Path" fill="#000000" fill-rule="nonzero"></path>
                <path d="M20.8998459,11.2343868 C20.9143444,11.2342618 20.9288464,11.2342026 20.9433515,11.2342092 C23.5810073,11.2805379 25.7051801,13.4329457 25.7051801,16.0814807 C25.7051801,18.7585548 23.5349829,20.9287521 20.8579087,20.9287523 L5.27233273,20.9287523 C2.59525857,20.9287523 0.425061164,18.7585549 0.425061164,16.0814807 C0.425061164,13.4044065 2.59525857,11.2342091 5.27190224,11.2342092 C5.51592005,11.2340971 5.75905888,11.2526281 5.99923805,11.289407 C6.94885159,8.21163816 9.80828398,6.04807992 13.1076268,6.04807992 C16.4069697,6.04807992 19.2664021,8.21163816 20.2160156,11.289407 C20.4281491,11.2569228 20.6425913,11.2386736 20.8579088,11.2349319 C20.8719017,11.2342091 20.8858809,11.2342684 20.8998459,11.2343868 Z M19.8699982,13.3114003 L18.7889015,13.7381771 L18.6015861,12.5910845 C18.1619153,9.89860254 15.8357708,7.92149764 13.1076268,7.92149764 C10.3794829,7.92149764 8.05333839,9.89860254 7.61366758,12.5910845 L7.42635224,13.7381771 L6.34525551,13.3114003 C6.0037659,13.1765929 5.6398983,13.107458 5.27233273,13.1076268 C3.6299186,13.1076268 2.29847889,14.4390666 2.29847889,16.0814807 C2.29847889,17.7238948 3.6299186,19.0553345 5.27233273,19.0553345 L20.8579087,19.0553345 C22.5003228,19.0553345 23.8317624,17.7238948 23.8317624,16.0814807 C23.8317624,14.4530963 22.5229722,13.1303962 20.899929,13.1079177 C20.5472566,13.1129013 20.1982868,13.1818041 19.8699982,13.3114003 Z" id="Path" fill="#000000" fill-rule="nonzero"></path>
                <path d="M20.8579088,11.2349319 L20.8579087,12.170918 L20.8579087,13.1076268 L20.942921,13.1076268 L20.942921,12.170918 L20.9433511,11.234947 C20.9288648,11.2346966 20.914363,11.2345098 20.8998459,11.2343868 C20.8858634,11.2345073 20.8718843,11.2346891 20.8579088,11.2349319 Z M20.8998459,11.2343868 C20.9143444,11.2342618 20.9288464,11.2342026 20.9433515,11.2342092 C23.5810072,11.2805378 25.7051801,13.4329457 25.7051801,16.0814807 C25.7051801,18.7585548 23.5349829,20.9287521 20.8579087,20.9287523 L5.27233273,20.9287523 C2.59525857,20.9287523 0.425061164,18.7585549 0.425061164,16.0814807 C0.425061164,13.4044065 2.59525857,11.2342091 5.27190224,11.2342092 C5.51592005,11.2340971 5.75905888,11.2526281 5.99923805,11.289407 C6.94885159,8.21163816 9.80828398,6.04807992 13.1076268,6.04807992 C16.4069697,6.04807992 19.2664021,8.21163816 20.2160156,11.289407 C20.4281491,11.2569228 20.6425913,11.2386736 20.8579088,11.2349319 C20.8719017,11.2342091 20.8858809,11.2342684 20.8998459,11.2343868 Z M19.8699982,13.3114003 C19.3142263,13.5307984 18.6978815,13.1807837 18.6015861,12.5910845 C18.1619153,9.89860254 15.8357708,7.92149764 13.1076268,7.92149764 C10.3794829,7.92149764 8.05333839,9.89860254 7.61366758,12.5910845 C7.51737221,13.1807837 6.90102743,13.5307984 6.34525551,13.3114003 C6.0037659,13.1765929 5.6398983,13.107458 5.27233273,13.1076268 C3.6299186,13.1076268 2.29847889,14.4390666 2.29847889,16.0814807 C2.29847889,17.7238948 3.6299186,19.0553345 5.27233273,19.0553345 L20.8579087,19.0553345 C22.5003228,19.0553345 23.8317624,17.7238948 23.8317624,16.0814807 C23.8317624,14.4530963 22.5229722,13.1303962 20.899929,13.1079177 C20.5472566,13.1129013 20.1982868,13.1818041 19.8699982,13.3114003 Z" id="Path" fill="#000000" fill-rule="nonzero"></path>
                <path d="M109.751495,56.8574411 C112.429441,56.8574409 114.599638,59.0276382 114.599638,61.7047123 C114.599638,64.3817863 112.429441,66.5519837 109.752367,66.5519838 L94.1689328,66.5519814 C92.2185131,66.5564416 90.4554009,65.3914667 89.694576,63.595554 C88.9337512,61.7996413 89.3234301,59.7226527 90.6834878,58.3246541 C91.7963846,57.1807115 93.3816122,56.6737524 94.916075,56.9168972 C95.9143388,53.9234635 98.7303818,51.8449651 101.959579,51.8449651 C105.18868,51.8449651 108.004652,53.9233405 109.002994,56.9166316 C109.250053,56.8775471 109.500301,56.8576749 109.751495,56.8574411 Z M108.678232,58.9351092 L107.625624,59.3489496 L107.415149,58.2376669 C106.918635,55.616131 104.62772,53.7183828 101.959579,53.7183828 C99.2914378,53.7183828 97.0005221,55.616131 96.5040084,58.2376669 L96.29383,59.3473854 L95.242132,58.9355827 C94.1278971,58.4992931 92.8607005,58.7733265 92.0262903,59.6310138 C91.1918801,60.4887011 90.9528078,61.7629562 91.4195821,62.8647682 C91.8863565,63.9665802 92.968045,64.6813049 94.1667908,64.6785661 L109.752367,64.6785661 C111.394781,64.678566 112.72622,63.3471263 112.72622,61.7047123 C112.72622,60.0624435 111.395016,58.7310941 109.752803,58.7308585 C109.385003,58.7312551 109.02053,58.8005325 108.678232,58.9351092 Z" id="Path" fill="#000000" fill-rule="nonzero"></path>
                <path d="M109.751495,56.8574411 C112.429441,56.8574409 114.599638,59.0276382 114.599638,61.7047123 C114.599638,64.3817863 112.429441,66.5519837 109.752367,66.5519838 L94.1689328,66.5519814 C92.2185131,66.5564416 90.4554009,65.3914667 89.694576,63.595554 C88.9337512,61.7996413 89.3234301,59.7226527 90.6834878,58.3246541 C91.7963846,57.1807115 93.3816122,56.6737524 94.916075,56.9168972 C95.9143388,53.9234635 98.7303818,51.8449651 101.959579,51.8449651 C105.18868,51.8449651 108.004652,53.9233405 109.002994,56.9166316 C109.250053,56.8775471 109.500301,56.8576749 109.751495,56.8574411 Z M108.678232,58.9351092 C108.131662,59.1499973 107.524439,58.8147044 107.415149,58.2376669 C106.918635,55.616131 104.62772,53.7183828 101.959579,53.7183828 C99.2914378,53.7183828 97.0005221,55.616131 96.5040084,58.2376669 C96.3948169,58.814186 95.7885084,59.1495217 95.242132,58.9355827 C94.1278971,58.4992931 92.8607005,58.7733265 92.0262903,59.6310138 C91.1918801,60.4887011 90.9528078,61.7629562 91.4195821,62.8647682 C91.8863565,63.9665802 92.968045,64.6813049 94.1667908,64.6785661 L109.752367,64.6785661 C111.394781,64.678566 112.72622,63.3471263 112.72622,61.7047123 C112.72622,60.0624435 111.395016,58.7310941 109.752803,58.7308585 C109.385003,58.7312551 109.02053,58.8005325 108.678232,58.9351092 Z" id="Path" fill="#000000" fill-rule="nonzero"></path>
            </g>
        </g>
    </g>
</svg>