<?xml version="1.0" encoding="UTF-8"?>
<svg width="74px" height="78px" viewBox="0 0 74 78" version="1.1" xmlns="http://www.w3.org/2000/svg" xmlns:xlink="http://www.w3.org/1999/xlink">
    <!-- Generator: Sketch 52.6 (67491) - http://www.bohemiancoding.com/sketch -->
    <title>experience</title>
    <desc>Created with Sketch.</desc>
    <g id="Page-1" stroke="none" stroke-width="1" fill="none" fill-rule="evenodd">
        <g id="02-gta-about-us" transform="translate(-220.000000, -1840.000000)">
            <g id="experience" transform="translate(257.148148, 1879.000000) scale(-1, -1) translate(-257.148148, -1879.000000) translate(220.148148, 1840.000000)">
                <path d="M50.3373938,22.4548336 C44.2668973,22.4548336 41.4064539,18.2595166 30.5526605,18.2595166 L12.1663662,18.2595166 C10.6030056,18.163344 9.11543821,18.9427849 8.30466635,20.2829321 C7.49389448,21.6230792 7.49389448,23.3024794 8.30466635,24.6426265 C9.11543821,25.9827736 10.6030056,26.7622145 12.1663662,26.6660419 L10.0528163,26.6660419 C7.83163968,26.8026811 6.10017846,28.643929 6.10017846,30.8693045 C6.10017846,33.09468 7.83163968,34.9359279 10.0528163,35.0725671 L7.95515786,35.0725671 C5.73398121,35.2092063 4.00251999,37.0504543 4.00251999,39.2758297 C4.00251999,41.5012052 5.73398121,43.3424531 7.95515786,43.4790923 L5.85749939,43.4790923 C4.29413887,43.3829197 2.80657144,44.1623606 1.99579958,45.5025078 C1.18502772,46.8426549 1.18502772,48.5220551 1.99579958,49.8622022 C2.80657144,51.2023493 4.29413887,51.9817902 5.85749939,51.8856176 L27.3902814,51.8856176 C26.6116052,59.7359455 25.5786673,76.5807787 32.157687,76.5807787 C34.7906525,76.5807787 36.9250926,74.4463385 36.9250926,71.813373 L36.9250926,70.2242378 C36.9250926,58.6712249 41.9467599,46.577906 51.6404846,46.577906 L51.6404846,22.4548336 L50.3373938,22.4548336 Z" id="Path" fill="#FFFFFF"></path>
                <path d="M31.6014897,50.9226546 C32.1333195,50.9226546 32.5644527,51.3537878 32.5644527,51.8856176 C32.5644527,52.4174473 32.1333195,52.8485805 31.6014897,52.8485805 L27.3902814,52.8485805 C26.8584517,52.8485805 26.4273185,52.4174473 26.4273185,51.8856176 C26.4273185,51.3537878 26.8584517,50.9226546 27.3902814,50.9226546 L31.6014897,50.9226546 Z" id="Path" fill="#000000" fill-rule="nonzero"></path>
                <path d="M10.2131743,27.6272775 L10.1119428,27.6271879 C8.39867518,27.7325823 7.06314142,29.1527982 7.06314142,30.8693045 C7.06314142,32.5858108 8.39867518,34.0060267 10.1119428,34.1114211 C11.3546954,34.187871 11.2979182,36.0355301 10.0528163,36.0355301 L8.0142843,36.0337132 C6.30101671,36.1391076 4.96548295,37.5593234 4.96548295,39.2758297 C4.96548295,40.992336 6.30101671,42.4125519 8.0142843,42.5179463 C9.25703689,42.5943962 9.2002597,44.4420553 7.95515786,44.4420553 L5.79837296,44.4402384 C4.59250088,44.3660572 3.44509053,44.967266 2.81971517,46.0009662 C2.19433981,47.0346663 2.19433981,48.3300436 2.81971517,49.3637438 C3.44509053,50.3974439 4.59250088,50.9986527 5.85749939,50.9226546 L27.3902814,50.9226546 C27.9596834,50.9226546 28.4047452,51.4140463 28.3485419,51.9806677 C27.7890308,57.6214526 27.5888925,62.8077725 27.9739432,67.0908479 C28.4722946,72.6342119 29.9031534,75.6178157 32.157687,75.6178157 C34.2588227,75.6178157 35.9621297,73.9145087 35.9621297,71.813373 L35.9621297,70.2242378 C35.9621297,57.1698928 41.6794798,46.3727899 50.6775217,45.6531381 L50.6775217,23.4177965 L50.3373938,23.4177965 C48.6458739,23.4177965 47.1279194,23.1272627 45.3421625,22.5325751 C44.8401118,22.3653836 44.3346381,22.1817726 43.6419553,21.9190411 C43.4472772,21.8452006 42.7138388,21.5650105 42.7833162,21.5915058 C42.4342562,21.4583913 42.1683458,21.3580237 41.9041888,21.2601466 C38.1416922,19.8660426 35.0502335,19.2224796 30.5526605,19.2224796 L12.1072397,19.2206627 C10.9013676,19.1464815 9.7539573,19.7476903 9.12858193,20.7813905 C8.50320657,21.8150906 8.50320657,23.1104679 9.12858193,24.1441681 C9.67949674,25.0547903 10.6355346,25.6297794 11.6797757,25.7030789 L12.3380987,25.7030789 C12.8699285,25.7030789 13.3010617,26.1342121 13.3010617,26.6660419 C13.3010617,27.1978716 12.8699285,27.6290048 12.3380987,27.6290048 L10.2404402,27.6290048 C10.2311907,27.6290048 10.2221021,27.6284223 10.2131743,27.6272775 Z M7.48075076,25.1410849 C6.4845824,23.4944908 6.4845824,21.4310677 7.48075076,19.7844737 C8.47691912,18.1378796 10.3046436,17.1802065 12.1663662,17.2965537 L30.5526605,17.2965537 C35.2992194,17.2965537 38.6105625,17.985891 42.5733382,19.4542037 C42.8441815,19.5545583 43.1153014,19.6568922 43.4695637,19.7919906 C43.4021534,19.7662836 44.1328154,20.045413 44.3249698,20.1182963 C44.9951033,20.372475 45.4784852,20.5480612 45.9506737,20.7053081 C47.5540042,21.2392446 48.8739017,21.4918706 50.3373938,21.4918706 L51.6404846,21.4918706 C52.1723144,21.4918706 52.6034476,21.9230038 52.6034476,22.4548336 L52.6034476,46.577906 C52.6034476,47.1097358 52.1723144,47.540869 51.6404846,47.540869 C43.4609761,47.540869 37.8880556,57.6322524 37.8880556,70.2242378 L37.8880556,71.813373 C37.8880556,74.9781682 35.3224822,77.5437416 32.157687,77.5437416 C28.4662664,77.5437416 26.6370716,73.7295339 26.0557532,67.2632942 C25.6819254,63.1050565 25.8386355,58.1909532 26.3307829,52.8484909 L5.91662583,52.8467636 C3.99577687,52.9649277 2.16805236,52.0072546 1.17188399,50.3606606 C0.175715632,48.7140665 0.175715632,46.6506434 1.17188399,45.0040494 C1.88649217,43.8228539 3.02901983,42.9961777 4.30504646,42.6661811 C3.51514159,41.7558996 3.03955702,40.5686193 3.03955702,39.2758297 C3.03955702,37.0331343 4.4707978,35.107962 6.52399681,34.394603 C5.66173764,33.4682886 5.13721549,32.2269796 5.13721549,30.8693045 C5.13721549,28.7617413 6.40117544,26.9345897 8.25746379,26.1300299 C7.96308231,25.8370183 7.7014995,25.5059665 7.48075076,25.1410849 Z" id="Combined-Shape" fill="#000000" fill-rule="nonzero"></path>
                <path d="M10.0528163,36.0355301 C9.52098658,36.0355301 9.08985337,35.6043969 9.08985337,35.0725671 C9.08985337,34.5407374 9.52098658,34.1096041 10.0528163,34.1096041 L12.1663662,34.1096041 C12.6981959,34.1096041 13.1293291,34.5407374 13.1293291,35.0725671 C13.1293291,35.6043969 12.6981959,36.0355301 12.1663662,36.0355301 L10.0528163,36.0355301 Z" id="Path" fill="#000000" fill-rule="nonzero"></path>
                <path d="M7.95515786,44.4420553 C7.42332811,44.4420553 6.9921949,44.0109221 6.9921949,43.4790923 C6.9921949,42.9472626 7.42332811,42.5161294 7.95515786,42.5161294 L10.0528163,42.5161294 C10.5846461,42.5161294 11.0157793,42.9472626 11.0157793,43.4790923 C11.0157793,44.0109221 10.5846461,44.4420553 10.0528163,44.4420553 L7.95515786,44.4420553 Z" id="Path" fill="#000000" fill-rule="nonzero"></path>
                <rect id="Rectangle" fill="#4FC7FF" transform="translate(65.227591, 34.532261) rotate(180.000000) translate(-65.227591, -34.532261) " x="57.8698946" y="18.2436253" width="14.715392" height="32.5772717" rx="1"></rect>
                <path d="M58.8328576,19.2065883 L58.8328576,49.857934 L71.6223237,49.857934 L71.6223237,19.2065883 L58.8328576,19.2065883 Z M58.8328576,17.2806623 L71.6223237,17.2806623 C72.6859832,17.2806623 73.5482496,18.1429287 73.5482496,19.2065883 L73.5482496,49.857934 C73.5482496,50.9215935 72.6859832,51.78386 71.6223237,51.78386 L58.8328576,51.78386 C57.7691981,51.78386 56.9069317,50.9215935 56.9069317,49.857934 L56.9069317,19.2065883 C56.9069317,18.1429287 57.7691981,17.2806623 58.8328576,17.2806623 Z" id="Rectangle" fill="#000000" fill-rule="nonzero" transform="translate(65.227591, 34.532261) rotate(180.000000) translate(-65.227591, -34.532261) "></path>
                <path d="M53.1501631,19.3942122 L57.9175687,19.3942122 C58.4493985,19.3942122 58.8805317,19.8253454 58.8805317,20.3571751 L58.8805317,48.7232385 C58.8805317,49.2550683 58.4493985,49.6862015 57.9175687,49.6862015 L53.1501631,49.6862015 C51.7406782,49.6862015 50.5980649,48.5435882 50.5980649,47.1341033 L50.5980649,21.9463103 C50.5980649,20.5368254 51.7406782,19.3942122 53.1501631,19.3942122 Z" id="Path" fill="#000000" fill-rule="nonzero"></path>
                <path d="M69.0409936,3.17827041 C69.0409936,4.91042778 54.929473,6.35654082 37.5284425,6.35654082 C20.127412,6.35654082 6,4.94221049 6,3.17827041 C6,1.41433033 20.1115206,0 37.5284425,0 C54.9453643,0 69.0409936,1.36665628 69.0409936,3.17827041 Z" id="Path" fill="#F6F9FD"></path>
                <path d="M53.1501631,21.3201381 C52.8043377,21.3201381 52.5239908,21.6004849 52.5239908,21.9463103 L52.5239908,47.1341033 C52.5239908,47.4799287 52.8043377,47.7602756 53.1501631,47.7602756 L56.9546057,47.7602756 L56.9546057,21.3201381 L53.1501631,21.3201381 Z" id="Path" fill="#EB008B" fill-rule="nonzero"></path>
            </g>
        </g>
    </g>
</svg>