<?xml version="1.0" encoding="UTF-8"?>
<svg width="63px" height="86px" viewBox="0 0 63 86" version="1.1" xmlns="http://www.w3.org/2000/svg" xmlns:xlink="http://www.w3.org/1999/xlink">
    <!-- Generator: Sketch 52.6 (67491) - http://www.bohemiancoding.com/sketch -->
    <title>vision</title>
    <desc>Created with Sketch.</desc>
    <g id="Page-1" stroke="none" stroke-width="1" fill="none" fill-rule="evenodd">
        <g id="02-gta-about-us" transform="translate(-224.000000, -2077.000000)">
            <g id="vision" transform="translate(224.000000, 2077.000000)">
                <g id="Group-2">
                    <g id="Scene">
                        <path d="M49.7894737,31.80599 C49.6633481,23.9559529 44.4485008,17.0994509 36.9172443,14.8815316 C29.3859879,12.6636123 21.287369,15.5993617 16.9267684,22.1280791 C12.5661678,28.6567966 12.9562842,37.2622636 17.8897243,43.3696491 C20.4270915,46.2463993 21.8427331,49.9412238 21.877193,53.7769424 L21.877193,55.8504261 L41.8145363,55.8504261 L41.8145363,53.7769424 C41.8108883,50.0128692 43.1385766,46.3687888 45.5627569,43.4892732 C48.3273127,40.2278281 49.8274186,36.0813091 49.7894737,31.80599 Z" id="Path" fill="#FFFFFF"></path>
                        <path d="M50.8131511,31.7895427 L50.8132429,31.7969037 C50.8533673,36.3177971 49.2670954,40.7024921 46.3459707,44.1486381 C44.0773965,46.8433199 42.8349315,50.2534897 42.8383459,53.7769424 L42.8383459,55.8504261 C42.8383459,56.4158605 42.3799707,56.8742356 41.8145363,56.8742356 L21.877193,56.8742356 C21.3117586,56.8742356 20.8533835,56.4158605 20.8533835,55.8504261 L20.8534248,53.7861398 C20.8211768,50.196633 19.4964042,46.7389763 17.0932959,44.0129902 C11.8783682,37.5571352 11.4659929,28.4606656 16.0753965,21.5594387 C20.6848002,14.6582118 29.2455025,11.5549573 37.2064702,13.8994245 C45.167438,16.2438918 50.6798291,23.4916056 50.8131511,31.7895427 Z M36.6280185,15.8636387 C29.5264733,13.7722673 21.8899378,16.5405115 17.7781402,22.6967195 C13.6663427,28.8529276 14.0342002,36.967392 18.6575401,42.6924159 C21.3577789,45.7538224 22.8642894,49.6858147 22.9010025,53.7769424 L22.9010025,54.8266165 L40.7907271,54.8266165 L40.7907273,53.7779346 C40.7868451,49.7722486 42.1997566,45.8942576 44.7817703,42.8272718 C47.3867367,39.7541 48.8006087,35.8472009 48.7657367,31.8187569 C48.645237,24.4181573 43.7283866,17.9546634 36.6280185,15.8636387 Z" id="Path" fill="#000000" fill-rule="nonzero"></path>
                        <path d="M37.8270677,64.7295489 L25.8646617,64.7295489 C23.0970091,64.7295489 20.8533835,62.4859232 20.8533835,59.7182707 L20.8533835,55.730802 C20.8533835,55.1653676 21.3117586,54.7069925 21.877193,54.7069925 L41.8145363,54.7069925 C42.3799707,54.7069925 42.8383459,55.1653676 42.8383459,55.730802 L42.8383459,59.7182707 C42.8383459,62.4859232 40.5947202,64.7295489 37.8270677,64.7295489 Z" id="Path" fill="#000000" fill-rule="nonzero"></path>
                        <path d="M31.8458647,72.7443605 C27.9771032,72.7443605 24.8408524,69.6081099 24.8408521,65.7393484 L24.8408521,63.745614 C24.8408521,63.1801796 25.2992273,62.7218045 25.8646617,62.7218045 L37.8270677,62.7218045 C38.3925021,62.7218045 38.8508772,63.1801796 38.8508772,63.745614 L38.8508772,65.7393484 C38.850877,69.6081099 35.7146261,72.7443605 31.8458647,72.7443605 Z" id="Path" fill="#000000" fill-rule="nonzero"></path>
                        <path d="M32.8297995,5.88744361 C32.8297995,6.452878 32.3714244,6.91125313 31.80599,6.91125313 C31.2405556,6.91125313 30.7821805,6.452878 30.7821805,5.88744361 L30.7821805,1.89997494 C30.7821805,1.33454055 31.2405556,0.876165414 31.80599,0.876165414 C32.3714244,0.876165414 32.8297995,1.33454055 32.8297995,1.89997494 L32.8297995,5.88744361 Z" id="Path" fill="#000000" fill-rule="nonzero"></path>
                        <path d="M50.8324138,14.2274514 C50.4325913,14.6272739 49.784351,14.6272739 49.3845285,14.2274514 C48.984706,13.8276289 48.984706,13.1793886 49.3845285,12.7795661 L52.2156313,9.94846336 C52.6154538,9.54864087 53.2636941,9.54864087 53.6635166,9.94846336 C54.0633391,10.3482858 54.0633391,10.9965262 53.6635166,11.3963487 L50.8324138,14.2274514 Z" id="Path" fill="#000000" fill-rule="nonzero"></path>
                        <path d="M57.7245363,32.8297995 C57.159102,32.8297995 56.7007268,32.3714244 56.7007268,31.80599 C56.7007268,31.2405556 57.159102,30.7821805 57.7245363,30.7821805 L61.712005,30.7821805 C62.2774394,30.7821805 62.7358145,31.2405556 62.7358145,31.80599 C62.7358145,32.3714244 62.2774394,32.8297995 61.712005,32.8297995 L57.7245363,32.8297995 Z" id="Path" fill="#000000" fill-rule="nonzero"></path>
                        <path d="M14.1875767,12.7795661 C14.5873992,13.1793886 14.5873992,13.8276289 14.1875767,14.2274514 C13.7877543,14.6272739 13.1395139,14.6272739 12.7396914,14.2274514 L9.90858867,11.3963487 C9.50876618,10.9965262 9.50876618,10.3482858 9.90858867,9.94846336 C10.3084112,9.54864087 10.9566515,9.54864087 11.356474,9.94846336 L14.1875767,12.7795661 Z" id="Path" fill="#000000" fill-rule="nonzero"></path>
                        <path d="M5.88744361,30.7821805 C6.452878,30.7821805 6.91125313,31.2405556 6.91125313,31.80599 C6.91125313,32.3714244 6.452878,32.8297995 5.88744361,32.8297995 L1.89997494,32.8297995 C1.33454055,32.8297995 0.876165414,32.3714244 0.876165414,31.80599 C0.876165414,31.2405556 1.33454055,30.7821805 1.89997494,30.7821805 L5.88744361,30.7821805 Z" id="Path" fill="#000000" fill-rule="nonzero"></path>
                    </g>
                    <path d="M51.2324458,83.6229911 C51.2324458,84.5594261 42.5143471,85.3412204 31.7639889,85.3412204 C21.0136307,85.3412204 12.2857143,84.5766084 12.2857143,83.6229911 C12.2857143,82.6693739 21.003813,81.9047619 31.7639889,81.9047619 C42.5241648,81.9047619 51.2324458,82.6436005 51.2324458,83.6229911 Z" id="Path" fill="#F6F9FD"></path>
                </g>
                <path d="M26.8884712,65.7393483 C26.8884713,68.477241 29.107972,70.6967415 31.8458647,70.6967415 C34.5837574,70.6967415 36.803258,68.477241 36.8032581,65.7393483 L36.8032581,64.7694236 L26.8884712,64.7694236 L26.8884712,65.7393483 Z" id="Path" fill="#EB008B" fill-rule="nonzero"></path>
                <path d="M22.9010025,59.7182707 C22.9010025,61.3550544 24.2278779,62.6819298 25.8646617,62.6819298 L37.8270677,62.6819298 C39.4638514,62.6819298 40.7907268,61.3550544 40.7907268,59.7182707 L40.7907268,56.7546115 L22.9010025,56.7546115 L22.9010025,59.7182707 Z" id="Path" fill="#4FC7FF" fill-rule="nonzero"></path>
            </g>
        </g>
    </g>
</svg>