<?xml version="1.0" encoding="UTF-8"?>
<svg width="218px" height="134px" viewBox="0 0 218 134" version="1.1" xmlns="http://www.w3.org/2000/svg" xmlns:xlink="http://www.w3.org/1999/xlink">
    <!-- Generator: Sketch 52.4 (67378) - http://www.bohemiancoding.com/sketch -->
    <title>decals</title>
    <desc>Created with Sketch.</desc>
    <g id="Page-1" stroke="none" stroke-width="1" fill="none" fill-rule="evenodd">
        <g id="01-gta-frontpage" transform="translate(-286.000000, -943.000000)">
            <g id="decals" transform="translate(275.000000, 915.000000)">
                <path d="M158.991604,65.859686 C158.991604,63.7707205 158.422322,61.8716609 157.473519,60.1625073 C157.283759,59.9726013 157.283759,59.7826954 157.093998,59.5927894 C156.714477,59.0230715 156.334956,58.2634477 155.765674,57.8836358 C155.196392,57.124012 154.43735,56.5542941 153.678307,56.1744822 C152.919265,55.6047643 152.160223,55.2249524 151.21142,55.0350464 L134.322727,48.7681498 L133.753445,48.198432 L133.563684,48.198432 C133.563684,48.198432 133.563684,48.198432 133.563684,48.198432 L96.7501293,34.715109 C93.144678,33.3857673 89.3494661,33.9554852 86.123536,36.0444507 C82.8976059,38.1334162 81.1897606,41.7416294 81,45.5397486 L82.7078453,45.5397486 L81,45.5397486 L81,107.828903 L145.139081,146 L145.139081,79.153103 C145.328841,79.153103 145.328841,79.343009 145.328841,79.343009 C146.467405,80.2925388 147.795729,80.6723507 149.124053,80.6723507 C149.693335,80.6723507 150.262617,80.6723507 150.831898,80.4824447 C156.145195,78.963197 159.181365,73.6458302 158.991604,66.4294039 C158.991604,66.2394979 158.991604,66.0495919 158.991604,65.859686 Z" id="Path" fill="#000000"></path>
                <path d="M24.9307139,126.372323 C45.6908572,171.733818 128.384515,182.833621 200.210093,152.302062 C272.03567,121.770502 178.301722,96.617095 223.236145,79.2822107 C268.170568,61.9473264 167.769026,6.79627785 95.2748917,51.6782098 C22.7807577,96.5601418 4.17057053,81.0108285 24.9307139,126.372323 Z" id="Path-5" fill="#4A90E2" opacity="0.05" transform="translate(125.686922, 101.977759) rotate(201.000000) translate(-125.686922, -101.977759) "></path>
                <g id="Group-22" transform="translate(84.000000, 36.000000)">
                    <g id="noun_Labels_1592535" transform="translate(0.000000, 0.952381)" fill-rule="nonzero">
                        <path d="M0.380952381,69.1428571 L0.380952381,8.57142857 C0.380952381,5.9047619 1.71428571,3.42857143 4,1.9047619 C6.28571429,0.380952381 8.95238095,1.58761893e-13 11.4285714,0.952380952 L13.7142857,1.71428571 C12.3809524,2.28571429 10.8571429,3.23809524 9.33333333,4.76190476 C6.28571429,8.38095238 6.28571429,13.7142857 6.28571429,13.9047619 L6.28571429,15.047619 L22.0952381,22.0952381 L22.2857143,19.6190476 C22.2857143,19.6190476 22.4761905,14.8571429 25.7142857,11.8095238 C28.5714286,8.76190476 31.8095238,8.57142857 32.5714286,8.57142857 L39.6190476,11.2380952 C38.4761905,11.6190476 37.5238095,12.1904762 36.7619048,12.952381 C33.5238095,15.4285714 31.8095238,19.8095238 32,24.952381 L32,26.2857143 L50.6666667,34.4761905 L50.6666667,31.8095238 C50.6666667,31.8095238 50.6666667,26.8571429 53.5238095,22.4761905 C56.1904762,18.2857143 61.3333333,19.4285714 61.7142857,19.4285714 L63.8095238,20.1904762 C60.5714286,22.4761905 58.0952381,27.4285714 58.0952381,32.952381 L58.0952381,103.428571 L0.380952381,69.1428571 Z M66.0952381,40.3809524 C65.1428571,40.5714286 64.3809524,40.3809524 63.6190476,39.8095238 C62.0952381,38.6666667 61.1428571,36 61.1428571,32.952381 C61.1428571,27.2380952 64.1904762,22.6666667 66.8571429,22.0952381 C67.047619,22.0952381 67.2380952,22.0952381 67.4285714,22.0952381 C68,22.0952381 68.5714286,22.2857143 68.952381,22.6666667 C69.5238095,23.2380952 70.0952381,23.8095238 70.4761905,24.5714286 C71.047619,25.7142857 71.6190476,27.6190476 71.6190476,29.7142857 C72,35.2380952 69.7142857,39.2380952 66.0952381,40.3809524 Z" id="Shape" fill="#FFFFFF"></path>
                        <polygon id="Shape" fill="#000000" points="6.28571429 42.0952381 21.9047619 49.9047619 21.9047619 28.952381 6.28571429 21.9047619 6.28571429 42.0952381"></polygon>
                        <polygon id="Shape" fill="#000000" points="31.4285714 54.2857143 49.7142857 63.4285714 49.7142857 41.3333333 31.4285714 33.1428571"></polygon>
                        <polygon id="Shape" fill="#000000" points="4.95238095 67.047619 21.1428571 76.3809524 21.1428571 56.3809524 4.95238095 47.8095238"></polygon>
                        <polygon id="Shape" fill="#000000" points="28.952381 80.7619048 47.2380952 91.2380952 47.2380952 71.047619 28.952381 61.3333333"></polygon>
                    </g>
                    <polygon id="Path" fill="#BAB9B9" points="32.3809524 68 43.8095238 74.0952381 43.8095238 86.2857143 32.3809524 79.8095238"></polygon>
                    <polygon id="Path" fill="#FFF100" points="8.38095238 54.4761905 17.7142857 59.4285714 17.7142857 71.2380952 8.38095238 65.9047619"></polygon>
                    <polygon id="Path" fill="#0094D9" points="9.71428571 28.1904762 18.4761905 32.1904762 18.4761905 45.1428571 9.71428571 40.7619048"></polygon>
                    <polygon id="Path" fill="#EB008B" points="34.8571429 39.4285714 46.2857143 44.5714286 46.2857143 58.6666667 34.8571429 52.952381"></polygon>
                    <path d="M54.6666667,17.7142857 C53.1428571,18.4761905 51.6190476,19.6190476 50.4761905,21.3333333 C48.3809524,24.5714286 47.6190476,27.8095238 47.2380952,30.0952381 L35.2380952,24.7619048 C35.2380952,21.1428571 36.3809524,18.0952381 38.6666667,16.3809524 C40.952381,14.4761905 44.3809524,14.0952381 48.3809524,15.2380952 L49.1428571,15.6190476 L54.6666667,17.7142857 Z" id="Path" fill="#BAB9B9"></path>
                    <path d="M26.8571429,7.61904762 C25.5238095,8.19047619 24.3809524,9.14285714 23.047619,10.4761905 C20.5714286,12.952381 19.4285714,16 19.047619,18.0952381 L9.71428571,13.9047619 C9.9047619,12.3809524 10.2857143,9.9047619 11.8095238,8.19047619 C15.8095238,4.19047619 20.1904762,5.14285714 20.5714286,5.33333333 L26.8571429,7.61904762 Z" id="Path" fill="#BAB9B9"></path>
                </g>
                <g id="Group-25" transform="translate(176.000000, 122.000000) scale(-1, -1) translate(-176.000000, -122.000000) translate(157.000000, 100.000000)">
                    <g id="Group-24" transform="translate(25.591038, 6.947496) rotate(-315.000000) translate(-25.591038, -6.947496) translate(20.625129, 2.034874)" fill="#EB008B">
                        <path d="M1.78189773,9.4593165 C1.33975909,9.4593165 0.897793182,9.29245825 0.560456818,8.95891262 C-0.114043182,8.29143689 -0.114043182,7.20972039 0.560456818,6.54224466 L6.66722955,0.500959223 C7.34194545,-0.16608932 8.43539545,-0.16608932 9.11011136,0.500959223 C9.78461136,1.16843495 9.78461136,2.25015146 9.11011136,2.91762718 L3.00333864,8.95891262 C2.66595909,9.29245825 2.22403636,9.4593165 1.78189773,9.4593165 Z" id="Path"></path>
                        <path d="M7.88871364,9.45871845 C7.446575,9.45871845 7.00460909,9.29186019 6.66727273,8.95831456 L0.560456818,2.91681553 C-0.114043182,2.24933981 -0.114043182,1.16740971 0.560456818,0.500147573 C1.23560455,-0.166900971 2.32905455,-0.166473786 3.00333864,0.500147573 L9.11015455,6.5416466 C9.78465455,7.20912233 9.78465455,8.29105243 9.11015455,8.95831456 C8.772775,9.29181748 8.33063636,9.45871845 7.88871364,9.45871845 Z" id="Path"></path>
                    </g>
                    <path d="M6.04545455,32.038835 C2.71194773,32.038835 3.55271368e-15,29.3559883 3.55271368e-15,26.0582524 C3.55271368e-15,22.7605165 2.71194773,20.0776699 6.04545455,20.0776699 C9.37896136,20.0776699 12.0909091,22.7605165 12.0909091,26.0582524 C12.0909091,29.3559883 9.37896136,32.038835 6.04545455,32.038835 Z M6.04545455,23.4951456 C4.61674091,23.4951456 3.45454545,24.6448699 3.45454545,26.0582524 C3.45454545,27.471635 4.61674091,28.6213592 6.04545455,28.6213592 C7.47416818,28.6213592 8.63636364,27.471635 8.63636364,26.0582524 C8.63636364,24.6448699 7.47416818,23.4951456 6.04545455,23.4951456 Z" id="Shape" fill="#0094D9" fill-rule="nonzero"></path>
                    <path d="M31.2262841,43.8403291 C30.7841455,43.8403291 30.3421795,43.6734709 30.0048432,43.3397117 L25.1194682,38.5067602 C24.7956045,38.1863718 24.6136364,37.7516689 24.6136364,37.2986398 C24.6136364,36.8456107 24.7956045,36.4109078 25.1196841,36.0903058 L30.0050591,31.257568 C30.6793432,30.5905194 31.773225,30.5905194 32.4475091,31.257568 L37.3331,36.0903058 C37.6571795,36.4109078 37.8391477,36.8456107 37.8391477,37.2986398 C37.8391477,37.7516689 37.6571795,38.1863718 37.3331,38.5067602 L32.4475091,43.3397117 C32.1103886,43.6734709 31.66825,43.8403291 31.2262841,43.8403291 Z M28.7836182,37.2986825 L31.2262841,39.7149233 L33.66895,37.2986825 L31.2262841,34.8824417 L28.7836182,37.2986825 Z" id="Shape" fill="#FFF100" fill-rule="nonzero"></path>
                </g>
            </g>
        </g>
    </g>
</svg>