<svg xmlns="http://www.w3.org/2000/svg" width="140" height="100" viewBox="0 0 140 100">
    <g fill="none" fill-rule="evenodd">
        <path fill="#FFF" d="M4.99 97.326a4.8 4.8 0 0 0 3.256-1.262v1.143h.95v-4.746h-.95v2.117a3.857 3.857 0 0 1-3.256 1.788c-2.149 0-3.868-1.735-3.868-3.905 0-2.063 1.72-3.799 3.868-3.799 1.25 0 2.383.592 3.087 1.499h1.068C8.31 88.715 6.8 87.703 4.99 87.703c-2.67 0-4.858 2.182-4.858 4.758 0 2.682 2.188 4.865 4.858 4.865zm8.4-.119h.951v-8.466h3.139v-.92h-7.241v.92h3.151v8.466zm3.569 0h1.029l1.667-3.733h3.998l1.667 3.733h1.03l-4.182-9.386H21.14l-4.181 9.386zm6.29-4.654h-3.19l1.602-3.575 1.588 3.575zm8.05 4.654h.95v-9.386h-.95v9.386zm9.298-5.876c-.86 0-1.537.407-1.94 1.117-.3-.788-.925-1.117-1.928-1.117-.716 0-1.302.29-1.719.789v-.697h-.873v5.784h.873v-3.01c0-1.407.664-1.998 1.72-1.998.846 0 1.276.565 1.276 1.709v3.3h.872v-3.011c0-1.407.664-1.998 1.72-1.998.846 0 1.276.565 1.276 1.709v3.3h.872v-3.3c0-1.84-.664-2.577-2.149-2.577zm6.421 6.02c.873 0 1.641-.42 2.162-1.064v.947h.873v-5.811h-.873v.946a2.794 2.794 0 0 0-2.162-1.038c-1.628 0-2.97 1.354-2.97 2.997 0 1.617 1.342 3.024 2.97 3.024zm-.026-.867c-1.16 0-2.032-1.012-2.032-2.156 0-1.17.873-2.13 2.032-2.13 1.133 0 2.136.96 2.136 2.13 0 1.144-1.003 2.156-2.136 2.156zm9.599-5.061v.88c-.521-.617-1.277-1.025-2.136-1.025-1.628 0-2.97 1.407-2.97 3.024 0 1.643 1.342 2.997 2.97 2.997a2.81 2.81 0 0 0 2.136-.999v.381c0 1.801-.9 2.42-2.058 2.42-.795 0-1.459-.474-1.81-1.131h-.99a2.964 2.964 0 0 0 2.8 1.998c1.628 0 2.97-1.012 2.97-3.287v-5.258h-.912zm-2.162 5.009c-1.16 0-2.032-.96-2.032-2.13 0-1.144.872-2.156 2.032-2.156 1.133 0 2.135 1.012 2.135 2.156 0 1.17-1.002 2.13-2.135 2.13zm10.314-2.104c0-1.643-1.341-2.997-2.969-2.997s-2.97 1.354-2.97 2.997c0 1.617 1.342 3.024 2.97 3.024 1.16 0 2.188-.67 2.67-1.67h-1.081c-.365.474-.925.802-1.589.802-1.016 0-1.836-.789-2.019-1.748h4.988v-.408zm-2.969-2.13c1.003 0 1.823.737 2.019 1.696h-4.038c.196-.96 1.003-1.695 2.019-1.695zm13.31-2.458c-.208-1.21-1.263-2.064-2.565-2.064-1.602 0-2.67 1.091-2.67 2.511 0 1.42.937 2.077 2.67 2.616 1.471.46 2.031.934 2.031 1.801 0 1.091-.898 1.762-2.031 1.762-1.003 0-1.824-.644-2.006-1.551h-.99c.183 1.459 1.446 2.51 2.996 2.51 1.68 0 3.021-1.077 3.021-2.72 0-1.644-1.29-2.328-3.021-2.88-1.12-.355-1.68-.723-1.68-1.538 0-.815.664-1.551 1.68-1.551.703 0 1.328.486 1.523 1.104h1.042zm4.272 7.612c1.628 0 2.97-1.407 2.97-3.024 0-1.643-1.342-2.997-2.97-2.997-1.628 0-2.97 1.354-2.97 2.997 0 1.617 1.342 3.024 2.97 3.024zm0-5.153c1.16 0 2.058.96 2.058 2.13 0 1.143-.899 2.155-2.058 2.155-1.159 0-2.057-1.012-2.057-2.156 0-1.17.898-2.13 2.057-2.13zm4.272 5.008h.873v-9.386h-.873v9.386zm7.593-5.784h-.873v3.076c0 1.275-.716 1.933-1.875 1.933-.95 0-1.472-.566-1.472-1.71v-3.3h-.872v3.3c0 1.841.703 2.577 2.344 2.577.781 0 1.42-.289 1.875-.789v.697h.873v-5.784zm4.324.802v-.802h-1.29v-2.274h-.872v2.274h-.86v.802h.86v4.982h.873v-4.982h1.289zm1.667-1.972a.626.626 0 0 0 .612-.631.63.63 0 0 0-.612-.605.623.623 0 0 0-.625.605.62.62 0 0 0 .625.63zm-.443 6.954h.912v-5.784h-.912v5.784zm5.262.145c1.628 0 2.97-1.407 2.97-3.024 0-1.643-1.342-2.997-2.97-2.997-1.628 0-2.97 1.354-2.97 2.997 0 1.617 1.342 3.024 2.97 3.024zm0-5.153c1.159 0 2.057.96 2.057 2.13 0 1.143-.898 2.155-2.057 2.155-1.16 0-2.058-1.012-2.058-2.156 0-1.17.899-2.13 2.058-2.13zm4.337 5.008h.872v-3.076c0-1.301.717-1.959 1.876-1.932.95 0 1.471.565 1.471 1.709v3.3h.873v-3.3c0-1.84-.703-2.577-2.344-2.577-.782 0-1.42.29-1.876.789v-.697h-.872v5.784zm10.575-4.364c-.091-.881-.846-1.512-1.98-1.512-1.302 0-1.98.71-1.98 1.59 0 .92.613 1.42 1.98 1.696 1.042.21 1.407.395 1.407.947 0 .526-.56.907-1.407.907-.742 0-1.328-.42-1.406-.907h-.795c.053 1.012.912 1.735 2.201 1.735 1.433 0 2.201-.723 2.201-1.735 0-.96-.586-1.472-2.057-1.775-.938-.184-1.316-.434-1.316-.867 0-.434.482-.763 1.172-.763.678 0 1.107.29 1.186.684h.794zm5.692 4.364h.95v-9.386h-.95v9.386zm2.904 0h.872v-3.076c0-1.301.717-1.959 1.876-1.932.95 0 1.472.565 1.472 1.709v3.3h.872v-3.3c0-1.84-.703-2.577-2.344-2.577-.782 0-1.42.29-1.876.789v-.697h-.872v5.784zm12.086-3.904c-.417-1.144-1.51-1.972-2.787-1.972-1.628 0-2.97 1.354-2.97 2.997 0 1.617 1.342 3.024 2.97 3.024 1.29 0 2.396-.828 2.8-1.998h-.99c-.351.657-1.016 1.13-1.81 1.13-1.16 0-2.058-1.012-2.058-2.156 0-1.17.899-2.13 2.058-2.13.794 0 1.459.447 1.81 1.105h.977zm1.524 3.97c.39 0 .716-.329.716-.736a.726.726 0 0 0-.716-.723.729.729 0 1 0 0 1.459z"/>
        <path fill="#EB008B" d="M64.787 74.119c.175 3.743.6 4.524 2.21 7.63-4.669-4.797-9.048-13.146-9.402-20.632-.346-7.354 2.591-14.133 6.417-19.935 4.791-7.27 14.02-14.963 17.117-21.922 1.873-4.212-.283-7.366-1.26-10.095 3.428 2.659 6.618 11.505 6.412 17.353-.613 17.463-22.223 32.047-21.494 47.6"/>
        <path fill="#FFF100" d="M69.66 81.631c-.544-.897-.63-3.423-.66-4.4-.141-4.677.201-8.245 2.463-12.345 7.256-13.155 25.906-13.928 30.858-18.677 2.429-2.33 2.49-3.25 2.738-7.446 1.8 3.73.195 11.786-2.79 15.782C93.793 65.89 71.545 67.127 69.66 81.631"/>
        <path fill="#0094D9" d="M36.088 43.908c.532-12.208 6.474-28.818 3.669-37.03-.982-2.874-3.832-6.15-6.535-6.846 3.398.737 7.729 3.256 11.26 6.224l-.416 10.192c-1.55.234-1.654 2.057-.062 2.484l-.206 8.467-.431.807-.247 1.098c-.79.754-1.017.95-1.151 1.987l-.987 1.221c.052 3.983-.512 3.788 2.777 5.686l-1.184 30.75a78.027 78.027 0 0 1-.679-.964c-4.802-6.908-6.188-15.385-5.808-24.076zm9.22-36.937c1.58 1.413 2.96 2.9 3.959 4.329 11.777 16.827-2.303 43.802 7.064 63.022 2.483 5.095 5.088 6.492 9.503 9.175-5.228-.916-13.028-5.015-17.857-9.016l-1.923-36.294c3.035-1.5 2.738-1.814 2.844-5.53l-.987-1.16c-.237-1.31-.422-1.152-1.398-2.07l-.165-1.159-.493-.745-.124-8.57c1.67-.72 1.09-2.044-.123-2.452l-.3-9.53z"/>
        <path fill="#010202" d="M72.898 83.413c-.071-.738.63-2.37.903-3 1.308-3.016 2.587-5.178 5.222-7.087 8.456-6.123 20.322-.864 24.83-2.355 2.21-.732 2.523-1.298 3.931-3.888.009 2.925-3.398 7.55-6.454 9.17-8.675 4.597-22.924-1.477-28.432 7.16"/>
    </g>
</svg>
