<?xml version="1.0" standalone="no"?>
<!DOCTYPE svg PUBLIC "-//W3C//DTD SVG 20010904//EN"
 "http://www.w3.org/TR/2001/REC-SVG-20010904/DTD/svg10.dtd">
<svg version="1.0" xmlns="http://www.w3.org/2000/svg"
 width="700.000000pt" height="700.000000pt" viewBox="0 0 700.000000 700.000000"
 preserveAspectRatio="xMidYMid meet">
<metadata>
Created by potrace 1.11, written by Peter Selinger 2001-2013
</metadata>
<g transform="translate(0.000000,700.000000) scale(0.100000,-0.100000)"
fill="#000000" stroke="none">
<path d="M1010 6508 c80 -46 225 -197 283 -296 101 -172 128 -305 122 -607 -2
-115 -6 -223 -9 -240 -2 -16 -7 -57 -11 -90 -5 -48 -48 -326 -71 -455 -10 -61
-15 -88 -24 -135 -12 -64 -19 -101 -26 -145 -3 -19 -19 -102 -34 -185 -16 -82
-32 -167 -36 -189 -3 -21 -8 -48 -10 -60 -2 -11 -13 -79 -24 -151 -11 -71 -23
-143 -25 -160 -10 -52 -13 -78 -20 -150 -4 -38 -9 -77 -10 -86 -2 -10 -7 -70
-10 -135 -39 -661 72 -1232 325 -1669 63 -109 140 -219 141 -203 4 37 7 90 14
273 4 110 8 241 10 290 2 50 6 160 9 245 6 146 8 208 21 520 3 69 7 188 10
265 6 160 12 324 20 506 l6 126 -63 38 c-127 77 -139 99 -141 264 -1 110 -1
110 31 150 17 22 41 64 52 93 11 30 34 67 50 83 17 16 30 38 30 49 0 12 10 41
21 66 17 38 22 70 25 200 2 85 6 224 8 308 l4 153 -24 9 c-37 14 -64 66 -53
102 9 32 44 68 66 68 7 0 13 6 14 13 3 30 10 191 25 578 l6 155 -38 30 c-20
16 -42 34 -48 39 -29 26 -160 117 -246 170 -103 64 -271 146 -358 176 -75 26
-76 24 -12 -13z"/>
<path d="M1775 5933 c3 -65 7 -179 9 -254 3 -74 6 -177 7 -227 l1 -91 34 -20
c63 -38 66 -108 5 -144 l-28 -16 5 -313 c3 -278 6 -315 21 -338 10 -14 21 -44
25 -68 5 -32 17 -53 50 -86 25 -25 46 -57 49 -75 4 -18 23 -52 44 -76 l37 -45
-2 -93 c-5 -169 -35 -225 -155 -280 l-48 -22 6 -154 c3 -84 8 -172 10 -195 2
-22 6 -102 10 -176 3 -74 8 -162 10 -195 2 -33 7 -121 11 -195 3 -74 8 -160 9
-190 2 -30 6 -113 10 -185 3 -71 8 -161 10 -200 3 -38 7 -117 10 -175 3 -58 7
-139 10 -180 2 -41 7 -131 10 -200 3 -69 8 -154 10 -190 6 -92 18 -317 18
-369 1 -41 4 -46 72 -100 316 -256 885 -541 1190 -596 35 -6 27 1 -67 58 -226
138 -323 217 -424 347 -133 172 -235 393 -305 660 -46 176 -64 281 -84 490 -3
36 -8 83 -10 105 -5 50 -6 558 -1 640 8 122 19 281 21 315 2 19 6 80 10 135 3
55 8 116 10 135 2 19 6 82 10 140 4 58 9 121 10 140 20 276 27 444 27 665 0
216 -5 301 -27 490 -54 470 -232 863 -519 1148 -114 115 -105 117 -101 -20z"/>
<path d="M4329 5803 c98 -227 125 -369 97 -518 -16 -84 -95 -245 -186 -380
-81 -120 -366 -473 -440 -545 -8 -8 -42 -46 -75 -85 -33 -38 -67 -76 -75 -85
-114 -124 -269 -306 -425 -501 -32 -41 -168 -254 -221 -349 -186 -328 -296
-654 -329 -975 -8 -75 -8 -297 0 -350 4 -22 11 -69 16 -105 23 -148 89 -367
163 -540 110 -255 308 -565 466 -730 l33 -35 -40 80 c-77 155 -96 215 -110
345 -32 315 22 585 182 915 124 254 251 458 564 910 529 762 715 1133 796
1595 13 75 14 327 1 415 -55 377 -221 791 -388 965 -66 69 -69 66 -29 -27z"/>
<path d="M6129 3720 c0 -3 -2 -30 -4 -60 -4 -53 -17 -180 -20 -190 -1 -3 -5
-18 -10 -35 -18 -69 -62 -134 -144 -215 -76 -76 -100 -92 -211 -147 -69 -34
-197 -87 -285 -119 -624 -223 -677 -243 -900 -350 -270 -129 -539 -327 -685
-504 -25 -30 -51 -61 -58 -68 -25 -27 -90 -128 -136 -211 -80 -145 -144 -339
-163 -501 -10 -81 -10 -471 -1 -566 9 -81 31 -146 42 -119 3 9 6 27 6 41 0 29
42 156 77 232 95 208 321 429 630 615 102 62 232 131 623 330 297 151 373 192
504 274 219 136 422 312 531 458 107 144 218 439 240 640 4 33 9 63 11 67 12
19 4 260 -10 325 -13 63 -33 119 -37 103z"/>
<path d="M6285 1594 c-58 -103 -104 -148 -190 -184 -41 -16 -89 -32 -107 -35
-40 -6 -202 -6 -243 -1 -16 2 -59 7 -95 10 -36 4 -75 8 -85 10 -11 2 -51 7
-90 11 -38 4 -83 8 -100 11 -79 10 -233 18 -350 18 -250 0 -406 -28 -593 -106
-168 -70 -345 -215 -441 -363 -80 -122 -177 -334 -200 -437 l-10 -42 35 40
c88 102 120 129 203 177 103 61 302 119 451 132 30 3 80 7 110 10 30 2 190 7
355 10 165 3 314 7 330 9 17 2 66 6 110 10 223 20 443 91 567 185 85 63 223
213 270 294 63 109 131 287 115 303 -3 3 -22 -25 -42 -62z"/>
</g>
</svg>
