<?xml version="1.0" encoding="UTF-8"?>
<svg width="219px" height="134px" viewBox="0 0 219 134" version="1.1" xmlns="http://www.w3.org/2000/svg" xmlns:xlink="http://www.w3.org/1999/xlink">
    <!-- Generator: Sketch 52.4 (67378) - http://www.bohemiancoding.com/sketch -->
    <title>3d-letters</title>
    <desc>Created with Sketch.</desc>
    <g id="Page-1" stroke="none" stroke-width="1" fill="none" fill-rule="evenodd">
        <g id="01-gta-frontpage" transform="translate(-780.000000, -1407.000000)">
            <g id="3d-letters" transform="translate(758.000000, 1379.000000)">
                <g id="Group-40">
                    <path d="M24.9307139,126.372323 C45.6908572,171.733818 128.384515,182.833621 200.210093,152.302062 C272.03567,121.770502 178.301722,96.617095 223.236145,79.2822107 C268.170568,61.9473264 167.769026,6.79627785 95.2748917,51.6782098 C22.7807577,96.5601418 4.17057053,81.0108285 24.9307139,126.372323 Z" id="Path-5" fill="#4A90E2" opacity="0.05" transform="translate(125.686922, 101.977759) scale(-1, 1) rotate(201.000000) translate(-125.686922, -101.977759) "></path>
                    <g id="Group-25" transform="translate(145.000000, 61.000000) scale(-1, 1) translate(-145.000000, -61.000000) translate(126.000000, 39.000000)">
                        <g id="Group-24" transform="translate(25.591038, 6.947496) rotate(-315.000000) translate(-25.591038, -6.947496) translate(20.625129, 2.034874)" fill="#EB008B">
                            <path d="M1.78189773,9.4593165 C1.33975909,9.4593165 0.897793182,9.29245825 0.560456818,8.95891262 C-0.114043182,8.29143689 -0.114043182,7.20972039 0.560456818,6.54224466 L6.66722955,0.500959223 C7.34194545,-0.16608932 8.43539545,-0.16608932 9.11011136,0.500959223 C9.78461136,1.16843495 9.78461136,2.25015146 9.11011136,2.91762718 L3.00333864,8.95891262 C2.66595909,9.29245825 2.22403636,9.4593165 1.78189773,9.4593165 Z" id="Path"></path>
                            <path d="M7.88871364,9.45871845 C7.446575,9.45871845 7.00460909,9.29186019 6.66727273,8.95831456 L0.560456818,2.91681553 C-0.114043182,2.24933981 -0.114043182,1.16740971 0.560456818,0.500147573 C1.23560455,-0.166900971 2.32905455,-0.166473786 3.00333864,0.500147573 L9.11015455,6.5416466 C9.78465455,7.20912233 9.78465455,8.29105243 9.11015455,8.95831456 C8.772775,9.29181748 8.33063636,9.45871845 7.88871364,9.45871845 Z" id="Path"></path>
                        </g>
                        <path d="M6.04545455,32.038835 C2.71194773,32.038835 3.55271368e-15,29.3559883 3.55271368e-15,26.0582524 C3.55271368e-15,22.7605165 2.71194773,20.0776699 6.04545455,20.0776699 C9.37896136,20.0776699 12.0909091,22.7605165 12.0909091,26.0582524 C12.0909091,29.3559883 9.37896136,32.038835 6.04545455,32.038835 Z M6.04545455,23.4951456 C4.61674091,23.4951456 3.45454545,24.6448699 3.45454545,26.0582524 C3.45454545,27.471635 4.61674091,28.6213592 6.04545455,28.6213592 C7.47416818,28.6213592 8.63636364,27.471635 8.63636364,26.0582524 C8.63636364,24.6448699 7.47416818,23.4951456 6.04545455,23.4951456 Z" id="Shape" fill="#0094D9" fill-rule="nonzero"></path>
                        <path d="M31.2262841,43.8403291 C30.7841455,43.8403291 30.3421795,43.6734709 30.0048432,43.3397117 L25.1194682,38.5067602 C24.7956045,38.1863718 24.6136364,37.7516689 24.6136364,37.2986398 C24.6136364,36.8456107 24.7956045,36.4109078 25.1196841,36.0903058 L30.0050591,31.257568 C30.6793432,30.5905194 31.773225,30.5905194 32.4475091,31.257568 L37.3331,36.0903058 C37.6571795,36.4109078 37.8391477,36.8456107 37.8391477,37.2986398 C37.8391477,37.7516689 37.6571795,38.1863718 37.3331,38.5067602 L32.4475091,43.3397117 C32.1103886,43.6734709 31.66825,43.8403291 31.2262841,43.8403291 Z M28.7836182,37.2986825 L31.2262841,39.7149233 L33.66895,37.2986825 L31.2262841,34.8824417 L28.7836182,37.2986825 Z" id="Shape" fill="#FFF100" fill-rule="nonzero"></path>
                    </g>
                    <g id="Group-27" transform="translate(56.000000, 60.000000)">
                        <g id="noun_3D_2007270" fill="#000000" fill-rule="nonzero">
                            <polygon id="Shape" points="79.5833333 64.3333333 64.1666667 55.4166667 64.1666667 29.8333333 42 17 42 0 38.0833333 0 38.0833333 17 15.8333333 29.8333333 15.8333333 55.5 0.416666667 64.3333333 2.41666667 67.75 17.8333333 58.8333333 40 71.6666667 62.1666667 58.8333333 77.5833333 67.75"></polygon>
                        </g>
                        <polygon id="Path" fill="#0094D9" points="58.25 30.9166667 40 41.5 21.75 30.9166667 40 20.4166667"></polygon>
                        <polygon id="Path" fill="#FFFFFF" points="19.75 34.3333333 38 44.9166667 38 66 19.75 55.4166667"></polygon>
                        <polygon id="Path" fill="#EB008B" points="42 44.9166667 60.25 34.3333333 60.25 55.4166667 42 66"></polygon>
                    </g>
                </g>
            </g>
        </g>
    </g>
</svg>