<?xml version="1.0" encoding="UTF-8"?>
<svg width="22px" height="18px" viewBox="0 0 22 18" version="1.1" xmlns="http://www.w3.org/2000/svg" xmlns:xlink="http://www.w3.org/1999/xlink">
    <!-- Generator: Sketch 52.4 (67378) - http://www.bohemiancoding.com/sketch -->
    <title>twitter</title>
    <desc>Created with Sketch.</desc>
    <g id="Page-1" stroke="none" stroke-width="1" fill="none" fill-rule="evenodd">
        <g id="01-gta-frontpage" transform="translate(-1013.000000, -4347.000000)" fill="#FFFFFF" fill-rule="nonzero">
            <path d="M1034.2565,4349.13558 C1033.49063,4349.54629 1032.72477,4349.68319 1031.83125,4349.8201 C1032.72477,4349.27248 1033.36299,4348.45105 1033.61828,4347.35581 C1032.85241,4347.90343 1031.9589,4348.17724 1030.93774,4348.45105 C1030.17187,4347.62962 1029.02307,4347.082 1027.87426,4347.082 C1025.7043,4347.082 1023.78963,4349.13558 1023.78963,4351.59986 C1023.78963,4352.01058 1023.78963,4352.28438 1023.91727,4352.55819 C1020.47086,4352.42129 1017.27974,4350.64153 1015.23743,4347.90343 C1014.85449,4348.58796 1014.72685,4349.27248 1014.72685,4350.23081 C1014.72685,4351.73677 1015.49272,4353.10581 1016.64152,4353.92724 C1016.0033,4353.92724 1015.36507,4353.65343 1014.72685,4353.37962 C1014.72685,4353.37962 1014.72685,4353.37962 1014.72685,4353.37962 C1014.72685,4355.5701 1016.13094,4357.34986 1018.04561,4357.76058 C1017.66268,4357.89748 1017.27974,4357.89748 1016.89681,4357.89748 C1016.64152,4357.89748 1016.38623,4357.89748 1016.13094,4357.76058 C1016.64152,4359.54034 1018.17326,4360.90938 1020.08793,4360.90938 C1018.68384,4362.14153 1016.89681,4362.82605 1014.85449,4362.82605 C1014.47156,4362.82605 1014.21627,4362.82605 1013.83333,4362.82605 C1015.74801,4364.05819 1017.91797,4364.87962 1020.21557,4364.87962 C1027.87426,4364.87962 1032.08654,4358.03438 1032.08654,4352.14748 C1032.08654,4352.01058 1032.08654,4351.73677 1032.08654,4351.59986 C1032.98006,4350.91534 1033.74592,4350.09391 1034.2565,4349.13558 Z" id="twitter"></path>
        </g>
    </g>
</svg>