<?xml version="1.0" encoding="UTF-8"?>
<svg width="218px" height="134px" viewBox="0 0 218 134" version="1.1" xmlns="http://www.w3.org/2000/svg" xmlns:xlink="http://www.w3.org/1999/xlink">
    <!-- Generator: Sketch 52.6 (67491) - http://www.bohemiancoding.com/sketch -->
    <title>channel-letters</title>
    <desc>Created with Sketch.</desc>
    <g id="Page-1" stroke="none" stroke-width="1" fill="none" fill-rule="evenodd">
        <g id="01-gta-frontpage" transform="translate(-777.000000, -2385.000000)">
            <g id="channel-letters" transform="translate(766.000000, 2343.000000)">
                <g id="sandvich">
                    <g id="Group-42">
                        <path d="M24.9307139,126.372323 C45.6908572,171.733818 128.384515,182.833621 200.210093,152.302062 C272.03567,121.770502 178.301722,96.617095 223.236145,79.2822107 C268.170568,61.9473264 167.769026,6.79627785 95.2748917,51.6782098 C22.7807577,96.5601418 4.17057053,81.0108285 24.9307139,126.372323 Z" id="Path-5" fill="#4A90E2" opacity="0.05" transform="translate(125.686922, 101.977759) scale(1, -1) rotate(201.000000) translate(-125.686922, -101.977759) "></path>
                        <g id="Group-25" transform="translate(177.000000, 60.000000)">
                            <g id="Group-24" transform="translate(25.591038, 6.947496) rotate(-315.000000) translate(-25.591038, -6.947496) translate(20.625129, 2.034874)" fill="#EB008B">
                                <path d="M1.78189773,9.4593165 C1.33975909,9.4593165 0.897793182,9.29245825 0.560456818,8.95891262 C-0.114043182,8.29143689 -0.114043182,7.20972039 0.560456818,6.54224466 L6.66722955,0.500959223 C7.34194545,-0.16608932 8.43539545,-0.16608932 9.11011136,0.500959223 C9.78461136,1.16843495 9.78461136,2.25015146 9.11011136,2.91762718 L3.00333864,8.95891262 C2.66595909,9.29245825 2.22403636,9.4593165 1.78189773,9.4593165 Z" id="Path"></path>
                                <path d="M7.88871364,9.45871845 C7.446575,9.45871845 7.00460909,9.29186019 6.66727273,8.95831456 L0.560456818,2.91681553 C-0.114043182,2.24933981 -0.114043182,1.16740971 0.560456818,0.500147573 C1.23560455,-0.166900971 2.32905455,-0.166473786 3.00333864,0.500147573 L9.11015455,6.5416466 C9.78465455,7.20912233 9.78465455,8.29105243 9.11015455,8.95831456 C8.772775,9.29181748 8.33063636,9.45871845 7.88871364,9.45871845 Z" id="Path"></path>
                            </g>
                            <path d="M6.04545455,32.038835 C2.71194773,32.038835 3.55271368e-15,29.3559883 3.55271368e-15,26.0582524 C3.55271368e-15,22.7605165 2.71194773,20.0776699 6.04545455,20.0776699 C9.37896136,20.0776699 12.0909091,22.7605165 12.0909091,26.0582524 C12.0909091,29.3559883 9.37896136,32.038835 6.04545455,32.038835 Z M6.04545455,23.4951456 C4.61674091,23.4951456 3.45454545,24.6448699 3.45454545,26.0582524 C3.45454545,27.471635 4.61674091,28.6213592 6.04545455,28.6213592 C7.47416818,28.6213592 8.63636364,27.471635 8.63636364,26.0582524 C8.63636364,24.6448699 7.47416818,23.4951456 6.04545455,23.4951456 Z" id="Shape" fill="#0094D9" fill-rule="nonzero"></path>
                            <path d="M31.2262841,43.8403291 C30.7841455,43.8403291 30.3421795,43.6734709 30.0048432,43.3397117 L25.1194682,38.5067602 C24.7956045,38.1863718 24.6136364,37.7516689 24.6136364,37.2986398 C24.6136364,36.8456107 24.7956045,36.4109078 25.1196841,36.0903058 L30.0050591,31.257568 C30.6793432,30.5905194 31.773225,30.5905194 32.4475091,31.257568 L37.3331,36.0903058 C37.6571795,36.4109078 37.8391477,36.8456107 37.8391477,37.2986398 C37.8391477,37.7516689 37.6571795,38.1863718 37.3331,38.5067602 L32.4475091,43.3397117 C32.1103886,43.6734709 31.66825,43.8403291 31.2262841,43.8403291 Z M28.7836182,37.2986825 L31.2262841,39.7149233 L33.66895,37.2986825 L31.2262841,34.8824417 L28.7836182,37.2986825 Z" id="Shape" fill="#FFF100" fill-rule="nonzero"></path>
                        </g>
                    </g>
                </g>
                <g id="noun_Billboard_824134" transform="translate(56.000000, 69.000000)">
                    <g id="Group">
                        <path d="M106.158301,0 L2.25868726,0 C0.903474903,0 0,0.903474903 0,2.25868726 C0,3.61389961 0.903474903,4.51737452 2.25868726,4.51737452 L6.77606178,4.51737452 L6.77606178,65.5019305 C6.77606178,66.8571429 7.67953668,67.7606178 9.03474903,67.7606178 L18.2953668,67.7606178 L18.2953668,73.4073359 L9.03474903,73.4073359 C7.67953668,73.4073359 6.77606178,74.3108108 6.77606178,75.6660232 C6.77606178,77.0212355 7.67953668,77.9247104 9.03474903,77.9247104 L18.2953668,77.9247104 L22.8127413,77.9247104 L85.3783784,77.9247104 L89.8957529,77.9247104 L99.3822394,77.9247104 C100.737452,77.9247104 101.640927,77.0212355 101.640927,75.6660232 C101.640927,74.3108108 100.737452,73.4073359 99.3822394,73.4073359 L90.1216216,73.4073359 L90.1216216,67.7606178 L99.3822394,67.7606178 C100.737452,67.7606178 101.640927,66.8571429 101.640927,65.5019305 L101.640927,4.51737452 L106.158301,4.51737452 C107.513514,4.51737452 108.416988,3.61389961 108.416988,2.25868726 C108.416988,0.903474903 107.513514,0 106.158301,0 Z M85.6042471,73.4073359 L22.8127413,73.4073359 L22.8127413,67.7606178 L85.3783784,67.7606178 L85.3783784,73.4073359 L85.6042471,73.4073359 Z" id="Shape" fill="#000000" fill-rule="nonzero"></path>
                        <polygon id="Path" fill="#FFFFFF" points="97.1235521 63.2432432 11.2934363 63.2432432 11.2934363 4.51737452 97.1235521 4.51737452"></polygon>
                        <path d="M18.0694981,58.7258687 L90.3474903,58.7258687 C91.7027027,58.7258687 92.6061776,57.8223938 92.6061776,56.4671815 L92.6061776,11.2934363 C92.6061776,9.93822394 91.7027027,9.03474903 90.3474903,9.03474903 L18.0694981,9.03474903 C16.7142857,9.03474903 15.8108108,9.93822394 15.8108108,11.2934363 L15.8108108,56.4671815 C15.8108108,57.8223938 16.7142857,58.7258687 18.0694981,58.7258687 Z M20.3281853,13.5521236 L88.0888031,13.5521236 L88.0888031,54.2084942 L20.3281853,54.2084942 L20.3281853,13.5521236 Z" id="Shape" fill="#EB008B" fill-rule="nonzero"></path>
                        <path d="M37.042471,19.6505792 L24.6196911,47.8841699 L29.8146718,47.8841699 L32.7509653,41.3339768 L46.980695,41.3339768 L49.9169884,47.8841699 L55.1119691,47.8841699 L42.011583,19.6505792 L37.042471,19.6505792 Z M34.3320463,37.2683398 L39.527027,25.523166 L44.7220077,37.2683398 L34.3320463,37.2683398 Z" id="Shape" fill="#0094D9" fill-rule="nonzero"></path>
                        <path d="M68.2123552,19.6505792 L58.5,19.6505792 L58.5,47.8841699 L67.7606178,47.8841699 C73.1814672,47.8841699 77.2471042,46.5289575 79.957529,44.0444015 C82.6679537,41.5598456 84.023166,37.9459459 84.023166,33.6544402 C84.023166,29.3629344 82.6679537,25.7490347 79.957529,23.2644788 C77.2471042,21.0057915 73.1814672,19.6505792 68.2123552,19.6505792 Z M76.3436293,41.1081081 C74.5366795,42.6891892 71.8262548,43.5926641 68.4382239,43.5926641 L63.2432432,43.5926641 L63.2432432,24.1679537 L67.9864865,24.1679537 C75.4401544,24.1679537 79.0540541,27.3301158 79.0540541,33.8803089 C79.0540541,37.042471 78.1505792,39.527027 76.3436293,41.1081081 Z" id="Shape" fill="#0094D9" fill-rule="nonzero"></path>
                    </g>
                </g>
            </g>
        </g>
    </g>
</svg>