<?xml version="1.0" encoding="UTF-8"?>
<svg width="225px" height="135px" viewBox="0 0 225 135" version="1.1" xmlns="http://www.w3.org/2000/svg" xmlns:xlink="http://www.w3.org/1999/xlink">
    <!-- Generator: Sketch 52.4 (67378) - http://www.bohemiancoding.com/sketch -->
    <title>glass</title>
    <desc>Created with Sketch.</desc>
    <g id="Page-1" stroke="none" stroke-width="1" fill="none" fill-rule="evenodd">
        <g id="01-gta-frontpage" transform="translate(-280.000000, -1880.000000)">
            <g id="glass" transform="translate(268.000000, 1867.000000)">
                <g id="Group-41">
                    <path d="M14.1409764,96.6592459 C2.14609381,124.388705 58.3591654,175.347487 141.916152,145.330606 C225.473139,115.313725 172.574901,128.138979 224.848549,111.096313 C277.122197,94.0536479 199.840806,45.8183655 105.272407,30.2526949 C10.7040077,14.6870242 26.1358589,68.9297868 14.1409764,96.6592459 Z" id="Path-5" fill="#4A90E2" opacity="0.05" transform="translate(127.133365, 90.997825) rotate(15.000000) translate(-127.133365, -90.997825) "></path>
                    <g id="Group-19" transform="translate(68.000000, 41.000000)">
                        <path d="M13.0754717,1.38555833e-13 L112.924528,1.38555833e-13 C120.145912,1.37228198e-13 126,5.85889439 126,13.0862069 L126,55.1478507 C126,62.3751632 120.145912,68.2340576 112.924528,68.2340576 L13.0754717,68.2340576 C5.85408808,68.2340576 8.84364433e-16,62.3751632 0,55.1478507 L0,13.0862069 C-8.84364433e-16,5.85889439 5.85408808,1.39883469e-13 13.0754717,1.38555833e-13 Z" id="Rectangle" fill="#000000" fill-rule="nonzero"></path>
                        <path d="M13.0754717,3.56896552 C7.82355634,3.56896552 3.56603774,7.82997962 3.56603774,13.0862069 L3.56603774,55.1478507 C3.56603774,60.404078 7.82355634,64.6650921 13.0754717,64.6650921 L112.924528,64.6650921 C118.176444,64.6650921 122.433962,60.404078 122.433962,55.1478507 L122.433962,13.0862069 C122.433962,7.82997962 118.176444,3.56896552 112.924528,3.56896552 L13.0754717,3.56896552 Z" id="Path" fill="#FEFEFE" fill-rule="nonzero"></path>
                        <g id="Group-14"></g>
                        <g id="Group-18" transform="translate(11.886792, 11.896552)" fill="#EB008B">
                            <ellipse id="Oval" cx="2.37735849" cy="2.37931034" rx="2.37735849" ry="2.37931034"></ellipse>
                            <ellipse id="Oval" cx="2.37735849" cy="42.8275862" rx="2.37735849" ry="2.37931034"></ellipse>
                            <ellipse id="Oval" cx="99.8490566" cy="2.37931034" rx="2.37735849" ry="2.37931034"></ellipse>
                            <ellipse id="Oval" cx="99.8490566" cy="42.8275862" rx="2.37735849" ry="2.37931034"></ellipse>
                        </g>
                        <g id="noun_signed_1745298" transform="translate(23.773585, 20.224138)">
                            <g id="Group">
                                <path d="M7.1630137,21.6794284 C11.2191781,18.4836561 15.1027397,15.0287671 18.7273973,11.3147615 C17.7780822,13.6468115 16.569863,15.8061171 15.1027397,17.9654228 C13.8082192,19.8656117 16.2246575,21.9385451 18.0369863,20.9020784 C20.3671233,19.606495 22.6109589,18.2245394 24.7684932,16.8425838 C24.6821918,17.0153283 24.5958904,17.1017005 24.509589,17.274445 C23.4739726,19.2610061 25.5452055,21.0748229 27.4438356,20.2111006 C30.1191781,19.0018895 32.6219178,17.6199339 34.9520548,15.9788616 C34.9520548,16.2379783 34.8657534,16.4970949 34.8657534,16.6698394 C34.6931507,17.9654228 35.3835616,19.5201228 36.9369863,19.4337506 C40.9068493,19.1746339 43.7547945,17.0153283 46.8616438,15.0287671 C46.7753425,15.374256 46.7753425,15.8061171 46.6890411,16.151606 C46.430137,17.9654228 48.6739726,18.5700283 49.9684932,18.051795 C51.0041096,17.5335616 52.039726,17.0153283 52.9890411,16.4970949 C53.3342466,17.274445 54.1109589,17.9654228 54.9739726,17.9654228 C60.0657534,17.7926783 65.1575342,17.9654228 70.0767123,16.3243505 C72.6657534,15.4606282 71.5438356,11.2283892 68.9547945,12.1784837 C65.330137,13.3876949 61.5328767,13.5604393 57.7356164,13.6468115 C57.7356164,13.3013226 57.8219178,12.9558337 57.8219178,12.6103448 C57.9082192,10.9692726 55.9232877,9.93280586 54.5424658,10.7101559 C53.5068493,11.3147615 52.5575342,11.919367 51.5219178,12.5239726 C51.6082192,12.0921115 51.6082192,11.6602504 51.6945205,11.2283892 C51.9534247,9.41457251 49.709589,8.80996693 48.4150685,9.32820028 C45.3082192,10.7101559 42.6328767,13.4740671 39.439726,14.6832782 C39.5260274,13.7331838 39.6986301,12.7830893 39.7849315,11.919367 C40.0438356,9.76006141 37.9726027,8.37810581 36.160274,9.84643363 C34.6068493,11.142017 32.9671233,12.3512282 31.2410959,13.3876949 C31.5863014,12.7830893 31.8452055,12.0921115 32.190411,11.4875059 C33.0534247,9.76006141 31.1547945,7.16889466 29.2561644,8.55085026 C27.0123288,10.1919225 24.7684932,11.7466226 22.4383562,13.2149504 C23.7328767,10.1919225 24.6821918,6.99615021 25.2863014,3.62763344 C25.6315068,1.7274445 23.2150685,-0.259116675 21.6616438,1.55470005 C16.3109589,7.85987246 10.4424658,13.6468115 3.88356164,18.7427728 C1.89863014,20.2974728 5.00547945,23.3205007 7.1630137,21.6794284 Z" id="Path" fill="#0094D9"></path>
                                <path d="M73.4424658,23.4932452 L2.50273973,23.4932452 C1.55342466,23.4932452 0.776712329,24.2705952 0.776712329,25.2206897 C0.776712329,26.1707841 1.55342466,26.9481342 2.50273973,26.9481342 L73.5287671,26.9481342 C74.4780822,26.9481342 75.2547945,26.1707841 75.2547945,25.2206897 C75.2547945,24.2705952 74.3917808,23.4932452 73.4424658,23.4932452 Z" id="Path" fill="#4FC7FF"></path>
                            </g>
                        </g>
                    </g>
                    <g id="Group-25" transform="translate(17.000000, 62.000000)">
                        <g id="Group-24" transform="translate(25.591038, 6.947496) rotate(-315.000000) translate(-25.591038, -6.947496) translate(20.625129, 2.034874)" fill="#EB008B">
                            <path d="M1.78189773,9.4593165 C1.33975909,9.4593165 0.897793182,9.29245825 0.560456818,8.95891262 C-0.114043182,8.29143689 -0.114043182,7.20972039 0.560456818,6.54224466 L6.66722955,0.500959223 C7.34194545,-0.16608932 8.43539545,-0.16608932 9.11011136,0.500959223 C9.78461136,1.16843495 9.78461136,2.25015146 9.11011136,2.91762718 L3.00333864,8.95891262 C2.66595909,9.29245825 2.22403636,9.4593165 1.78189773,9.4593165 Z" id="Path"></path>
                            <path d="M7.88871364,9.45871845 C7.446575,9.45871845 7.00460909,9.29186019 6.66727273,8.95831456 L0.560456818,2.91681553 C-0.114043182,2.24933981 -0.114043182,1.16740971 0.560456818,0.500147573 C1.23560455,-0.166900971 2.32905455,-0.166473786 3.00333864,0.500147573 L9.11015455,6.5416466 C9.78465455,7.20912233 9.78465455,8.29105243 9.11015455,8.95831456 C8.772775,9.29181748 8.33063636,9.45871845 7.88871364,9.45871845 Z" id="Path"></path>
                        </g>
                        <path d="M6.04545455,32.038835 C2.71194773,32.038835 3.55271368e-15,29.3559883 3.55271368e-15,26.0582524 C3.55271368e-15,22.7605165 2.71194773,20.0776699 6.04545455,20.0776699 C9.37896136,20.0776699 12.0909091,22.7605165 12.0909091,26.0582524 C12.0909091,29.3559883 9.37896136,32.038835 6.04545455,32.038835 Z M6.04545455,23.4951456 C4.61674091,23.4951456 3.45454545,24.6448699 3.45454545,26.0582524 C3.45454545,27.471635 4.61674091,28.6213592 6.04545455,28.6213592 C7.47416818,28.6213592 8.63636364,27.471635 8.63636364,26.0582524 C8.63636364,24.6448699 7.47416818,23.4951456 6.04545455,23.4951456 Z" id="Shape" fill="#0094D9" fill-rule="nonzero"></path>
                        <path d="M31.2262841,43.8403291 C30.7841455,43.8403291 30.3421795,43.6734709 30.0048432,43.3397117 L25.1194682,38.5067602 C24.7956045,38.1863718 24.6136364,37.7516689 24.6136364,37.2986398 C24.6136364,36.8456107 24.7956045,36.4109078 25.1196841,36.0903058 L30.0050591,31.257568 C30.6793432,30.5905194 31.773225,30.5905194 32.4475091,31.257568 L37.3331,36.0903058 C37.6571795,36.4109078 37.8391477,36.8456107 37.8391477,37.2986398 C37.8391477,37.7516689 37.6571795,38.1863718 37.3331,38.5067602 L32.4475091,43.3397117 C32.1103886,43.6734709 31.66825,43.8403291 31.2262841,43.8403291 Z M28.7836182,37.2986825 L31.2262841,39.7149233 L33.66895,37.2986825 L31.2262841,34.8824417 L28.7836182,37.2986825 Z" id="Shape" fill="#FFF100" fill-rule="nonzero"></path>
                    </g>
                </g>
            </g>
        </g>
    </g>
</svg>