<?xml version="1.0" encoding="UTF-8"?>
<svg width="207px" height="130px" viewBox="0 0 207 130" version="1.1" xmlns="http://www.w3.org/2000/svg" xmlns:xlink="http://www.w3.org/1999/xlink">
    <!-- Generator: Sketch 52.4 (67378) - http://www.bohemiancoding.com/sketch -->
    <title>large</title>
    <desc>Created with Sketch.</desc>
    <g id="Page-1" stroke="none" stroke-width="1" fill="none" fill-rule="evenodd">
        <g id="01-gta-frontpage" transform="translate(-772.000000, -937.000000)">
            <g id="large" transform="translate(759.000000, 914.000000)">
                <g id="Group-34">
                    <path d="M15.6068126,95.121496 C3.42221935,123.643702 56.8393683,182.593664 140.544349,146.809 C224.24933,111.024335 209.928575,131.378074 216.286173,86.357604 C222.643772,41.3371337 187.270851,18.8400023 112.073148,25.0074386 C36.8754441,31.1748748 27.7914058,66.5992895 15.6068126,95.121496 Z" id="Path-5" fill="#4A90E2" opacity="0.05" transform="translate(115.446761, 91.004423) rotate(15.000000) translate(-115.446761, -91.004423) "></path>
                    <g id="Group-26" transform="translate(70.000000, 52.000000)">
                        <g id="Group-20" transform="translate(0.000000, -0.000000)">
                            <g id="noun_Billboard_296001" transform="translate(0.000000, 0.411392)" fill="#000000" fill-rule="nonzero">
                                <g id="Group">
                                    <path d="M80,3.4375 L73.335,3.4375 C74.2529687,3.4375 75,2.69171875 75,1.77125 C75,0.85078125 74.2529687,0.10375 73.335,0.10375 L66.665,0.10375 C65.7470313,0.10375 65,0.85078125 65,1.77125 C65,2.69171875 65.7470313,3.4375 66.665,3.4375 L53.335,3.4375 C54.2529688,3.4375 55,2.69171875 55,1.77125 C55,0.85078125 54.2529688,0.10375 53.335,0.10375 L46.665,0.10375 C45.7470312,0.10375 45,0.85078125 45,1.77125 C45,2.69171875 45.7470312,3.4375 46.665,3.4375 L33.33375,3.4375 C34.2542187,3.4375 35,2.69171875 35,1.77125 C35,0.85078125 34.2542187,0.10375 33.33375,0.10375 L26.66625,0.10375 C25.7457813,0.10375 25,0.85078125 25,1.77125 C25,2.69171875 25.7457813,3.4375 26.66625,3.4375 L13.33375,3.4375 C14.2542187,3.4375 15,2.69171875 15,1.77125 C15,0.85078125 14.2542187,0.10375 13.33375,0.10375 L6.66625,0.10375 C5.74578125,0.10375 5,0.85078125 5,1.77125 C5,2.69171875 5.74578125,3.4375 6.66625,3.4375 L0,3.4375 L0,46.77125 L33.33375,46.77125 L33.33375,66.77125 L46.665,66.77125 L46.665,46.77125 L80,46.77125 L80,3.4375 Z" id="Shape"></path>
                                </g>
                            </g>
                            <polygon id="Path" fill="#FFFFFF" points="76.665 43.8476424 3.33375 43.8476424 3.33375 7.18264241 76.665 7.18264241"></polygon>
                            <polygon id="Shape" fill="#0094D9" fill-rule="nonzero" points="23.8098438 35.5151424 36.66625 35.5151424 25.2379688 15.5151424 18.6876563 26.9787362 15.2379688 21.2292049 6.66625 35.5151424 13.8098438 35.5151424"></polygon>
                            <path d="M45,25.5151424 L58.335,25.5151424 C59.2529687,25.5151424 60,24.7693612 60,23.8488924 C60,22.9284237 59.2529687,22.1826424 58.335,22.1826424 L45,22.1826424 C44.0795312,22.1826424 43.335,22.9284237 43.335,23.8488924 C43.335,24.7693612 44.0795312,25.5151424 45,25.5151424 Z" id="Path" fill="#EB008B"></path>
                            <path d="M45,32.1826424 L68.335,32.1826424 C69.2529687,32.1826424 70,31.4356112 70,30.5151424 C70,29.5946737 69.2529687,28.8488924 68.335,28.8488924 L45,28.8488924 C44.0795312,28.8488924 43.335,29.5946737 43.335,30.5151424 C43.335,31.4356112 44.0795312,32.1826424 45,32.1826424 Z" id="Path" fill="#EB008B"></path>
                            <polygon id="Path" fill="#4FC7FF" points="30.9228125 32.1826424 19.553125 32.1826424 25.2379687 22.2338924"></polygon>
                            <polygon id="Path" fill="#4FC7FF" points="12.55375 32.1826424 15.238125 27.7087362 16.7909375 30.2977987 15.7142188 32.1824862 12.55375 32.1824862"></polygon>
                        </g>
                        <g id="Group-23" transform="translate(4.000000, 67.200000)" fill="#000000" fill-rule="nonzero">
                            <path d="M7.34693878,2.408 C6.73829844,2.408 6.24489796,1.8707417 6.24489796,1.208 C6.24489796,0.5452583 6.73829844,0.008 7.34693878,0.008 L64.6530612,0.008 C65.2617016,0.008 65.755102,0.5452583 65.755102,1.208 C65.755102,1.8707417 65.2617016,2.408 64.6530612,2.408 L7.34693878,2.408 Z" id="Path"></path>
                            <path d="M1.10204082,2.408 C0.49340048,2.408 0,1.8707417 0,1.208 C0,0.5452583 0.49340048,0.008 1.10204082,0.008 L2.93877551,0.008 C3.54741585,0.008 4.04081633,0.5452583 4.04081633,1.208 C4.04081633,1.8707417 3.54741585,2.408 2.93877551,2.408 L1.10204082,2.408 Z" id="Path"></path>
                            <path d="M69.0612245,2.408 C68.4525842,2.408 67.9591837,1.8707417 67.9591837,1.208 C67.9591837,0.5452583 68.4525842,0.008 69.0612245,0.008 L70.8979592,0.008 C71.5065995,0.008 72,0.5452583 72,1.208 C72,1.8707417 71.5065995,2.408 70.8979592,2.408 L69.0612245,2.408 Z" id="Path"></path>
                        </g>
                    </g>
                    <g id="Group-25" transform="translate(197.000000, 69.000000) scale(-1, 1) translate(-197.000000, -69.000000) translate(178.000000, 47.000000)">
                        <g id="Group-24" transform="translate(25.591038, 6.947496) rotate(-315.000000) translate(-25.591038, -6.947496) translate(20.625129, 2.034874)" fill="#EB008B">
                            <path d="M1.78189773,9.4593165 C1.33975909,9.4593165 0.897793182,9.29245825 0.560456818,8.95891262 C-0.114043182,8.29143689 -0.114043182,7.20972039 0.560456818,6.54224466 L6.66722955,0.500959223 C7.34194545,-0.16608932 8.43539545,-0.16608932 9.11011136,0.500959223 C9.78461136,1.16843495 9.78461136,2.25015146 9.11011136,2.91762718 L3.00333864,8.95891262 C2.66595909,9.29245825 2.22403636,9.4593165 1.78189773,9.4593165 Z" id="Path"></path>
                            <path d="M7.88871364,9.45871845 C7.446575,9.45871845 7.00460909,9.29186019 6.66727273,8.95831456 L0.560456818,2.91681553 C-0.114043182,2.24933981 -0.114043182,1.16740971 0.560456818,0.500147573 C1.23560455,-0.166900971 2.32905455,-0.166473786 3.00333864,0.500147573 L9.11015455,6.5416466 C9.78465455,7.20912233 9.78465455,8.29105243 9.11015455,8.95831456 C8.772775,9.29181748 8.33063636,9.45871845 7.88871364,9.45871845 Z" id="Path"></path>
                        </g>
                        <path d="M6.04545455,32.038835 C2.71194773,32.038835 3.55271368e-15,29.3559883 3.55271368e-15,26.0582524 C3.55271368e-15,22.7605165 2.71194773,20.0776699 6.04545455,20.0776699 C9.37896136,20.0776699 12.0909091,22.7605165 12.0909091,26.0582524 C12.0909091,29.3559883 9.37896136,32.038835 6.04545455,32.038835 Z M6.04545455,23.4951456 C4.61674091,23.4951456 3.45454545,24.6448699 3.45454545,26.0582524 C3.45454545,27.471635 4.61674091,28.6213592 6.04545455,28.6213592 C7.47416818,28.6213592 8.63636364,27.471635 8.63636364,26.0582524 C8.63636364,24.6448699 7.47416818,23.4951456 6.04545455,23.4951456 Z" id="Shape" fill="#0094D9" fill-rule="nonzero"></path>
                        <path d="M31.2262841,43.8403291 C30.7841455,43.8403291 30.3421795,43.6734709 30.0048432,43.3397117 L25.1194682,38.5067602 C24.7956045,38.1863718 24.6136364,37.7516689 24.6136364,37.2986398 C24.6136364,36.8456107 24.7956045,36.4109078 25.1196841,36.0903058 L30.0050591,31.257568 C30.6793432,30.5905194 31.773225,30.5905194 32.4475091,31.257568 L37.3331,36.0903058 C37.6571795,36.4109078 37.8391477,36.8456107 37.8391477,37.2986398 C37.8391477,37.7516689 37.6571795,38.1863718 37.3331,38.5067602 L32.4475091,43.3397117 C32.1103886,43.6734709 31.66825,43.8403291 31.2262841,43.8403291 Z M28.7836182,37.2986825 L31.2262841,39.7149233 L33.66895,37.2986825 L31.2262841,34.8824417 L28.7836182,37.2986825 Z" id="Shape" fill="#FFF100" fill-rule="nonzero"></path>
                    </g>
                </g>
            </g>
        </g>
    </g>
</svg>