<?xml version="1.0" encoding="UTF-8"?>
<svg width="225px" height="139px" viewBox="0 0 225 139" version="1.1" xmlns="http://www.w3.org/2000/svg" xmlns:xlink="http://www.w3.org/1999/xlink">
    <!-- Generator: Sketch 52.4 (67378) - http://www.bohemiancoding.com/sketch -->
    <title>promo</title>
    <desc>Created with Sketch.</desc>
    <g id="Page-1" stroke="none" stroke-width="1" fill="none" fill-rule="evenodd">
        <g id="01-gta-frontpage" transform="translate(-280.000000, -1397.000000)">
            <g id="promo" transform="translate(268.000000, 1388.000000)">
                <g id="Group-37">
                    <path d="M14.1409764,96.6592459 C2.14609381,124.388705 58.3591654,175.347487 141.916152,145.330606 C225.473139,115.313725 172.574901,128.138979 224.848549,111.096313 C277.122197,94.0536479 199.840806,45.8183655 105.272407,30.2526949 C10.7040077,14.6870242 26.1358589,68.9297868 14.1409764,96.6592459 Z" id="Path-5" fill="#4A90E2" opacity="0.05" transform="translate(127.133365, 90.997825) rotate(15.000000) translate(-127.133365, -90.997825) "></path>
                    <g id="Group-21" transform="translate(70.000000, 9.000000)">
                        <g id="Group-15" transform="translate(23.550420, 0.000000)">
                            <g id="noun_Cap_256618">
                                <g id="Group">
                                    <circle id="Oval" fill="#000000" cx="44.1914811" cy="40.6969323" r="1.52886508"></circle>
                                    <g id="Group-17">
                                        <path d="M85.3344475,37.5484287 C85.2072725,37.103316 84.9211287,36.7535847 84.5078098,36.5946159 L65.9720487,29.1230827 C65.9720487,29.1230827 65.9720487,29.1230827 65.9720487,29.1230827 C57.2287651,6.67668926 41.1093296,3.33834463 32.2706648,3.33834463 C30.8717394,3.33834463 29.5999891,3.43372591 28.5190013,3.52910718 C27.8195386,1.43071913 25.8801193,0.0317937584 23.68635,0.0317937584 C23.1458561,0.0317937584 22.6053622,0.127175034 22.0966621,0.286143826 C20.793118,0.699462685 19.743924,1.62148168 19.1398426,2.8296445 C18.5675549,3.94242604 18.4403799,5.18238262 18.7265237,6.35875168 C7.09000812,11.7001031 2.67067571,20.8567055 1.01740027,28.0738887 C-0.98560651,36.9443473 0.699462685,44.5748493 0.763050201,44.8927869 C0.922018993,45.528662 1.49430664,46.0055684 2.13018181,46.0055684 C2.13018181,46.0055684 2.13018181,46.0055684 2.13018181,46.0055684 C20.3480054,45.9419809 34.082909,43.3666865 43.6528303,40.6324232 C45.7830121,42.7943988 53.9222142,50.265932 64.3823608,50.265932 C64.3823608,50.265932 64.3823608,50.265932 64.3823608,50.265932 C71.8856877,50.265932 78.8485208,46.4188873 85.0165099,38.820179 C85.3344475,38.4386539 85.4298288,37.9617475 85.3344475,37.5484287 Z M21.6515495,4.10139483 C21.9376933,3.56090094 22.3828059,3.14758208 22.9868873,2.95681953 C23.2094436,2.89323201 23.4637937,2.8296445 23.68635,2.8296445 C24.481194,2.8296445 25.1806566,3.24296336 25.5939755,3.87883852 L24.8309253,4.13318859 L21.3971994,5.24597014 C21.3654056,4.83265128 21.4607869,4.45112618 21.6515495,4.10139483 Z M3.05220081,38.2478913 L3.02040705,36.4356471 L3.05220081,36.4356471 L10.7462903,35.926947 L10.8734654,37.7391912 L3.05220081,38.2478913 Z M45.401487,37.103316 C44.2887054,23.7817313 39.0745291,15.6425291 34.8459592,11.1596092 C32.7475711,8.93404611 30.7127706,7.37615195 29.0277014,6.29516416 C29.9815142,6.19978289 31.062502,6.13619537 32.238871,6.13619537 C36.4356471,6.13619537 41.3000922,6.89924557 46.0691559,9.28377745 C45.6876308,10.1740027 45.3378995,11.5411343 45.528662,13.3851723 C45.5604558,13.7666974 45.6240433,14.1800162 45.7194246,14.6251289 C45.7194246,14.6569226 45.7194246,14.6569226 45.7194246,14.6887164 C45.7512183,14.8158914 45.7830121,14.9430664 45.8148058,15.0702415 C45.8148058,15.1020352 45.8465996,15.133829 45.8465996,15.1974165 C45.8783934,15.2927978 45.9101871,15.4199728 45.9419809,15.5153541 C45.9419809,15.5789416 45.9737746,15.6107354 45.9737746,15.6743229 C46.0055684,15.7697042 46.0373622,15.8650854 46.0691559,15.9922605 C46.1009497,16.055848 46.1009497,16.1194355 46.1327434,16.1512293 C46.1645372,16.2466105 46.1963309,16.3419918 46.2281247,16.4373731 C46.2599185,16.5009606 46.2917122,16.5645481 46.2917122,16.6281356 C46.323506,16.7235169 46.3552997,16.8188982 46.4188873,16.9142795 C46.450681,16.977867 46.4824748,17.0414545 46.5142685,17.105042 C46.5460623,17.2004233 46.6096498,17.2958046 46.6414436,17.3911858 C46.6732373,17.4547734 46.7050311,17.5183609 46.7368248,17.6137422 C46.7686186,17.7091234 46.8322061,17.8045047 46.8957936,17.899886 C46.9275874,17.9634735 46.9593812,18.0588548 47.0229687,18.1224423 C47.0865562,18.2178236 47.1183499,18.3132048 47.1819375,18.4085861 C47.2137312,18.4721736 47.2773187,18.5675549 47.3091125,18.6311424 C47.3727,18.7265237 47.4362875,18.821905 47.499875,18.94908 C47.5316688,19.0126675 47.5952563,19.1080488 47.6270501,19.1716363 C47.6906376,19.2670176 47.7542251,19.3941926 47.8178126,19.4895739 C47.8496064,19.5531614 47.9131939,19.6485427 47.9767814,19.7121302 C48.0403689,19.8075115 48.1357502,19.9346865 48.1993377,20.0618615 C48.2629252,20.1254491 48.294719,20.2208303 48.3583065,20.2844179 C48.4536878,20.4115929 48.5490691,20.5387679 48.6126566,20.665943 C48.6444503,20.7295305 48.7080379,20.793118 48.7398316,20.8567055 C48.8670067,21.0474681 49.0259754,21.2382306 49.1849442,21.4289932 C52.6822577,26.0072944 56.1159836,26.9611071 58.3415467,26.9929009 C58.3733404,26.9929009 58.3733404,26.9929009 58.4051342,26.9929009 C59.7722658,26.9929009 60.8850473,26.6431695 61.6163038,26.325232 C61.8706538,26.8657258 62.1250039,27.4380135 62.379354,28.0103011 C62.5383228,28.3918262 62.7290853,28.8051451 62.8880541,29.1866702 C61.58451,30.0768954 58.7548655,31.8573459 54.2401518,33.8603527 C52.1735575,34.7187842 49.6936444,35.6725969 46.7050311,36.7535847 C46.2917122,36.848966 45.8465996,36.976141 45.401487,37.103316 Z" id="Shape" fill="#000000" fill-rule="nonzero"></path>
                                        <path d="M48.8061419,10.1680672 C53.054081,12.9259329 57.1435148,17.22689 60.5672269,23.6619098 C59.1723812,24.252881 55.6852671,24.8438522 51.6909364,19.4594478 C48.0770181,14.633183 48.3623274,11.547 48.8061419,10.1680672 Z" id="Path" fill="#FFF100"></path>
                                        <path d="M64.4141545,47.4044938 C64.4141545,47.4044938 64.4141545,47.4044938 64.4141545,47.4044938 C56.4339212,47.4044938 49.7254381,42.2856987 46.8004124,39.6786105 C47.0865562,39.5832292 47.3409063,39.4878479 47.6270501,39.3924667 C48.6444503,39.0427353 49.5982631,38.7247977 50.5202821,38.3750664 C52.4279076,37.6756037 54.1447705,36.976141 55.6390772,36.3084721 C57.3877339,35.5772156 58.8502468,34.9413405 60.0584096,34.3690528 L75.0332698,41.2365046 C75.1922386,41.3000922 75.3512074,41.3318859 75.5101762,41.3318859 C75.9552888,41.3318859 76.3686077,41.0775358 76.5593702,40.664217 C76.8137203,40.0919293 76.5593702,39.3924667 75.9870826,39.1381166 L62.6654978,33.033715 C63.6828981,32.4932211 64.350567,32.0481085 64.7956796,31.7301709 L81.582784,38.5022414 C76.3368139,44.3840867 70.5503499,47.4044938 64.4141545,47.4044938 Z" id="Path" fill="#0094D9"></path>
                                        <path d="M3.30655087,43.1441301 C3.30655087,43.1441301 3.24296336,42.3174924 3.17937584,41.0139483 L12.4631533,40.4098669 C12.8128846,40.3780732 13.162616,40.2191044 13.416966,39.9329605 C13.6713161,39.6468167 13.7666974,39.2970854 13.7666974,38.947354 L13.4805536,34.3690528 C13.416966,33.6060026 12.7810909,33.033715 12.0180407,33.0973025 L3.17937584,33.6695901 C3.24296336,32.1752835 3.40193215,30.7445644 3.62448846,29.472814 C3.68807597,29.1866702 3.75166349,28.9005264 3.81525101,28.5825888 C6.10440161,18.6629362 12.2723907,11.7318968 22.1284558,7.98023336 L24.735544,7.12180188 C25.9437069,7.66229577 29.4092265,9.41095249 32.9383337,13.1944097 C36.8807597,17.4229796 41.7452048,25.1488629 42.6990175,37.9299538 C33.5424151,40.5688357 20.5069742,42.9851614 3.30655087,43.1441301 Z" id="Path" fill="#EB008B"></path>
                                    </g>
                                </g>
                            </g>
                        </g>
                        <g id="Group-16" transform="translate(0.000000, 60.735294)">
                            <g id="noun_custom-shirt_1587566" transform="translate(0.000000, 0.540944)" fill="#FFFFFF" fill-rule="nonzero" stroke="#000000" stroke-width="3">
                                <path d="M52.8876758,0.309915703 L41.7558799,0.309915703 C40.9493478,6.76423863 33.3400724,7.30236497 33.3400724,7.30236497 C33.3400724,7.30236497 25.8371075,6.76423863 25.0301998,0.309915703 L13.8987795,0.309915703 L0.183601559,13.2183737 L10.671712,23.4378905 L15.2436258,19.1353216 L15.2436258,61.0879511 L51.5428295,61.0879511 L51.5428295,19.1353216 L56.1149312,23.4378905 L66.6032294,13.2183737 L52.8876758,0.309915703 Z" id="Shape"></path>
                            </g>
                            <polygon id="Path" fill="#0094D9" points="40.0556637 35.4070223 33.3934155 30.566327 26.7307917 35.4070223 29.2756691 27.5746076 22.6134209 22.7348515 30.848726 22.7348515 33.3934155 14.9026246 35.9384807 22.7348515 44.1732223 22.7348515 37.5109742 27.5746076"></polygon>
                        </g>
                    </g>
                    <g id="Group-25" transform="translate(164.000000, 98.000000) scale(-1, -1) translate(-164.000000, -98.000000) translate(145.000000, 76.000000)">
                        <g id="Group-24" transform="translate(25.591038, 6.947496) rotate(-315.000000) translate(-25.591038, -6.947496) translate(20.625129, 2.034874)" fill="#EB008B">
                            <path d="M1.78189773,9.4593165 C1.33975909,9.4593165 0.897793182,9.29245825 0.560456818,8.95891262 C-0.114043182,8.29143689 -0.114043182,7.20972039 0.560456818,6.54224466 L6.66722955,0.500959223 C7.34194545,-0.16608932 8.43539545,-0.16608932 9.11011136,0.500959223 C9.78461136,1.16843495 9.78461136,2.25015146 9.11011136,2.91762718 L3.00333864,8.95891262 C2.66595909,9.29245825 2.22403636,9.4593165 1.78189773,9.4593165 Z" id="Path"></path>
                            <path d="M7.88871364,9.45871845 C7.446575,9.45871845 7.00460909,9.29186019 6.66727273,8.95831456 L0.560456818,2.91681553 C-0.114043182,2.24933981 -0.114043182,1.16740971 0.560456818,0.500147573 C1.23560455,-0.166900971 2.32905455,-0.166473786 3.00333864,0.500147573 L9.11015455,6.5416466 C9.78465455,7.20912233 9.78465455,8.29105243 9.11015455,8.95831456 C8.772775,9.29181748 8.33063636,9.45871845 7.88871364,9.45871845 Z" id="Path"></path>
                        </g>
                        <path d="M6.04545455,32.038835 C2.71194773,32.038835 3.55271368e-15,29.3559883 3.55271368e-15,26.0582524 C3.55271368e-15,22.7605165 2.71194773,20.0776699 6.04545455,20.0776699 C9.37896136,20.0776699 12.0909091,22.7605165 12.0909091,26.0582524 C12.0909091,29.3559883 9.37896136,32.038835 6.04545455,32.038835 Z M6.04545455,23.4951456 C4.61674091,23.4951456 3.45454545,24.6448699 3.45454545,26.0582524 C3.45454545,27.471635 4.61674091,28.6213592 6.04545455,28.6213592 C7.47416818,28.6213592 8.63636364,27.471635 8.63636364,26.0582524 C8.63636364,24.6448699 7.47416818,23.4951456 6.04545455,23.4951456 Z" id="Shape" fill="#0094D9" fill-rule="nonzero"></path>
                        <path d="M31.2262841,43.8403291 C30.7841455,43.8403291 30.3421795,43.6734709 30.0048432,43.3397117 L25.1194682,38.5067602 C24.7956045,38.1863718 24.6136364,37.7516689 24.6136364,37.2986398 C24.6136364,36.8456107 24.7956045,36.4109078 25.1196841,36.0903058 L30.0050591,31.257568 C30.6793432,30.5905194 31.773225,30.5905194 32.4475091,31.257568 L37.3331,36.0903058 C37.6571795,36.4109078 37.8391477,36.8456107 37.8391477,37.2986398 C37.8391477,37.7516689 37.6571795,38.1863718 37.3331,38.5067602 L32.4475091,43.3397117 C32.1103886,43.6734709 31.66825,43.8403291 31.2262841,43.8403291 Z M28.7836182,37.2986825 L31.2262841,39.7149233 L33.66895,37.2986825 L31.2262841,34.8824417 L28.7836182,37.2986825 Z" id="Shape" fill="#FFF100" fill-rule="nonzero"></path>
                    </g>
                </g>
            </g>
        </g>
    </g>
</svg>